<?xml version="1.0" encoding="UTF-8" standalone="no"?>
<!-- Created with Inkscape (http://www.inkscape.org/) -->

<svg
   xmlns:dc="http://purl.org/dc/elements/1.1/"
   xmlns:cc="http://creativecommons.org/ns#"
   xmlns:rdf="http://www.w3.org/1999/02/22-rdf-syntax-ns#"
   xmlns:svg="http://www.w3.org/2000/svg"
   xmlns="http://www.w3.org/2000/svg"
   version="1.1"
   width="300"
   height="73.362244"
   id="svg2"
   xml:space="preserve"><metadata
     id="metadata8"><rdf:RDF><cc:Work
         rdf:about=""><dc:format>image/svg+xml</dc:format><dc:type
           rdf:resource="http://purl.org/dc/dcmitype/StillImage" /><dc:title></dc:title></cc:Work></rdf:RDF></metadata><defs
     id="defs6"><clipPath
       id="clipPath18"><path
         d="m 0,0 595.276,0 0,595.276 L 0,595.276 0,0 z"
         id="path20" /></clipPath><clipPath
       id="clipPath32"><path
         d="m 0,0 595.276,0 0,595.276 L 0,595.276 0,0 z"
         id="path34" /></clipPath><clipPath
       id="clipPath46"><path
         d="m 36,46.771 112.452,0 0,27.5 -112.452,0 0,-27.5 z"
         id="path48" /></clipPath><clipPath
       id="clipPath66"><path
         d="m 0,0 595.276,0 0,595.276 L 0,595.276 0,0 z"
         id="path68" /></clipPath></defs><g
     transform="matrix(1.25,0,0,-1.25,34.7175,112.33293)"
     id="g10"><g
       transform="matrix(2.1342439,0,0,2.1342439,-104.60678,-68.646085)"
       id="g42"><g
         clip-path="url(#clipPath46)"
         id="g44"><g
           transform="translate(70.2699,71.0802)"
           id="g50"><path
             d="m 0,0 c 3.992,0.133 6.123,-3.594 6.123,-6.521 0,-1.864 -0.732,-1.998 -4.727,-1.998 l -7.585,0 C -6.057,-4.325 -3.727,-0.134 0,0 m -20.648,-21.948 c -5.233,0.131 -7.657,5.955 -8.114,10.535 -0.654,5.625 1.635,11.581 7.526,11.384 5.234,-0.129 7.656,-6.019 8.177,-10.599 0.655,-5.562 -1.701,-11.517 -7.589,-11.32 m 30.898,2.182 c -12.512,-4.924 -16.371,3.994 -16.371,8.785 4.658,0.066 10.914,0.133 15.305,0.066 0.865,0 1.464,0.135 1.529,1.997 C 10.982,-3.062 6.922,2.329 0.4,2.197 -3.629,2.153 -7.512,-0.16 -9.658,-4.213 c -2.399,3.968 -6.871,6.499 -11.842,6.41 -6.738,-0.196 -13.086,-5.694 -12.758,-14.004 0.326,-7.328 6.479,-12.694 13.74,-12.496 4.248,0.125 8.413,2.439 10.76,6.285 2.787,-5.203 9.289,-8.865 20.539,-3.477 l -0.531,1.729 z"
             id="path52"
             style="fill:#000000;fill-opacity:1;fill-rule:nonzero;stroke:none" /></g><g
           transform="translate(118.6469,49.1891)"
           id="g54"><path
             d="m 0,0 c -2.465,0.064 -3.395,0.531 -3.395,2.928 l 0,18.709 c 0.465,0.199 1.262,0.134 2.729,0.134 5.86,0.065 9.388,-4.329 9.454,-11.253 C 8.788,3.727 4.593,-0.068 0,0 m -21.246,3.492 c -5.938,-4.617 -9.25,-1.32 -9.25,1.254 0,3.297 3.312,5.079 9.25,5.145 l 0,-6.399 z M 14.38,11.849 C 13.315,21.105 6.392,23.901 -0.535,23.767 l -5.924,-0.066 -4.602,0.066 0,-1.783 c 1.856,0 2.139,-0.28 2.139,-2.412 l 0,-16.408 c 0,-2.072 -0.543,-3.041 -2.185,-3.172 -0.672,-0.053 -1.465,-0.029 -1.997,-0.023 -2.267,0.023 -2.677,0.465 -2.677,3.545 l 0.01,14.753 c 0,3.827 -1.78,5.805 -6.86,5.805 -5.019,0 -9.918,-2.881 -11.764,-5.257 -0.857,-1.251 -1.453,-3.494 0.196,-3.562 1.123,-0.065 4.222,0.858 4.222,1.715 0,2.573 2.793,4.795 6.551,4.862 2.18,0 2.18,-1.386 2.18,-4.815 l 0,-4.816 c -9.104,0.198 -14.527,-3.628 -14.727,-8.179 -0.197,-4.418 5.227,-10.092 14.858,-3.1 0,-3.715 1.724,-3.18 6.131,-2.949 2.601,0.134 6.773,0.127 7.646,0.127 0.875,0 7.631,-0.143 7.631,-0.143 7.659,-0.201 15.02,5.238 14.087,13.894"
             id="path56"
             style="fill:#000000;fill-opacity:1;fill-rule:nonzero;stroke:none" /></g><g
           transform="translate(142.3019,74.2716)"
           id="g58"><path
             d="m 0,0 c 3.901,0 6.151,-2.972 6.151,-5.853 0,-5.536 -4.155,-8.533 -8.371,-10.197 -0.045,-0.015 -0.116,-0.028 -0.149,0.03 -0.033,0.061 0.012,0.115 0.234,0.305 0.18,0.152 0.413,0.347 0.586,0.522 0.932,0.928 1.657,2.046 1.94,3.464 -4.488,0 -6.289,2.989 -6.289,5.876 C -5.898,-2.972 -3.693,0 0,0"
             id="path60"
             style="fill:#b92d16;fill-opacity:1;fill-rule:evenodd;stroke:none" /></g></g></g></g></svg>