<?xml version="1.0" encoding="UTF-8" standalone="no"?>
<!-- Created with Inkscape (http://www.inkscape.org/) -->
<svg
   xmlns:svg="http://www.w3.org/2000/svg"
   xmlns="http://www.w3.org/2000/svg"
   xmlns:xlink="http://www.w3.org/1999/xlink"
   version="1.0"
   width="354.7626"
   height="290.76642"
   id="svg5529">
  <defs
     id="defs5531">
    <linearGradient
       x1="0"
       y1="0"
       x2="1"
       y2="0"
       id="linearGradient4189-9"
       gradientUnits="userSpaceOnUse"
       gradientTransform="matrix(0,-82.087769,-82.087769,0,284.84714,666.0257)"
       spreadMethod="pad">
      <stop
         id="stop4191-4"
         style="stop-color:#bdbb00;stop-opacity:1"
         offset="0" />
      <stop
         id="stop4193-8"
         style="stop-color:#a2a200;stop-opacity:1"
         offset="1" />
    </linearGradient>
    <linearGradient
       x1="0"
       y1="0"
       x2="1"
       y2="0"
       id="linearGradient5527"
       xlink:href="#linearGradient4189-9"
       gradientUnits="userSpaceOnUse"
       gradientTransform="matrix(0,290.79027,-290.79027,0,260.36186,398.38382)"
       spreadMethod="pad" />
  </defs>
  <g
     transform="translate(-82.981208,-398.40755)"
     id="layer1">
    <path
       d="M 387.53818,398.40755 C 364.41319,399.19043 356.83593,420.60088 354.14014,435.01149 L 354.14014,435.01149 C 349.92111,457.56261 364.67179,481.73616 384.977,484.80745 L 384.977,484.80745 C 405.28576,487.86456 433.1151,484.03165 437.62461,442.67377 L 437.62461,442.67377 C 439.30373,427.26774 423.12899,403.39529 396.2561,399.01331 L 396.2561,399.01331 C 394.14482,398.66969 392.14334,398.47131 390.23751,398.40755 L 390.23751,398.40755 L 387.53818,398.40755 z M 89.261938,487.47135 C 84.943715,501.9599 83.027259,516.12962 82.981208,529.8034 L 82.981208,529.8034 L 82.981208,530.80945 C 83.168957,585.61441 113.37527,632.24343 139.66719,658.45033 L 139.66719,658.45033 C 167.11749,685.81207 237.30722,706.62031 277.10643,667.85194 L 277.10643,667.85194 C 340.56909,606.03298 357.61172,476.2631 342.38281,449.5142 L 342.38281,449.5142 C 332.60924,432.35467 320.93693,420.46273 260.79,408.66997 L 260.79,408.66997 C 244.99784,405.57389 230.55889,404.19943 217.37042,404.19943 L 217.37042,404.19943 C 125.39119,404.19943 94.150493,471.06636 89.261938,487.47135"
       id="path4195"
       style="fill:url(#linearGradient5527);stroke:none" />
    <path
       d="M 393.76433,418.74107 C 392.70319,418.81697 388.45183,419.44335 388.45183,424.30357 L 388.45183,433.86607 C 388.28534,435.24408 387.15005,436.30357 385.73308,436.30357 L 385.76428,436.33477 L 376.42053,436.33477 C 376.42053,436.33477 370.85803,436.31147 370.85803,441.86602 L 370.85803,445.05352 C 370.85803,445.05352 370.87663,450.58477 376.42053,450.58477 L 385.85803,450.58477 C 387.22541,450.65207 388.31008,451.70385 388.45178,453.05352 L 388.45178,462.61602 C 388.45178,462.61602 388.43908,468.17852 393.98303,468.17852 L 397.17053,468.17852 C 397.17053,468.17852 402.70178,468.16352 402.70178,462.61602 L 402.70178,453.33477 C 402.70178,451.84695 403.88792,450.65916 405.35803,450.58477 L 414.76428,450.58477 C 414.76428,450.58477 420.29553,450.59377 420.29553,445.05352 L 420.29553,441.86602 C 420.29553,441.86602 420.30453,436.33477 414.76428,436.33477 L 405.51428,436.33477 C 405.50008,436.33477 405.50428,436.30357 405.48308,436.30357 C 403.94566,436.30357 402.73308,435.05265 402.73308,433.52232 L 402.70188,433.52232 L 402.70188,424.30357 C 402.70188,424.30357 402.71808,418.74107 397.17063,418.74107 L 393.98313,418.74107 C 393.98313,418.74107 393.91593,418.73017 393.76438,418.74107 L 393.76433,418.74107 z M 220.48308,464.36607 C 217.73061,464.36607 214.98492,464.63304 212.26433,465.17857 C 209.54374,465.7241 207.07147,466.64621 204.88933,467.92857 C 202.71073,469.21093 200.92068,470.90749 199.51433,473.02232 C 198.1009,475.13361 197.29583,477.81996 197.10808,481.02232 L 210.76433,481.02232 C 211.01939,478.33007 211.91087,476.38528 213.45183,475.24107 C 214.98216,474.08978 217.09979,473.52232 219.79558,473.52232 C 221.01418,473.52232 222.14619,473.58162 223.20183,473.74107 C 224.26102,473.90756 225.18249,474.22451 225.98308,474.70982 C 226.78367,475.18096 227.44944,475.84901 227.92058,476.70982 C 228.40944,477.57772 228.63933,478.76742 228.63933,480.24107 C 228.70313,481.64387 228.28202,482.73008 227.38933,483.45982 C 226.48601,484.20019 225.2705,484.75765 223.73308,485.14732 C 222.18858,485.5299 220.44268,485.79269 218.45183,485.99107 C 216.46807,486.18236 214.44394,486.44996 212.38933,486.77232 C 210.3418,487.09468 208.31831,487.51512 206.29558,488.05357 C 204.28348,488.5991 202.49342,489.43125 200.92058,490.52232 C 199.35128,491.60985 198.04809,493.07297 197.04558,494.89732 C 196.06078,496.71813 195.57683,499.04628 195.57683,501.86606 C 195.57683,504.43432 196.02143,506.63128 196.88933,508.49106 C 197.75723,510.35084 198.94212,511.89392 200.48308,513.11606 C 202.02404,514.3382 203.80347,515.23323 205.85808,515.80356 C 207.91269,516.38452 210.11674,516.64731 212.48308,516.64731 C 215.56145,516.64731 218.57057,516.20334 221.51433,515.30356 C 224.46518,514.41441 227.03032,512.85842 229.20183,510.61606 C 229.26913,511.45207 229.38263,512.25297 229.54558,513.05356 C 229.70499,513.85061 229.91198,514.65985 230.17058,515.42856 L 244.01433,515.42856 C 243.36607,514.40125 242.92209,512.85463 242.67058,510.80356 C 242.40844,508.75603 242.29558,506.60488 242.29558,504.36606 L 242.29558,478.49107 C 242.29558,475.47646 241.59983,473.06188 240.26433,471.24107 C 238.90758,469.40963 237.18812,468.01838 235.07683,466.99107 C 232.962,465.96376 230.63447,465.25156 228.07683,464.89732 C 225.50857,464.5537 222.98404,464.36607 220.48308,464.36607 L 220.48308,464.36607 z M 270.10808,464.61607 C 267.40875,464.61607 264.80488,464.85305 262.23308,465.33482 C 259.67544,465.81305 257.35019,466.65873 255.29558,467.83482 C 253.24805,469.02508 251.60502,470.65875 250.35808,472.70982 C 249.10406,474.75735 248.48308,477.37892 248.48308,480.58482 C 248.48308,482.75633 248.92351,484.60699 249.82683,486.11607 C 250.72661,487.6216 251.91214,488.88482 253.38933,489.86607 C 254.85944,490.86858 256.52538,491.63886 258.42058,492.24107 C 260.3087,492.85391 262.24578,493.38847 264.23308,493.83482 C 269.09684,494.86213 272.91874,495.90835 275.63933,496.92857 C 278.36346,497.95588 279.73308,499.47833 279.73308,501.52231 C 279.73308,502.74445 279.42841,503.75651 278.85808,504.55356 C 278.27358,505.35769 277.56264,506.00929 276.70183,506.49106 C 275.83393,506.96575 274.84768,507.3233 273.79558,507.55356 C 272.73639,507.76965 271.75912,507.86606 270.79558,507.86606 C 269.453,507.86606 268.13627,507.71613 266.88933,507.39731 C 265.64239,507.07495 264.53329,506.56683 263.57683,505.89731 C 262.61329,505.22779 261.81113,504.3592 261.20183,503.30356 C 260.59253,502.24437 260.29558,500.9995 260.29558,499.52231 L 247.32683,499.52231 C 247.46144,502.86282 248.19882,505.61725 249.57683,507.83481 C 250.95129,510.04529 252.71137,511.80473 254.85808,513.14731 C 257.00479,514.49343 259.48415,515.46906 262.23308,516.05356 C 264.98555,516.63098 267.79058,516.92856 270.67058,516.92856 C 273.48681,516.92856 276.25895,516.63034 278.98308,516.08481 C 281.70367,515.53928 284.1495,514.59427 286.26433,513.24106 C 288.37562,511.89848 290.07155,510.14258 291.38933,507.92856 C 292.70003,505.72517 293.35808,502.97593 293.35808,499.70981 C 293.35808,497.4037 292.91057,495.45953 292.01433,493.89732 C 291.11455,492.32094 289.91485,491.00838 288.45183,489.95982 C 286.97464,488.89709 285.3087,488.04204 283.42058,487.39732 C 281.52184,486.75614 279.59184,486.23284 277.60808,485.77232 C 275.681,485.32952 273.78036,484.90844 271.92058,484.52232 C 270.06435,484.1362 268.42485,483.69159 266.98308,483.20982 C 265.54485,482.73513 264.38286,482.10707 263.48308,481.33482 C 262.57976,480.56965 262.13933,479.58467 262.13933,478.36607 C 262.13933,477.33876 262.37568,476.54141 262.88933,475.92857 C 263.39944,475.32281 264.02042,474.84114 264.76433,474.52232 C 265.49761,474.2035 266.34039,473.99651 267.23308,473.89732 C 268.13286,473.80172 268.96791,473.77232 269.73308,473.77232 C 272.17027,473.77232 274.28436,474.21566 276.07683,475.14732 C 277.8693,476.07544 278.85783,477.86259 279.04558,480.49107 L 292.01433,480.49107 C 291.76282,477.4127 290.98128,474.86109 289.67058,472.83482 C 288.35634,470.82272 286.7133,469.20967 284.73308,467.99107 C 282.73869,466.77247 280.47758,465.90389 277.95183,465.39732 C 275.41899,464.88367 272.79679,464.61607 270.10808,464.61607 L 270.10808,464.61607 z M 228.63933,491.08482 L 228.63933,496.17857 C 228.63933,496.94374 228.54873,497.98996 228.38933,499.27231 C 228.22992,500.54759 227.80594,501.80308 227.10808,503.05356 C 226.40314,504.3005 225.30048,505.37962 223.82683,506.27231 C 222.35318,507.17209 220.26908,507.61606 217.57683,507.61606 C 216.48222,507.61606 215.44789,507.52966 214.42058,507.33481 C 213.39327,507.13998 212.49116,506.81658 211.73308,506.33481 C 210.95729,505.85304 210.3463,505.20207 209.88933,504.36606 C 209.44653,503.53713 209.23308,502.48736 209.23308,501.27231 C 209.23308,499.99703 209.44653,498.94853 209.88933,498.11607 C 210.3463,497.28006 210.93021,496.60265 211.67058,496.05357 C 212.40032,495.51866 213.27245,495.05989 214.26433,494.74107 C 215.25621,494.41162 216.26827,494.1859 217.29558,493.99107 C 218.39019,493.79978 219.4616,493.62214 220.54558,493.49107 C 221.64019,493.36708 222.69932,493.21007 223.70183,493.02232 C 224.68663,492.82749 225.61518,492.59405 226.48308,492.30357 C 227.35098,492.01309 228.06546,491.60201 228.63933,491.08482 z M 203.04558,521.61606 C 200.40552,521.74934 197.97411,522.36229 195.73308,523.42856 C 193.16836,524.64361 191.04365,526.60777 189.38933,529.30356 L 189.20183,529.30356 L 189.20183,522.95981 L 176.23307,522.95981 L 176.23307,590.02231 L 189.85808,590.02231 L 189.85808,566.49106 L 190.07683,566.49106 C 191.74886,568.92117 193.85169,570.77537 196.45183,572.02231 C 199.04489,573.27279 201.87346,573.89731 204.95183,573.89731 C 208.60762,573.89731 211.81791,573.17866 214.54558,571.77231 C 217.26617,570.36242 219.53019,568.45824 221.35808,566.08481 C 223.18597,563.71847 224.52434,561.00339 225.42058,557.92856 C 226.3239,554.84664 226.79558,551.64053 226.79558,548.30356 C 226.79558,544.78593 226.3239,541.40926 225.42058,538.17856 C 224.52434,534.94078 223.15536,532.10513 221.29558,529.67856 C 219.44289,527.24137 217.11536,525.2843 214.29558,523.80356 C 211.47226,522.33345 208.0985,521.61606 204.20183,521.61606 C 203.81659,521.61606 203.42273,521.59706 203.04558,521.61606 z M 256.82683,521.61606 C 253.04351,521.61606 249.62104,522.26285 246.51433,523.61606 C 243.40762,524.95864 240.72544,526.80931 238.48308,529.14731 C 236.23718,531.4924 234.50709,534.26099 233.29558,537.45981 C 232.07698,540.66571 231.45183,544.1188 231.45183,547.83481 C 231.45183,551.67835 232.04282,555.19849 233.23308,558.39731 C 234.40917,561.60321 236.11344,564.36889 238.29558,566.67856 C 240.47418,568.98114 243.13636,570.77537 246.26433,572.02231 C 249.40647,573.27633 252.91953,573.89731 256.82683,573.89731 C 262.4593,573.89731 267.28972,572.61474 271.26433,570.05356 C 275.2354,567.48884 278.181,563.22714 280.10808,557.27231 L 268.07683,557.27231 C 267.61986,558.80973 266.4008,560.2693 264.42058,561.64731 C 262.43328,563.02177 260.07221,563.70981 257.32683,563.70981 C 253.46912,563.70981 250.53061,562.69711 248.48308,560.70981 C 246.42847,558.71896 245.30291,555.53347 245.10808,551.11606 L 280.95183,551.11606 C 281.20689,547.26898 280.88643,543.57828 279.98308,540.05356 C 279.0833,536.52884 277.66206,533.39978 275.63933,530.64731 C 273.62014,527.8913 271.02084,525.68662 267.88933,524.05356 C 264.74719,522.41696 261.05295,521.61606 256.82683,521.61606 z M 201.23308,531.89731 C 203.40459,531.89731 205.224,532.33357 206.73308,533.27231 C 208.23861,534.19688 209.4812,535.42657 210.45183,536.92856 C 211.41183,538.43055 212.09987,540.16127 212.51433,542.08481 C 212.92879,544.00127 213.13933,545.9448 213.13933,547.92856 C 213.13933,549.91232 212.9317,551.88002 212.54558,553.80356 C 212.17008,555.72002 211.50495,557.39304 210.57683,558.83481 C 209.65226,560.27304 208.45736,561.47691 206.95183,562.36606 C 205.44275,563.26938 203.53794,563.70981 201.29558,563.70981 C 199.12053,563.70981 197.26695,563.26938 195.73308,562.36606 C 194.19566,561.47691 192.9737,560.27304 192.04558,558.83481 C 191.11038,557.39304 190.42525,555.72002 190.01433,553.80356 C 189.58924,551.88002 189.38933,549.91232 189.38933,547.92856 C 189.38933,545.88103 189.59696,543.88335 189.98308,541.95981 C 190.37275,540.03981 191.01309,538.3745 191.95183,536.89731 C 192.88703,535.4272 194.10255,534.19688 195.60808,533.27231 C 197.10653,532.33357 198.98364,531.89731 201.23308,531.89731 z M 256.45183,531.89731 C 259.77463,531.89731 262.25627,532.79588 263.88933,534.58481 C 265.52239,536.38437 266.65794,539.0024 267.29558,542.45981 L 245.10808,542.45981 C 245.16478,541.49981 245.38592,540.4007 245.73308,539.17856 C 246.08378,537.96351 246.71248,536.82859 247.57683,535.74106 C 248.44118,534.65353 249.56193,533.72789 251.01433,532.99106 C 252.45256,532.25778 254.26969,531.89731 256.45183,531.89731 z M 226.88933,579.99106 C 225.16062,579.99106 223.49405,580.22741 221.88933,580.74106 C 220.28815,581.25471 218.79922,582.00044 217.38933,582.92856 C 215.98298,583.85668 214.7304,584.95807 213.63933,586.27231 C 212.55535,587.58655 211.6903,589.01614 211.04558,590.55356 L 210.85808,590.55356 L 210.85808,581.33481 L 197.85808,581.33481 L 197.85808,631.02231 L 211.51433,631.02231 L 211.51433,608.61606 C 211.51433,606.36662 211.75548,604.29314 212.20183,602.36606 C 212.65172,600.44252 213.3891,598.77658 214.45183,597.33481 C 215.50393,595.90013 216.90708,594.76103 218.63933,593.92856 C 220.37158,593.09963 222.48212,592.67856 224.98308,592.67856 C 225.81201,592.67856 226.68059,592.70436 227.57683,592.80356 C 228.47307,592.89916 229.24107,593.01978 229.88933,593.14731 L 229.88933,580.45981 C 228.79118,580.14099 227.78557,579.99106 226.88933,579.99106 z M 263.54558,579.99106 C 260.66558,579.99106 257.84347,580.65265 255.07683,581.95981 C 252.32436,583.27759 250.08679,585.36106 248.35808,588.24106 L 248.07683,588.24106 L 248.07683,581.33481 L 235.10808,581.33481 L 235.10808,631.02231 L 248.73308,631.02231 L 248.73308,604.95981 C 248.73308,599.89413 249.59584,596.26758 251.26433,594.05356 C 252.92219,591.85017 255.60373,590.74106 259.32683,590.74106 C 262.58941,590.74106 264.86051,591.74604 266.13933,593.77231 C 267.42169,595.78795 268.07683,598.86122 268.07683,602.95981 L 268.07683,631.02231 L 281.70183,631.02231 L 281.70183,600.45981 C 281.70183,597.38852 281.43486,594.57931 280.88933,592.05356 C 280.34025,589.51718 279.39525,587.38373 278.04558,585.61606 C 276.69946,583.85547 274.88358,582.45523 272.54558,581.45981 C 270.20403,580.46793 267.20137,579.99106 263.54558,579.99106 z"
       id="path4231"
       style="fill:#ffffff;fill-opacity:1;fill-rule:nonzero;stroke:none" />
  </g>
</svg>
