<?xml version="1.0" encoding="utf-8"?>
<!-- Generator: Adobe Illustrator 24.3.0, SVG Export Plug-In . SVG Version: 6.00 Build 0)  -->
<svg version="1.1" id="Ebene_1" xmlns="http://www.w3.org/2000/svg" xmlns:xlink="http://www.w3.org/1999/xlink" x="0px" y="0px"
	 viewBox="0 0 737.01 141.73" style="enable-background:new 0 0 737.01 141.73;" xml:space="preserve">
<style type="text/css">
	.st0{clip-path:url(#SVGID_2_);}
	.st1{clip-path:url(#SVGID_4_);fill-rule:evenodd;clip-rule:evenodd;fill:#E41517;}
	.st2{clip-path:url(#SVGID_4_);fill-rule:evenodd;clip-rule:evenodd;fill:#0079A0;}
	.st3{clip-path:url(#SVGID_4_);fill-rule:evenodd;clip-rule:evenodd;}
</style>
<g>
	<defs>
		<rect id="SVGID_1_" width="737.01" height="141.73"/>
	</defs>
	<clipPath id="SVGID_2_">
		<use xlink:href="#SVGID_1_"  style="overflow:visible;"/>
	</clipPath>
	<g class="st0">
		<defs>
			<rect id="SVGID_3_" x="0.12" y="-0.11" width="737.04" height="141.84"/>
		</defs>
		<clipPath id="SVGID_4_">
			<use xlink:href="#SVGID_3_"  style="overflow:visible;"/>
		</clipPath>
		<polyline class="st1" points="101.13,66.68 66.35,66.68 61.69,54.22 101.13,54.22 101.13,66.68 		"/>
		<polyline class="st1" points="101.13,89.7 74.96,89.7 70.3,77.24 101.13,77.24 101.13,89.7 		"/>
		<polyline class="st1" points="36,72.54 70.78,72.54 75.45,85 36,85 36,72.54 		"/>
		<polyline class="st1" points="36,49.52 62.17,49.52 66.83,61.98 36,61.98 36,49.52 		"/>
		<path class="st2" d="M698.76,55.64h5.71V68h12.37v5.71h-12.37v12.37h-5.71V73.71h-12.37V68h12.37 M669.74,89.89
			c0,8.88-5.36,13.32-16.08,13.32c-10.72,0-16.08-4.44-16.08-13.32V81.8h6.66v8.47c0,2.28,0.79,4.06,2.38,5.33
			c1.59,1.27,3.93,1.9,7.04,1.9c3.11,0,5.45-0.63,7.04-1.9c1.58-1.27,2.38-3,2.38-5.18s-0.24-3.93-0.71-5.23
			c-0.48-1.3-1.44-2.68-2.9-4.14l-16.74-16.36c-1.97-1.97-3.31-3.89-4.04-5.76c-0.73-1.87-1.09-4.23-1.09-7.09
			c0-4.25,1.32-7.53,3.95-9.85c2.63-2.31,6.61-3.47,11.94-3.47c10.21,0,15.32,4.44,15.32,13.32v8.09h-6.66v-8.47
			c0-2.28-0.75-4.06-2.24-5.33c-1.49-1.27-3.73-1.9-6.71-1.9c-2.98,0-5.22,0.64-6.71,1.9c-1.49,1.27-2.24,3.01-2.24,5.23
			s0.22,3.96,0.67,5.23c0.44,1.27,1.43,2.6,2.95,4l17.03,16.36c1.84,2.03,3.11,3.98,3.8,5.85
			C669.39,84.67,669.74,87.03,669.74,89.89z M588.59,89.89V39.94h6.66v49.95c0,2.41,0.52,4.28,1.57,5.61c1.05,1.33,2.97,2,5.76,2
			c2.79,0,5.36-1.08,7.71-3.24c2.35-2.16,3.52-4.25,3.52-6.28V39.94h6.66v61.84h-2.85l-2.47-6.09c-1.4,2.28-3.19,4.11-5.38,5.47
			c-2.19,1.36-4.58,2.04-7.18,2.04C593.25,103.2,588.59,98.76,588.59,89.89z M522.94,101.78h-6.66V39.94h2.85l2.38,6.09
			c1.33-2.28,3.08-4.11,5.23-5.47c2.16-1.36,4.5-2.05,7.04-2.05c6.41,0,10.5,2.32,12.27,6.94c3.04-4.63,7.04-6.94,11.99-6.94
			c8.94,0,13.41,4.44,13.41,13.32v49.95h-6.66V51.83c0-5.07-2.28-7.61-6.85-7.61c-2.66,0-5.12,1.08-7.37,3.24
			c-2.25,2.16-3.38,4.25-3.38,6.28v48.05h-6.66V51.83c0-5.07-2.28-7.61-6.85-7.61c-2.66,0-5.12,1.03-7.37,3.09
			c-2.25,2.06-3.38,4.11-3.38,6.14V101.78z M499.16,89.89c0,8.88-5.36,13.32-16.08,13.32S467,98.76,467,89.89V81.8h6.66v8.47
			c0,2.28,0.79,4.06,2.38,5.33c1.59,1.27,3.93,1.9,7.04,1.9s5.46-0.63,7.04-1.9c1.59-1.27,2.38-3,2.38-5.18s-0.24-3.93-0.71-5.23
			c-0.48-1.3-1.44-2.68-2.9-4.14l-16.75-16.36c-1.97-1.97-3.31-3.89-4.04-5.76c-0.73-1.87-1.09-4.23-1.09-7.09
			c0-4.25,1.32-7.53,3.95-9.85c2.63-2.31,6.61-3.47,11.94-3.47c10.21,0,15.32,4.44,15.32,13.32v8.09h-6.66v-8.47
			c0-2.28-0.74-4.06-2.24-5.33c-1.49-1.27-3.73-1.9-6.71-1.9c-2.98,0-5.22,0.64-6.71,1.9c-1.49,1.27-2.24,3.01-2.24,5.23
			s0.22,3.96,0.67,5.23c0.44,1.27,1.43,2.6,2.95,4l17.03,16.36c1.84,2.03,3.11,3.98,3.81,5.85
			C498.81,84.67,499.16,87.03,499.16,89.89z M444.17,72.76h-11.04c-2.66,0-4.5,0.67-5.52,2c-1.02,1.33-1.52,3.2-1.52,5.61v9.51
			c0,2.41,0.51,4.28,1.52,5.61c1.01,1.33,2.85,2,5.52,2c2.66,0,5.14-1.03,7.42-3.09c2.28-2.06,3.49-4.11,3.62-6.14V72.76z
			 M450.83,101.78h-2.85l-2.47-6.09c-1.33,2.28-3.08,4.11-5.23,5.47c-2.16,1.36-4.54,2.04-7.13,2.04c-9.13,0-13.7-4.44-13.7-13.32
			v-9.51c0-8.88,4.57-13.32,13.7-13.32h11.04v-15.6c0-2.28-0.73-4.06-2.19-5.33c-1.46-1.27-3.61-1.9-6.47-1.9
			c-5.64,0-8.47,2.41-8.47,7.23v5.61h-6.66v-5.23c0-4.25,1.25-7.53,3.76-9.85c2.5-2.31,6.29-3.47,11.37-3.47s8.89,1.16,11.46,3.47
			c2.57,2.32,3.85,5.6,3.85,9.85V101.78z M389.94,101.78h-6.66V39.94h2.85l2.76,7.04c2.03-5.64,5.26-8.47,9.7-8.47
			c7.55,0,11.32,4.12,11.32,12.37v6.18h-6.37V50.5c0-4.19-1.74-6.28-5.23-6.28c-2.09,0-4.01,1.21-5.76,3.62
			c-1.74,2.41-2.62,5.9-2.62,10.46V101.78z M340.95,51.83v15.22h18.08V51.83c0-5.07-3.01-7.61-9.04-7.61
			C343.96,44.22,340.95,46.76,340.95,51.83z M359.02,89.89v-5.23h6.66v5.23c0,4.25-1.3,7.53-3.9,9.85c-2.6,2.32-6.5,3.47-11.7,3.47
			c-5.2,0-9.13-1.16-11.8-3.47c-2.66-2.31-4-5.6-4-9.85V51.83c0-4.25,1.3-7.53,3.9-9.85c2.6-2.31,6.5-3.47,11.7-3.47
			c5.2,0,9.13,1.16,11.8,3.47c2.66,2.32,4,5.6,4,9.85v20.93h-24.74v17.12c0,5.07,3.01,7.61,9.04,7.61
			C356.01,97.5,359.02,94.96,359.02,89.89z"/>
		<path class="st3" d="M289.58,88.46v-35.2c0-2.41-0.73-4.28-2.19-5.61c-1.46-1.33-3.55-2-6.28-2h-8.66v50.42h8.66
			C286.75,96.07,289.58,93.53,289.58,88.46 M281.11,101.78h-15.32V39.94h15.32c4.95,0,8.71,1.17,11.27,3.52
			c2.57,2.35,3.85,5.61,3.85,9.8v35.2c0,4.25-1.27,7.53-3.81,9.85C289.89,100.62,286.12,101.78,281.11,101.78z M241.06,72.76h-11.04
			c-2.66,0-4.5,0.67-5.52,2c-1.01,1.33-1.52,3.2-1.52,5.61v9.51c0,2.41,0.51,4.28,1.52,5.61c1.01,1.33,2.85,2,5.52,2
			c2.66,0,5.14-1.03,7.42-3.09c2.28-2.06,3.49-4.11,3.61-6.14V72.76z M247.72,101.78h-2.85l-2.47-6.09
			c-1.33,2.28-3.08,4.11-5.23,5.47c-2.16,1.36-4.54,2.04-7.14,2.04c-9.13,0-13.7-4.44-13.7-13.32v-9.51
			c0-8.88,4.57-13.32,13.7-13.32h11.04v-15.6c0-2.28-0.73-4.06-2.19-5.33c-1.46-1.27-3.62-1.9-6.47-1.9c-5.65,0-8.47,2.41-8.47,7.23
			v5.61h-6.66v-5.23c0-4.25,1.25-7.53,3.76-9.85c2.51-2.32,6.29-3.47,11.37-3.47s8.9,1.16,11.46,3.47c2.57,2.31,3.85,5.6,3.85,9.85
			V101.78z M175.89,51.83v15.22h18.08V51.83c0-5.07-3.01-7.61-9.04-7.61C178.9,44.22,175.89,46.76,175.89,51.83z M193.96,89.89
			v-5.23h6.66v5.23c0,4.25-1.3,7.53-3.9,9.85c-2.6,2.31-6.5,3.47-11.7,3.47c-5.2,0-9.13-1.16-11.8-3.47s-4-5.6-4-9.85V51.83
			c0-4.25,1.3-7.53,3.9-9.85c2.6-2.32,6.5-3.47,11.7-3.47c5.2,0,9.13,1.16,11.8,3.47c2.66,2.31,4,5.6,4,9.85v20.93h-24.74v17.12
			c0,5.07,3.01,7.61,9.04,7.61C190.95,97.5,193.96,94.96,193.96,89.89z M146.4,89.89V51.83c0-5.07-3.17-7.61-9.51-7.61
			s-9.51,2.54-9.51,7.61v38.06c0,5.07,3.17,7.61,9.51,7.61S146.4,94.96,146.4,89.89z M153.05,51.83v38.06
			c0,4.25-1.35,7.53-4.04,9.85c-2.7,2.31-6.72,3.47-12.08,3.47c-5.36,0-9.4-1.16-12.13-3.47c-2.73-2.31-4.09-5.6-4.09-9.85V51.83
			c0-4.25,1.35-7.53,4.04-9.85c2.7-2.32,6.72-3.47,12.08-3.47c5.36,0,9.4,1.16,12.13,3.47C151.69,44.3,153.05,47.58,153.05,51.83z"
			/>
	</g>
</g>
</svg>
