<svg id="svg" version="1.1" xmlns="http://www.w3.org/2000/svg" xmlns:xlink="http://www.w3.org/1999/xlink" width="109px" height="32.8px" viewBox="0, 0, 400,83.1615120274914"><g id="svgg"><path id="path0" d="M354.178 1.369 C 354.271 2.072,354.147 3.174,353.987 3.075 C 353.866 3.000,353.816 3.230,353.835 3.774 C 353.893 5.459,353.833 6.353,353.667 6.250 C 353.575 6.193,353.500 6.268,353.500 6.417 C 353.500 6.584,353.579 6.642,353.708 6.569 C 353.875 6.475,353.875 6.496,353.708 6.676 C 353.579 6.815,353.500 7.391,353.500 8.200 C 353.500 8.956,353.430 9.500,353.333 9.500 C 353.242 9.500,353.176 9.556,353.186 9.625 C 353.280 10.217,353.133 14.332,353.021 14.263 C 352.866 14.167,352.618 18.063,352.643 20.208 C 352.651 20.919,352.604 21.500,352.537 21.500 C 352.471 21.500,352.435 22.812,352.457 24.417 C 352.492 26.910,352.461 27.333,352.249 27.333 C 351.949 27.333,351.869 33.566,352.167 33.750 C 352.400 33.894,352.395 45.833,352.161 45.833 C 352.060 45.833,352.009 46.175,352.036 46.665 C 352.081 47.452,352.107 47.496,352.525 47.465 C 352.768 47.446,353.074 47.520,353.204 47.629 C 353.552 47.917,370.274 47.908,370.391 47.619 C 370.455 47.464,370.477 47.465,370.487 47.625 C 370.497 47.779,371.050 47.836,372.625 47.845 C 373.967 47.852,374.627 47.910,374.417 48.000 C 374.193 48.096,374.535 48.147,375.458 48.155 C 376.334 48.162,376.833 48.233,376.833 48.349 C 376.833 48.468,377.154 48.504,377.763 48.452 C 378.426 48.396,378.716 48.435,378.775 48.588 C 378.829 48.728,379.150 48.794,379.707 48.778 C 380.252 48.763,380.582 48.829,380.626 48.961 C 380.668 49.087,381.011 49.167,381.514 49.167 C 381.987 49.167,382.333 49.242,382.333 49.346 C 382.333 49.444,382.540 49.512,382.792 49.495 C 383.581 49.443,383.857 49.494,383.746 49.672 C 383.680 49.780,383.795 49.817,384.052 49.770 C 384.278 49.729,384.672 49.804,384.928 49.937 C 385.183 50.069,385.510 50.167,385.655 50.153 C 386.259 50.096,386.680 50.178,386.583 50.333 C 386.527 50.425,386.541 50.507,386.615 50.517 C 386.689 50.526,386.953 50.551,387.201 50.574 C 387.450 50.596,387.750 50.692,387.868 50.788 C 387.986 50.883,388.402 50.951,388.792 50.939 C 389.181 50.927,389.500 50.992,389.500 51.083 C 389.500 51.175,389.817 51.262,390.204 51.277 C 390.591 51.292,390.934 51.386,390.967 51.486 C 391.047 51.725,391.667 51.720,391.667 51.480 C 391.667 51.358,391.765 51.372,391.949 51.521 C 392.192 51.719,392.210 51.716,392.083 51.500 C 391.964 51.298,391.982 51.287,392.176 51.444 C 392.419 51.640,392.495 51.665,392.875 51.669 C 393.015 51.671,393.002 51.727,392.833 51.842 C 392.649 51.967,392.793 52.002,393.375 51.973 C 393.821 51.950,394.254 52.020,394.366 52.133 C 394.477 52.243,394.683 52.328,394.825 52.322 C 395.008 52.313,394.986 52.268,394.750 52.167 C 394.478 52.050,394.469 52.021,394.698 52.012 C 394.854 52.005,395.029 52.078,395.088 52.174 C 395.147 52.270,395.433 52.321,395.723 52.288 L 396.250 52.227 396.270 51.155 C 396.281 50.566,396.234 49.933,396.166 49.750 C 396.098 49.567,396.014 48.592,395.979 47.583 C 395.945 46.575,395.842 45.694,395.750 45.625 C 395.645 45.547,395.677 45.439,395.833 45.336 C 396.001 45.226,396.014 45.171,395.875 45.169 C 395.719 45.167,395.667 44.604,395.667 42.917 C 395.667 41.679,395.723 40.666,395.792 40.666 C 395.860 40.666,395.942 39.522,395.974 38.125 C 396.005 36.727,396.103 35.540,396.190 35.485 C 396.278 35.431,396.336 35.131,396.318 34.818 C 396.242 33.434,396.339 32.150,396.511 32.257 C 396.609 32.317,396.675 32.266,396.658 32.142 C 396.558 31.410,396.689 29.161,396.827 29.246 C 396.917 29.301,396.980 29.140,396.970 28.881 C 396.907 27.245,397.133 26.073,397.390 26.708 C 397.436 26.823,397.480 26.763,397.487 26.575 C 397.494 26.387,397.410 26.143,397.300 26.033 C 397.144 25.878,397.147 25.833,397.313 25.833 C 397.453 25.833,397.509 25.641,397.477 25.269 C 397.450 24.958,397.505 24.602,397.599 24.477 C 397.796 24.216,397.800 24.003,397.613 23.708 C 397.540 23.594,397.553 23.500,397.642 23.500 C 397.732 23.500,397.792 23.054,397.777 22.500 C 397.759 21.824,397.814 21.500,397.948 21.500 C 398.081 21.500,398.142 21.158,398.135 20.458 C 398.118 18.886,398.154 18.472,398.298 18.561 C 398.370 18.606,398.419 18.009,398.407 17.235 C 398.392 16.357,398.466 15.670,398.603 15.407 C 398.867 14.897,398.916 3.096,398.653 3.258 C 398.568 3.311,398.454 3.240,398.400 3.100 C 398.313 2.874,397.064 2.855,387.276 2.933 C 381.212 2.982,374.787 2.959,373.000 2.882 C 371.212 2.806,369.434 2.789,369.049 2.844 C 368.663 2.900,368.386 2.882,368.434 2.806 C 368.535 2.642,368.542 2.643,366.502 2.641 C 365.632 2.641,364.875 2.568,364.820 2.479 C 364.766 2.390,364.094 2.289,363.329 2.255 C 362.451 2.215,362.025 2.247,362.177 2.343 C 362.327 2.438,362.342 2.496,362.218 2.497 C 362.109 2.499,361.969 2.418,361.907 2.318 C 361.845 2.217,361.614 2.170,361.393 2.212 C 361.173 2.254,360.945 2.212,360.887 2.119 C 360.822 2.014,360.866 2.000,361.000 2.083 C 361.149 2.175,361.178 2.153,361.093 2.015 C 361.011 1.882,360.599 1.825,359.909 1.850 C 359.261 1.873,358.754 1.809,358.603 1.683 C 358.441 1.549,357.976 1.501,357.261 1.546 C 356.259 1.608,355.857 1.486,356.375 1.277 C 356.505 1.225,356.479 1.188,356.306 1.180 C 356.153 1.173,355.996 1.260,355.958 1.375 C 355.906 1.527,355.824 1.535,355.652 1.403 C 355.299 1.133,354.143 1.107,354.178 1.369 M389.585 11.875 C 389.717 13.111,389.550 18.192,389.373 18.325 C 389.305 18.375,389.232 18.933,389.210 19.564 C 389.188 20.196,389.091 20.807,388.996 20.922 C 388.900 21.037,388.833 21.196,388.847 21.274 C 388.945 21.820,388.807 23.337,388.667 23.250 C 388.563 23.186,388.500 23.517,388.500 24.129 C 388.500 24.669,388.444 25.167,388.375 25.236 C 388.306 25.305,388.237 25.598,388.220 25.889 C 388.204 26.179,388.173 26.735,388.151 27.125 C 388.130 27.515,388.049 27.833,387.973 27.833 C 387.896 27.833,387.833 28.316,387.833 28.907 C 387.833 29.497,387.758 30.027,387.667 30.083 C 387.574 30.141,387.500 30.915,387.500 31.833 C 387.500 32.739,387.430 33.524,387.344 33.577 C 387.254 33.633,387.181 35.418,387.172 37.777 C 387.157 42.060,387.142 42.211,386.746 42.059 C 386.612 42.007,386.539 41.905,386.584 41.833 C 386.629 41.760,386.432 41.716,386.147 41.736 C 385.862 41.756,385.544 41.691,385.439 41.592 C 385.335 41.494,384.988 41.414,384.667 41.415 C 383.909 41.417,383.691 41.311,384.094 41.135 C 384.305 41.043,384.176 41.024,383.720 41.081 C 383.282 41.135,382.942 41.090,382.804 40.958 C 382.682 40.844,382.246 40.723,381.833 40.690 C 381.421 40.658,381.040 40.561,380.986 40.476 C 380.933 40.390,380.532 40.348,380.095 40.380 C 379.598 40.418,379.272 40.368,379.226 40.248 C 379.162 40.080,377.980 39.933,376.876 39.957 C 376.670 39.961,376.544 39.898,376.594 39.816 C 376.730 39.596,376.432 39.634,376.200 39.867 C 376.044 40.022,376.000 40.022,376.000 39.867 C 376.000 39.757,375.804 39.667,375.566 39.667 C 375.265 39.667,375.158 39.596,375.219 39.437 C 375.268 39.311,375.219 39.112,375.112 38.996 C 374.959 38.830,374.979 38.806,375.208 38.887 C 375.372 38.945,375.500 38.909,375.500 38.805 C 375.500 38.703,375.369 38.518,375.208 38.393 C 374.940 38.184,374.939 38.174,375.203 38.265 C 375.454 38.353,375.483 38.251,375.444 37.437 C 375.417 36.869,375.472 36.482,375.586 36.439 C 375.704 36.393,375.782 35.743,375.798 34.665 C 375.812 33.729,375.887 32.877,375.965 32.773 C 376.169 32.499,376.190 31.701,375.997 31.581 C 375.901 31.522,375.890 31.363,375.973 31.198 C 376.050 31.043,376.121 30.105,376.130 29.113 C 376.139 28.120,376.222 27.218,376.313 27.107 C 376.558 26.813,376.547 16.882,376.302 16.731 C 376.178 16.654,376.161 16.694,376.251 16.849 C 376.326 16.978,376.334 17.036,376.268 16.978 C 376.203 16.920,376.123 15.715,376.091 14.301 L 376.032 11.729 377.307 11.766 C 378.028 11.787,378.627 11.730,378.686 11.635 C 378.749 11.534,379.761 11.469,381.232 11.472 C 382.703 11.476,383.634 11.416,383.577 11.322 C 383.477 11.161,383.584 11.151,386.121 11.096 C 386.967 11.078,387.711 11.011,387.774 10.948 C 387.837 10.885,388.245 10.833,388.681 10.833 L 389.473 10.833 389.585 11.875 M370.083 12.333 C 370.023 12.431,370.193 12.500,370.490 12.500 C 370.771 12.500,371.000 12.425,371.000 12.333 C 371.000 12.242,371.394 12.167,371.875 12.166 L 372.750 12.166 372.702 15.416 C 372.673 17.346,372.588 18.667,372.493 18.667 C 372.405 18.667,372.333 18.746,372.333 18.843 C 372.333 18.940,372.403 18.977,372.488 18.924 C 372.574 18.871,372.691 18.904,372.748 18.997 C 372.806 19.090,372.736 19.167,372.593 19.167 C 372.301 19.167,372.235 19.753,372.508 19.922 C 372.630 19.997,372.630 20.093,372.508 20.240 C 372.412 20.356,372.344 20.882,372.356 21.410 C 372.368 21.938,372.312 22.418,372.231 22.476 C 372.150 22.535,372.064 23.142,372.041 23.824 C 372.017 24.507,371.930 25.107,371.847 25.158 C 371.764 25.209,371.692 25.770,371.687 26.404 C 371.683 27.038,371.603 27.603,371.510 27.661 C 371.417 27.718,371.352 28.050,371.365 28.397 C 371.378 28.745,371.320 29.079,371.236 29.140 C 371.152 29.200,371.061 29.550,371.033 29.917 C 371.005 30.283,370.912 30.608,370.825 30.639 C 370.738 30.669,370.667 30.923,370.667 31.203 C 370.667 31.775,370.349 33.001,370.139 33.242 C 370.062 33.329,370.000 33.643,370.000 33.940 C 370.000 34.237,369.925 34.527,369.833 34.583 C 369.742 34.640,369.667 34.869,369.667 35.093 C 369.667 35.317,369.587 35.500,369.490 35.500 C 369.393 35.500,369.360 35.575,369.417 35.667 C 369.473 35.758,369.457 35.833,369.379 35.833 C 369.302 35.833,369.249 36.040,369.261 36.292 C 369.274 36.544,369.211 36.797,369.123 36.855 C 369.034 36.913,368.955 37.250,368.947 37.605 C 368.939 37.974,368.823 38.337,368.675 38.453 C 368.330 38.725,367.320 38.731,367.375 38.462 C 367.404 38.319,367.154 38.262,366.551 38.273 C 365.948 38.284,365.658 38.218,365.595 38.054 C 365.528 37.878,365.425 37.862,365.189 37.988 C 364.946 38.118,364.784 38.079,364.482 37.817 C 364.189 37.564,363.929 37.496,363.453 37.551 C 363.035 37.600,362.732 37.542,362.574 37.384 C 362.384 37.193,362.331 37.189,362.320 37.363 C 362.311 37.519,362.283 37.525,362.226 37.384 C 362.182 37.275,362.038 37.226,361.907 37.277 C 361.776 37.327,361.625 37.253,361.572 37.113 C 361.515 36.965,361.332 36.885,361.138 36.922 C 360.898 36.968,360.829 36.917,360.896 36.743 C 360.965 36.565,360.863 36.500,360.515 36.500 C 360.254 36.500,359.958 36.400,359.857 36.278 C 359.615 35.986,359.575 29.493,359.814 29.345 C 359.907 29.288,359.973 28.868,359.961 28.412 C 359.918 26.756,359.996 25.902,360.166 26.167 C 360.276 26.338,360.318 26.025,360.299 25.177 C 360.280 24.347,360.337 23.916,360.469 23.871 C 360.578 23.835,360.667 23.732,360.667 23.643 C 360.667 23.554,360.592 23.527,360.500 23.583 C 360.307 23.703,360.273 23.449,360.458 23.264 C 360.527 23.195,360.592 22.976,360.602 22.778 C 360.676 21.378,360.767 20.709,360.875 20.775 C 360.944 20.818,361.000 20.061,361.000 19.093 C 361.000 18.031,361.066 17.333,361.167 17.333 C 361.258 17.333,361.333 17.216,361.333 17.073 C 361.333 16.931,361.258 16.860,361.167 16.917 C 361.075 16.973,361.000 16.940,361.000 16.843 C 361.000 16.746,361.079 16.667,361.176 16.667 C 361.293 16.667,361.335 15.973,361.301 14.597 L 361.250 12.527 363.167 12.407 C 364.221 12.341,366.151 12.330,367.455 12.382 C 368.857 12.439,369.867 12.414,369.923 12.322 C 369.976 12.237,370.057 12.167,370.103 12.167 C 370.149 12.167,370.140 12.242,370.083 12.333 " stroke="none" fill="#04e474" fill-rule="evenodd"></path><path id="path1" d="M375.542 2.957 C 376.160 2.989,377.173 2.989,377.792 2.957 C 378.410 2.925,377.904 2.899,376.667 2.899 C 375.429 2.899,374.923 2.925,375.542 2.957 M387.375 2.957 C 388.177 2.988,389.490 2.988,390.292 2.957 C 391.094 2.927,390.438 2.902,388.833 2.902 C 387.229 2.902,386.573 2.927,387.375 2.957 M352.709 16.083 C 352.711 16.450,352.745 16.580,352.785 16.373 C 352.824 16.166,352.823 15.866,352.781 15.706 C 352.739 15.547,352.707 15.717,352.709 16.083 M1.167 49.586 L 1.167 81.172 5.292 81.128 L 9.417 81.083 9.459 66.708 C 9.487 57.318,9.559 52.333,9.668 52.333 C 9.760 52.333,9.833 51.857,9.833 51.250 C 9.833 50.639,9.906 50.167,10.000 50.167 C 10.092 50.167,10.167 49.867,10.167 49.500 C 10.167 49.133,10.242 48.833,10.333 48.833 C 10.425 48.833,10.500 48.608,10.500 48.333 C 10.500 48.058,10.575 47.833,10.667 47.833 C 10.758 47.833,10.833 47.683,10.833 47.500 C 10.833 47.317,10.908 47.167,11.000 47.167 C 11.092 47.167,11.167 47.033,11.167 46.870 C 11.167 46.707,11.317 46.465,11.500 46.333 C 11.683 46.201,11.833 45.990,11.833 45.863 C 11.833 45.737,12.058 45.424,12.333 45.167 C 12.608 44.910,12.833 44.651,12.833 44.592 C 12.833 44.377,13.659 43.667,13.909 43.667 C 14.051 43.667,14.167 43.592,14.167 43.500 C 14.167 43.408,14.279 43.333,14.417 43.333 C 14.554 43.333,14.667 43.258,14.667 43.167 C 14.667 43.075,14.817 43.000,15.000 43.000 C 15.183 43.000,15.333 42.925,15.333 42.833 C 15.333 42.742,15.483 42.667,15.667 42.667 C 15.850 42.667,16.000 42.592,16.000 42.500 C 16.000 42.408,16.150 42.333,16.333 42.333 C 16.517 42.333,16.667 42.258,16.667 42.167 C 16.667 42.075,16.892 42.000,17.167 42.000 C 17.442 42.000,17.667 41.925,17.667 41.833 C 17.667 41.742,17.892 41.667,18.167 41.667 C 18.442 41.667,18.667 41.592,18.667 41.500 C 18.667 41.397,19.528 41.333,20.917 41.333 C 22.306 41.333,23.167 41.397,23.167 41.500 C 23.167 41.592,23.467 41.667,23.833 41.667 C 24.200 41.667,24.500 41.742,24.500 41.833 C 24.500 41.925,24.688 42.000,24.917 42.000 C 25.146 42.000,25.333 42.075,25.333 42.167 C 25.333 42.258,25.483 42.333,25.667 42.333 C 25.850 42.333,26.000 42.408,26.000 42.500 C 26.000 42.592,26.114 42.667,26.254 42.667 C 26.535 42.667,28.333 44.393,28.333 44.663 C 28.333 44.757,28.408 44.833,28.500 44.833 C 28.592 44.833,28.667 44.983,28.667 45.167 C 28.667 45.350,28.742 45.500,28.833 45.500 C 28.925 45.500,29.000 45.650,29.000 45.833 C 29.000 46.017,29.075 46.167,29.167 46.167 C 29.258 46.167,29.333 46.392,29.333 46.667 C 29.333 46.942,29.408 47.167,29.500 47.167 C 29.592 47.167,29.667 47.467,29.667 47.833 C 29.667 48.200,29.742 48.500,29.833 48.500 C 29.943 48.500,30.001 53.988,30.003 64.625 C 30.004 73.494,30.065 80.845,30.139 80.961 C 30.243 81.125,31.215 81.162,34.428 81.128 L 38.583 81.083 38.626 65.259 C 38.654 54.822,38.611 49.378,38.501 49.268 C 38.409 49.175,38.333 48.365,38.333 47.467 C 38.333 46.489,38.266 45.833,38.167 45.833 C 38.075 45.833,38.000 45.463,38.000 45.010 C 38.000 44.557,37.925 44.140,37.833 44.083 C 37.742 44.027,37.667 43.685,37.667 43.323 C 37.667 42.962,37.592 42.667,37.500 42.667 C 37.408 42.667,37.333 42.484,37.333 42.260 C 37.333 42.036,37.258 41.807,37.167 41.750 C 37.075 41.693,37.000 41.501,37.000 41.323 C 37.000 41.146,36.943 41.000,36.874 41.000 C 36.805 41.000,36.648 40.775,36.527 40.500 C 36.405 40.225,36.199 40.000,36.069 40.000 C 35.940 40.000,35.833 39.880,35.833 39.734 C 35.833 39.587,35.608 39.257,35.333 39.000 C 35.058 38.743,34.833 38.486,34.833 38.429 C 34.833 38.228,33.340 36.833,33.125 36.833 C 33.005 36.833,32.799 36.683,32.667 36.500 C 32.535 36.317,32.293 36.167,32.130 36.167 C 31.967 36.167,31.833 36.092,31.833 36.000 C 31.833 35.908,31.688 35.833,31.510 35.833 C 31.332 35.833,31.140 35.758,31.083 35.667 C 31.027 35.575,30.835 35.500,30.657 35.500 C 30.479 35.500,30.333 35.425,30.333 35.333 C 30.333 35.242,30.108 35.167,29.833 35.167 C 29.558 35.167,29.333 35.092,29.333 35.000 C 29.333 34.908,29.108 34.833,28.833 34.833 C 28.558 34.833,28.333 34.758,28.333 34.667 C 28.333 34.575,27.958 34.500,27.500 34.500 C 27.042 34.500,26.667 34.425,26.667 34.333 C 26.667 34.227,25.222 34.167,22.667 34.167 C 20.111 34.167,18.667 34.227,18.667 34.333 C 18.667 34.425,18.367 34.500,18.000 34.500 C 17.633 34.500,17.333 34.575,17.333 34.667 C 17.333 34.758,17.033 34.833,16.667 34.833 C 16.300 34.833,16.000 34.908,16.000 35.000 C 16.000 35.092,15.850 35.167,15.667 35.167 C 15.483 35.167,15.333 35.242,15.333 35.333 C 15.333 35.425,15.183 35.500,15.000 35.500 C 14.817 35.500,14.667 35.575,14.667 35.667 C 14.667 35.758,14.517 35.833,14.333 35.833 C 14.150 35.833,14.000 35.908,14.000 36.000 C 14.000 36.092,13.813 36.167,13.583 36.167 C 13.354 36.167,13.167 36.242,13.167 36.333 C 13.167 36.425,13.065 36.500,12.941 36.500 C 12.817 36.500,12.481 36.725,12.193 37.000 C 11.905 37.275,11.591 37.500,11.494 37.500 C 11.310 37.500,10.500 38.247,10.500 38.417 C 10.500 38.541,9.714 39.333,9.591 39.333 C 9.541 39.333,9.500 34.533,9.500 28.667 L 9.500 18.000 5.333 18.000 L 1.167 18.000 1.167 49.586 M98.167 22.667 L 98.167 27.333 102.417 27.333 L 106.667 27.333 106.667 22.667 L 106.667 18.000 102.417 18.000 L 98.167 18.000 98.167 22.667 M190.208 49.542 L 190.250 81.083 194.167 81.083 L 198.083 81.083 198.130 78.875 C 198.155 77.660,198.215 76.667,198.263 76.667 C 198.310 76.667,198.867 77.192,199.500 77.833 C 200.133 78.475,200.750 79.000,200.872 79.000 C 200.994 79.000,201.201 79.150,201.333 79.333 C 201.465 79.517,201.699 79.667,201.852 79.667 C 202.006 79.667,202.167 79.760,202.211 79.875 C 202.316 80.147,203.608 80.833,204.016 80.833 C 204.190 80.833,204.333 80.908,204.333 81.000 C 204.333 81.092,204.483 81.167,204.667 81.167 C 204.850 81.167,205.000 81.242,205.000 81.333 C 205.000 81.425,205.300 81.500,205.667 81.500 C 206.033 81.500,206.333 81.575,206.333 81.667 C 206.333 81.765,206.917 81.833,207.750 81.833 C 208.583 81.833,209.167 81.902,209.167 82.000 C 209.167 82.095,209.667 82.167,210.333 82.167 C 211.000 82.167,211.500 82.095,211.500 82.000 C 211.500 81.903,212.052 81.833,212.823 81.833 C 213.551 81.833,214.193 81.758,214.250 81.667 C 214.307 81.575,214.649 81.500,215.010 81.500 C 215.371 81.500,215.667 81.425,215.667 81.333 C 215.667 81.242,215.892 81.167,216.167 81.167 C 216.442 81.167,216.667 81.092,216.667 81.000 C 216.667 80.908,216.892 80.833,217.167 80.833 C 217.442 80.833,217.667 80.758,217.667 80.667 C 217.667 80.575,217.817 80.500,218.000 80.500 C 218.183 80.500,218.333 80.425,218.333 80.333 C 218.333 80.242,218.483 80.167,218.667 80.167 C 218.852 80.167,219.000 80.056,219.000 79.917 C 219.000 79.768,219.153 79.667,219.380 79.667 C 219.589 79.667,219.868 79.517,220.000 79.333 C 220.132 79.150,220.357 79.000,220.500 79.000 C 220.643 79.000,220.868 78.850,221.000 78.667 C 221.132 78.483,221.339 78.333,221.459 78.333 C 221.737 78.333,225.667 74.393,225.667 74.114 C 225.667 74.000,225.817 73.799,226.000 73.667 C 226.183 73.535,226.333 73.310,226.333 73.167 C 226.333 73.024,226.483 72.799,226.667 72.667 C 226.850 72.535,227.000 72.293,227.000 72.130 C 227.000 71.967,227.075 71.833,227.167 71.833 C 227.258 71.833,227.333 71.683,227.333 71.500 C 227.333 71.317,227.408 71.167,227.500 71.167 C 227.592 71.167,227.667 71.017,227.667 70.833 C 227.667 70.650,227.742 70.500,227.833 70.500 C 227.925 70.500,228.000 70.275,228.000 70.000 C 228.000 69.725,228.075 69.500,228.167 69.500 C 228.258 69.500,228.333 69.354,228.333 69.177 C 228.333 68.999,228.408 68.807,228.500 68.750 C 228.592 68.693,228.667 68.426,228.667 68.157 C 228.667 67.887,228.742 67.667,228.833 67.667 C 228.925 67.667,229.000 67.367,229.000 67.000 C 229.000 66.633,229.075 66.333,229.167 66.333 C 229.258 66.333,229.333 65.958,229.333 65.500 C 229.333 65.042,229.408 64.667,229.500 64.667 C 229.593 64.667,229.667 64.222,229.667 63.667 C 229.667 63.111,229.741 62.667,229.833 62.667 C 229.941 62.667,230.000 60.889,230.000 57.667 C 230.000 54.444,229.941 52.667,229.833 52.667 C 229.741 52.667,229.667 52.222,229.667 51.667 C 229.667 51.111,229.593 50.667,229.500 50.667 C 229.408 50.667,229.333 50.329,229.333 49.917 C 229.333 49.504,229.258 49.167,229.167 49.167 C 229.075 49.167,229.000 48.867,229.000 48.500 C 229.000 48.133,228.925 47.833,228.833 47.833 C 228.742 47.833,228.667 47.608,228.667 47.333 C 228.667 47.058,228.592 46.833,228.500 46.833 C 228.408 46.833,228.333 46.608,228.333 46.333 C 228.333 46.058,228.258 45.833,228.167 45.833 C 228.075 45.833,228.000 45.683,228.000 45.500 C 228.000 45.317,227.925 45.167,227.833 45.167 C 227.742 45.167,227.667 45.017,227.667 44.833 C 227.667 44.650,227.592 44.500,227.500 44.500 C 227.408 44.500,227.333 44.313,227.333 44.083 C 227.333 43.854,227.258 43.667,227.167 43.667 C 227.075 43.667,227.000 43.517,227.000 43.333 C 227.000 43.150,226.925 43.000,226.833 43.000 C 226.742 43.000,226.667 42.867,226.667 42.703 C 226.667 42.540,226.517 42.299,226.333 42.167 C 226.150 42.035,226.000 41.828,226.000 41.707 C 226.000 41.470,225.898 41.347,224.209 39.555 C 223.590 38.897,222.907 38.166,222.691 37.930 C 222.475 37.693,222.210 37.500,222.103 37.500 C 221.995 37.500,221.799 37.350,221.667 37.167 C 221.535 36.983,221.327 36.833,221.206 36.833 C 221.085 36.833,220.825 36.683,220.628 36.500 C 220.431 36.317,220.135 36.167,219.969 36.167 C 219.803 36.167,219.667 36.092,219.667 36.000 C 219.667 35.908,219.517 35.833,219.333 35.833 C 219.150 35.833,219.000 35.758,219.000 35.667 C 219.000 35.575,218.775 35.500,218.500 35.500 C 218.225 35.500,218.000 35.425,218.000 35.333 C 218.000 35.242,217.850 35.167,217.667 35.167 C 217.483 35.167,217.333 35.092,217.333 35.000 C 217.333 34.908,217.033 34.833,216.667 34.833 C 216.300 34.833,216.000 34.758,216.000 34.667 C 216.000 34.575,215.700 34.500,215.333 34.500 C 214.967 34.500,214.667 34.425,214.667 34.333 C 214.667 34.227,213.278 34.167,210.833 34.167 C 208.389 34.167,207.000 34.227,207.000 34.333 C 207.000 34.425,206.700 34.500,206.333 34.500 C 205.967 34.500,205.667 34.575,205.667 34.667 C 205.667 34.758,205.442 34.833,205.167 34.833 C 204.892 34.833,204.667 34.908,204.667 35.000 C 204.667 35.092,204.442 35.167,204.167 35.167 C 203.892 35.167,203.667 35.242,203.667 35.333 C 203.667 35.425,203.551 35.500,203.410 35.500 C 203.268 35.500,202.992 35.650,202.795 35.833 C 202.598 36.017,202.301 36.167,202.135 36.167 C 201.969 36.167,201.833 36.242,201.833 36.333 C 201.833 36.425,201.731 36.500,201.606 36.500 C 201.381 36.500,199.500 38.206,199.500 38.410 C 199.500 38.539,198.718 39.333,198.591 39.333 C 198.541 39.333,198.500 34.533,198.500 28.667 L 198.500 18.000 194.333 18.000 L 190.166 18.000 190.208 49.542 M64.167 34.333 C 64.167 34.425,63.754 34.500,63.250 34.500 C 62.746 34.500,62.333 34.575,62.333 34.667 C 62.333 34.758,62.108 34.833,61.833 34.833 C 61.558 34.833,61.333 34.908,61.333 35.000 C 61.333 35.092,61.108 35.167,60.833 35.167 C 60.558 35.167,60.333 35.242,60.333 35.333 C 60.333 35.425,60.108 35.500,59.833 35.500 C 59.558 35.500,59.333 35.575,59.333 35.667 C 59.333 35.758,59.183 35.833,59.000 35.833 C 58.817 35.833,58.667 35.908,58.667 36.000 C 58.667 36.092,58.517 36.167,58.333 36.167 C 58.150 36.167,58.000 36.242,58.000 36.333 C 58.000 36.425,57.864 36.500,57.698 36.500 C 57.532 36.500,57.235 36.650,57.038 36.833 C 56.842 37.017,56.619 37.167,56.543 37.167 C 56.357 37.167,55.397 38.001,53.907 39.458 C 53.228 40.123,52.609 40.667,52.531 40.667 C 52.453 40.667,52.283 40.872,52.153 41.122 C 52.023 41.373,51.710 41.796,51.458 42.064 C 51.206 42.331,51.000 42.651,51.000 42.775 C 51.000 42.899,50.939 43.000,50.864 43.000 C 50.694 43.000,50.000 44.284,50.000 44.599 C 50.000 44.728,49.925 44.833,49.833 44.833 C 49.742 44.833,49.667 44.983,49.667 45.167 C 49.667 45.350,49.592 45.500,49.500 45.500 C 49.408 45.500,49.333 45.650,49.333 45.833 C 49.333 46.017,49.258 46.167,49.167 46.167 C 49.075 46.167,49.000 46.392,49.000 46.667 C 49.000 46.942,48.925 47.167,48.833 47.167 C 48.742 47.167,48.667 47.392,48.667 47.667 C 48.667 47.942,48.592 48.167,48.500 48.167 C 48.408 48.167,48.333 48.392,48.333 48.667 C 48.333 48.942,48.258 49.167,48.167 49.167 C 48.075 49.167,48.000 49.504,48.000 49.917 C 48.000 50.329,47.925 50.667,47.833 50.667 C 47.741 50.667,47.667 51.111,47.667 51.667 C 47.667 52.222,47.593 52.667,47.500 52.667 C 47.398 52.667,47.333 53.466,47.333 54.732 C 47.333 56.414,47.287 56.815,47.083 56.894 C 46.890 56.968,46.833 57.293,46.833 58.333 C 46.833 59.374,46.890 59.699,47.083 59.773 C 47.287 59.851,47.333 60.252,47.333 61.934 C 47.333 63.200,47.398 64.000,47.500 64.000 C 47.592 64.000,47.667 64.375,47.667 64.833 C 47.667 65.292,47.742 65.667,47.833 65.667 C 47.925 65.667,48.000 65.967,48.000 66.333 C 48.000 66.700,48.075 67.000,48.167 67.000 C 48.258 67.000,48.333 67.300,48.333 67.667 C 48.333 68.033,48.408 68.333,48.500 68.333 C 48.592 68.333,48.667 68.596,48.667 68.917 C 48.667 69.237,48.742 69.500,48.833 69.500 C 48.925 69.500,49.000 69.650,49.000 69.833 C 49.000 70.017,49.075 70.167,49.167 70.167 C 49.258 70.167,49.333 70.317,49.333 70.500 C 49.333 70.683,49.408 70.833,49.500 70.833 C 49.592 70.833,49.667 70.983,49.667 71.167 C 49.667 71.350,49.742 71.500,49.833 71.500 C 49.925 71.500,50.000 71.650,50.000 71.833 C 50.000 72.017,50.075 72.167,50.167 72.167 C 50.258 72.167,50.333 72.300,50.333 72.463 C 50.333 72.626,50.483 72.868,50.667 73.000 C 50.850 73.132,51.000 73.335,51.000 73.452 C 51.000 73.647,51.283 74.054,51.792 74.590 C 51.906 74.711,52.000 74.858,52.000 74.917 C 52.000 75.102,54.325 77.333,54.518 77.333 C 54.618 77.333,54.910 77.558,55.167 77.833 C 55.424 78.108,55.737 78.333,55.863 78.333 C 55.990 78.333,56.201 78.483,56.333 78.667 C 56.465 78.850,56.707 79.000,56.870 79.000 C 57.033 79.000,57.167 79.075,57.167 79.167 C 57.167 79.258,57.317 79.333,57.500 79.333 C 57.683 79.333,57.833 79.408,57.833 79.500 C 57.833 79.592,58.021 79.667,58.250 79.667 C 58.509 79.667,58.667 79.761,58.667 79.917 C 58.667 80.056,58.815 80.167,59.000 80.167 C 59.183 80.167,59.333 80.242,59.333 80.333 C 59.333 80.425,59.479 80.500,59.657 80.500 C 59.835 80.500,60.027 80.575,60.083 80.667 C 60.140 80.758,60.365 80.833,60.583 80.833 C 60.802 80.833,61.027 80.908,61.083 81.000 C 61.140 81.092,61.444 81.167,61.760 81.167 C 62.075 81.167,62.333 81.242,62.333 81.333 C 62.333 81.425,62.746 81.500,63.250 81.500 C 63.754 81.500,64.167 81.575,64.167 81.667 C 64.167 81.768,64.889 81.833,66.000 81.833 C 67.111 81.833,67.833 81.899,67.833 82.000 C 67.833 82.095,68.330 82.167,68.990 82.167 C 69.626 82.167,70.193 82.092,70.250 82.000 C 70.309 81.905,71.141 81.833,72.177 81.833 C 73.281 81.833,74.000 81.768,74.000 81.667 C 74.000 81.575,74.296 81.500,74.657 81.500 C 75.018 81.500,75.360 81.425,75.417 81.333 C 75.473 81.242,75.773 81.167,76.083 81.167 C 76.393 81.167,76.693 81.092,76.750 81.000 C 76.807 80.908,77.032 80.833,77.250 80.833 C 77.468 80.833,77.693 80.758,77.750 80.667 C 77.807 80.575,77.999 80.500,78.177 80.500 C 78.354 80.500,78.500 80.425,78.500 80.333 C 78.500 80.242,78.645 80.167,78.821 80.167 C 78.998 80.167,79.255 80.054,79.393 79.917 C 79.530 79.779,79.761 79.667,79.905 79.667 C 80.049 79.667,80.167 79.592,80.167 79.500 C 80.167 79.408,80.279 79.333,80.417 79.333 C 80.554 79.333,80.667 79.258,80.667 79.167 C 80.667 79.075,80.800 79.000,80.963 79.000 C 81.126 79.000,81.368 78.850,81.500 78.667 C 81.632 78.483,81.842 78.333,81.967 78.333 C 82.091 78.333,82.481 78.033,82.833 77.667 C 83.186 77.300,83.558 77.000,83.661 77.000 C 83.904 77.000,84.667 76.238,84.667 75.995 C 84.667 75.891,84.967 75.519,85.333 75.167 C 85.700 74.814,86.000 74.370,86.000 74.180 C 86.000 73.989,86.080 73.833,86.179 73.833 C 86.444 73.833,86.833 73.395,86.833 73.095 C 86.833 72.951,86.908 72.833,87.000 72.833 C 87.092 72.833,87.167 72.700,87.167 72.537 C 87.167 72.374,87.317 72.132,87.500 72.000 C 87.696 71.859,87.833 71.569,87.833 71.297 C 87.833 71.042,87.908 70.833,88.000 70.833 C 88.092 70.833,88.167 70.683,88.167 70.500 C 88.167 70.317,88.242 70.167,88.333 70.167 C 88.425 70.167,88.500 70.021,88.500 69.843 C 88.500 69.665,88.575 69.473,88.667 69.417 C 88.758 69.360,88.833 69.093,88.833 68.823 C 88.833 68.554,88.908 68.333,89.000 68.333 C 89.092 68.333,89.167 67.958,89.167 67.500 L 89.167 66.667 88.500 66.667 C 88.133 66.667,87.833 66.592,87.833 66.500 C 87.833 66.402,87.250 66.333,86.417 66.333 C 85.583 66.333,85.000 66.265,85.000 66.167 C 85.000 66.071,84.500 66.000,83.833 66.000 C 83.167 66.000,82.667 65.929,82.667 65.833 C 82.667 65.741,82.222 65.667,81.667 65.667 C 80.778 65.667,80.667 65.704,80.667 66.000 C 80.667 66.183,80.597 66.333,80.512 66.333 C 80.334 66.333,79.833 67.275,79.833 67.609 C 79.833 67.732,79.758 67.833,79.667 67.833 C 79.575 67.833,79.500 67.983,79.500 68.167 C 79.500 68.350,79.425 68.500,79.333 68.500 C 79.242 68.500,79.167 68.650,79.167 68.833 C 79.167 69.017,79.092 69.167,79.000 69.167 C 78.908 69.167,78.833 69.300,78.833 69.463 C 78.833 69.626,78.683 69.868,78.500 70.000 C 78.317 70.132,78.167 70.338,78.167 70.457 C 78.167 70.738,76.072 72.833,75.790 72.833 C 75.671 72.833,75.465 72.983,75.333 73.167 C 75.201 73.350,74.964 73.500,74.806 73.500 C 74.649 73.500,74.477 73.569,74.425 73.654 C 74.372 73.738,74.105 73.857,73.831 73.917 C 73.557 73.977,73.333 74.096,73.333 74.180 C 73.333 74.264,73.183 74.333,73.000 74.333 C 72.817 74.333,72.667 74.408,72.667 74.500 C 72.667 74.592,72.292 74.667,71.833 74.667 C 71.375 74.667,71.000 74.742,71.000 74.833 C 71.000 74.936,70.194 75.000,68.917 75.000 C 67.639 75.000,66.833 74.936,66.833 74.833 C 66.833 74.742,66.533 74.667,66.167 74.667 C 65.800 74.667,65.500 74.592,65.500 74.500 C 65.500 74.408,65.275 74.333,65.000 74.333 C 64.725 74.333,64.500 74.270,64.500 74.192 C 64.500 74.114,64.162 73.911,63.750 73.741 C 63.337 73.571,63.000 73.372,63.000 73.299 C 63.000 73.226,62.867 73.167,62.703 73.167 C 62.540 73.167,62.299 73.017,62.167 72.833 C 62.035 72.650,61.829 72.500,61.711 72.500 C 61.473 72.500,58.667 69.758,58.667 69.526 C 58.667 69.446,58.479 69.239,58.250 69.067 C 58.021 68.895,57.833 68.626,57.833 68.470 C 57.833 68.314,57.758 68.140,57.667 68.083 C 57.575 68.027,57.500 67.835,57.500 67.657 C 57.500 67.479,57.425 67.333,57.333 67.333 C 57.242 67.333,57.167 67.108,57.167 66.833 C 57.167 66.558,57.092 66.333,57.000 66.333 C 56.908 66.333,56.833 66.183,56.833 66.000 C 56.833 65.817,56.758 65.667,56.667 65.667 C 56.575 65.667,56.500 65.367,56.500 65.000 C 56.500 64.633,56.425 64.333,56.333 64.333 C 56.242 64.333,56.167 63.958,56.167 63.500 C 56.167 63.042,56.092 62.667,56.000 62.667 C 55.904 62.667,55.833 62.139,55.833 61.417 L 55.833 60.167 72.667 60.167 L 89.500 60.167 89.500 57.083 C 89.500 55.139,89.438 54.000,89.333 54.000 C 89.236 54.000,89.167 53.444,89.167 52.667 C 89.167 51.889,89.097 51.333,89.000 51.333 C 88.908 51.333,88.833 50.963,88.833 50.510 C 88.833 50.057,88.758 49.640,88.667 49.583 C 88.575 49.527,88.500 49.260,88.500 48.990 C 88.500 48.721,88.425 48.500,88.333 48.500 C 88.242 48.500,88.167 48.200,88.167 47.833 C 88.167 47.467,88.092 47.167,88.000 47.167 C 87.908 47.167,87.833 47.017,87.833 46.833 C 87.833 46.650,87.758 46.500,87.667 46.500 C 87.575 46.500,87.500 46.275,87.500 46.000 C 87.500 45.725,87.425 45.500,87.333 45.500 C 87.242 45.500,87.167 45.350,87.167 45.167 C 87.167 44.983,87.092 44.833,87.000 44.833 C 86.908 44.833,86.833 44.683,86.833 44.500 C 86.833 44.317,86.758 44.167,86.667 44.167 C 86.575 44.167,86.500 44.058,86.500 43.924 C 86.500 43.791,86.313 43.494,86.083 43.265 C 85.854 43.036,85.667 42.749,85.667 42.628 C 85.667 42.506,85.517 42.299,85.333 42.167 C 85.150 42.035,85.000 41.833,85.000 41.719 C 85.000 41.476,81.450 37.833,81.213 37.833 C 81.124 37.833,80.916 37.683,80.750 37.500 C 80.584 37.317,80.327 37.167,80.178 37.167 C 80.029 37.167,79.799 37.017,79.667 36.833 C 79.535 36.650,79.293 36.500,79.130 36.500 C 78.967 36.500,78.833 36.425,78.833 36.333 C 78.833 36.242,78.683 36.167,78.500 36.167 C 78.317 36.167,78.167 36.092,78.167 36.000 C 78.167 35.908,78.017 35.833,77.833 35.833 C 77.650 35.833,77.500 35.758,77.500 35.667 C 77.500 35.575,77.350 35.500,77.167 35.500 C 76.983 35.500,76.833 35.425,76.833 35.333 C 76.833 35.242,76.608 35.167,76.333 35.167 C 76.058 35.167,75.833 35.092,75.833 35.000 C 75.833 34.908,75.496 34.833,75.083 34.833 C 74.671 34.833,74.333 34.758,74.333 34.667 C 74.333 34.575,74.033 34.500,73.667 34.500 C 73.300 34.500,73.000 34.425,73.000 34.333 C 73.000 34.226,71.417 34.167,68.583 34.167 C 65.750 34.167,64.167 34.226,64.167 34.333 M134.500 34.333 C 134.500 34.425,134.200 34.500,133.833 34.500 C 133.467 34.500,133.167 34.575,133.167 34.667 C 133.167 34.758,132.942 34.833,132.667 34.833 C 132.392 34.833,132.167 34.908,132.167 35.000 C 132.167 35.092,132.017 35.167,131.833 35.167 C 131.650 35.167,131.500 35.242,131.500 35.333 C 131.500 35.425,131.350 35.500,131.167 35.500 C 130.983 35.500,130.833 35.575,130.833 35.667 C 130.833 35.758,130.728 35.833,130.599 35.833 C 130.284 35.833,129.000 36.527,129.000 36.698 C 129.000 36.772,128.899 36.833,128.777 36.833 C 128.553 36.833,127.000 38.207,127.000 38.405 C 127.000 38.530,125.546 40.000,125.421 40.000 C 125.373 40.000,125.333 38.912,125.333 37.583 L 125.333 35.167 121.500 35.167 L 117.667 35.167 117.667 58.170 L 117.667 81.172 121.792 81.128 L 125.917 81.083 125.959 67.042 C 125.987 57.874,126.059 53.000,126.168 53.000 C 126.262 53.000,126.333 52.499,126.333 51.843 C 126.333 51.207,126.408 50.640,126.500 50.583 C 126.592 50.527,126.667 50.185,126.667 49.823 C 126.667 49.462,126.742 49.167,126.833 49.167 C 126.925 49.167,127.000 48.867,127.000 48.500 C 127.000 48.133,127.075 47.833,127.167 47.833 C 127.258 47.833,127.333 47.683,127.333 47.500 C 127.333 47.317,127.408 47.167,127.500 47.167 C 127.592 47.167,127.667 47.017,127.667 46.833 C 127.667 46.650,127.742 46.500,127.833 46.500 C 127.925 46.500,128.000 46.387,128.000 46.248 C 128.000 46.110,128.225 45.762,128.500 45.474 C 128.775 45.186,129.000 44.846,129.000 44.718 C 129.000 44.404,129.755 43.667,130.076 43.667 C 130.217 43.667,130.333 43.592,130.333 43.500 C 130.333 43.408,130.446 43.333,130.583 43.333 C 130.721 43.333,130.833 43.258,130.833 43.167 C 130.833 43.075,130.932 43.000,131.052 43.000 C 131.172 43.000,131.431 42.850,131.628 42.667 C 131.825 42.483,132.102 42.333,132.243 42.333 C 132.384 42.333,132.500 42.258,132.500 42.167 C 132.500 42.075,132.725 42.000,133.000 42.000 C 133.275 42.000,133.500 41.925,133.500 41.833 C 133.500 41.742,133.800 41.667,134.167 41.667 C 134.533 41.667,134.833 41.592,134.833 41.500 C 134.833 41.398,135.639 41.333,136.917 41.333 C 138.194 41.333,139.000 41.398,139.000 41.500 C 139.000 41.592,139.225 41.667,139.500 41.667 C 139.775 41.667,140.000 41.742,140.000 41.833 C 140.000 41.925,140.150 42.000,140.333 42.000 C 140.517 42.000,140.667 42.075,140.667 42.167 C 140.667 42.258,140.817 42.333,141.000 42.333 C 141.183 42.333,141.333 42.408,141.333 42.500 C 141.333 42.592,141.411 42.667,141.506 42.667 C 141.774 42.667,142.833 43.792,142.833 44.078 C 142.833 44.218,142.908 44.333,143.000 44.333 C 143.092 44.333,143.167 44.479,143.167 44.657 C 143.167 44.835,143.242 45.027,143.333 45.083 C 143.425 45.140,143.500 45.332,143.500 45.510 C 143.500 45.688,143.575 45.833,143.667 45.833 C 143.758 45.833,143.833 46.058,143.833 46.333 C 143.833 46.608,143.908 46.833,144.000 46.833 C 144.093 46.833,144.167 47.278,144.167 47.833 C 144.167 48.389,144.241 48.833,144.333 48.833 C 144.443 48.833,144.500 54.333,144.500 65.000 L 144.500 81.167 148.583 81.167 L 152.667 81.167 152.667 66.821 C 152.667 54.292,152.698 52.445,152.917 52.226 C 153.087 52.056,153.167 51.635,153.167 50.905 C 153.167 50.302,153.240 49.833,153.333 49.833 C 153.425 49.833,153.500 49.533,153.500 49.167 C 153.500 48.800,153.575 48.500,153.667 48.500 C 153.758 48.500,153.833 48.275,153.833 48.000 C 153.833 47.725,153.908 47.500,154.000 47.500 C 154.092 47.500,154.167 47.350,154.167 47.167 C 154.167 46.983,154.242 46.833,154.333 46.833 C 154.425 46.833,154.500 46.683,154.500 46.500 C 154.500 46.317,154.562 46.167,154.639 46.167 C 154.715 46.167,154.883 45.960,155.012 45.708 C 155.142 45.456,155.379 45.129,155.541 44.980 C 155.702 44.832,155.833 44.661,155.833 44.600 C 155.833 44.396,156.986 43.333,157.208 43.333 C 157.328 43.333,157.535 43.183,157.667 43.000 C 157.799 42.817,158.036 42.667,158.194 42.667 C 158.351 42.667,158.527 42.592,158.583 42.500 C 158.640 42.408,158.832 42.333,159.010 42.333 C 159.188 42.333,159.333 42.258,159.333 42.167 C 159.333 42.075,159.558 42.000,159.833 42.000 C 160.108 42.000,160.333 41.925,160.333 41.833 C 160.333 41.742,160.558 41.667,160.833 41.667 C 161.108 41.667,161.333 41.592,161.333 41.500 C 161.333 41.398,162.139 41.333,163.417 41.333 C 164.694 41.333,165.500 41.398,165.500 41.500 C 165.500 41.592,165.725 41.667,166.000 41.667 C 166.275 41.667,166.500 41.742,166.500 41.833 C 166.500 41.925,166.708 42.000,166.963 42.000 C 167.235 42.000,167.526 42.138,167.667 42.333 C 167.799 42.517,168.010 42.667,168.137 42.667 C 168.263 42.667,168.576 42.892,168.833 43.167 C 169.090 43.442,169.351 43.667,169.412 43.667 C 169.618 43.667,170.000 44.140,170.000 44.395 C 170.000 44.534,170.075 44.693,170.167 44.750 C 170.258 44.807,170.333 44.999,170.333 45.177 C 170.333 45.354,170.408 45.500,170.500 45.500 C 170.592 45.500,170.667 45.650,170.667 45.833 C 170.667 46.017,170.742 46.167,170.833 46.167 C 170.925 46.167,171.000 46.542,171.000 47.000 C 171.000 47.458,171.075 47.833,171.167 47.833 C 171.277 47.833,171.333 53.500,171.333 64.500 L 171.333 81.167 175.417 81.167 L 179.500 81.167 179.500 63.000 C 179.500 51.000,179.443 44.833,179.333 44.833 C 179.242 44.833,179.167 44.496,179.167 44.083 C 179.167 43.671,179.092 43.333,179.000 43.333 C 178.908 43.333,178.833 43.033,178.833 42.667 C 178.833 42.300,178.758 42.000,178.667 42.000 C 178.575 42.000,178.500 41.850,178.500 41.667 C 178.500 41.483,178.425 41.333,178.333 41.333 C 178.242 41.333,178.167 41.125,178.167 40.870 C 178.167 40.598,178.029 40.308,177.833 40.167 C 177.650 40.035,177.500 39.810,177.500 39.667 C 177.500 39.524,177.350 39.299,177.167 39.167 C 176.983 39.035,176.832 38.812,176.830 38.672 C 176.826 38.350,174.964 36.500,174.645 36.500 C 174.514 36.500,174.299 36.350,174.167 36.167 C 174.035 35.983,173.793 35.833,173.630 35.833 C 173.467 35.833,173.333 35.758,173.333 35.667 C 173.333 35.575,173.183 35.500,173.000 35.500 C 172.817 35.500,172.667 35.425,172.667 35.333 C 172.667 35.242,172.517 35.167,172.333 35.167 C 172.150 35.167,172.000 35.092,172.000 35.000 C 172.000 34.908,171.775 34.833,171.500 34.833 C 171.225 34.833,171.000 34.758,171.000 34.667 C 171.000 34.575,170.587 34.500,170.083 34.500 C 169.579 34.500,169.167 34.425,169.167 34.333 C 169.167 34.227,167.806 34.167,165.417 34.167 C 163.028 34.167,161.667 34.227,161.667 34.333 C 161.667 34.425,161.367 34.500,161.000 34.500 C 160.633 34.500,160.333 34.575,160.333 34.667 C 160.333 34.758,160.108 34.833,159.833 34.833 C 159.558 34.833,159.333 34.908,159.333 35.000 C 159.333 35.092,159.108 35.167,158.833 35.167 C 158.558 35.167,158.333 35.242,158.333 35.333 C 158.333 35.425,158.228 35.500,158.099 35.500 C 157.784 35.500,156.500 36.194,156.500 36.364 C 156.500 36.439,156.380 36.500,156.234 36.500 C 156.087 36.500,155.768 36.706,155.525 36.958 C 155.282 37.210,154.877 37.523,154.625 37.653 C 154.373 37.783,154.167 37.942,154.167 38.006 C 154.167 38.070,153.773 38.542,153.292 39.057 C 152.810 39.571,152.212 40.225,151.963 40.512 C 151.497 41.046,151.000 40.936,151.000 40.299 C 151.000 40.175,150.850 39.965,150.667 39.833 C 150.483 39.701,150.333 39.476,150.333 39.333 C 150.333 39.190,150.183 38.965,150.000 38.833 C 149.817 38.701,149.667 38.529,149.667 38.450 C 149.667 38.191,147.466 36.167,147.184 36.167 C 147.032 36.167,146.799 36.017,146.667 35.833 C 146.535 35.650,146.293 35.500,146.130 35.500 C 145.967 35.500,145.833 35.425,145.833 35.333 C 145.833 35.242,145.608 35.167,145.333 35.167 C 145.058 35.167,144.833 35.092,144.833 35.000 C 144.833 34.908,144.683 34.833,144.500 34.833 C 144.317 34.833,144.167 34.758,144.167 34.667 C 144.167 34.575,143.792 34.500,143.333 34.500 C 142.875 34.500,142.500 34.425,142.500 34.333 C 142.500 34.227,141.056 34.167,138.500 34.167 C 135.944 34.167,134.500 34.227,134.500 34.333 M253.167 34.333 C 253.167 34.427,252.694 34.500,252.083 34.500 C 251.472 34.500,251.000 34.573,251.000 34.667 C 251.000 34.758,250.700 34.833,250.333 34.833 C 249.967 34.833,249.667 34.908,249.667 35.000 C 249.667 35.092,249.442 35.167,249.167 35.167 C 248.892 35.167,248.667 35.242,248.667 35.333 C 248.667 35.425,248.442 35.500,248.167 35.500 C 247.892 35.500,247.667 35.575,247.667 35.667 C 247.667 35.758,247.446 35.833,247.177 35.833 C 246.907 35.833,246.640 35.908,246.583 36.000 C 246.527 36.092,246.335 36.167,246.157 36.167 C 245.979 36.167,245.833 36.242,245.833 36.333 C 245.833 36.425,245.683 36.500,245.500 36.500 C 245.317 36.500,245.167 36.575,245.167 36.667 C 245.167 36.758,245.033 36.833,244.870 36.833 C 244.707 36.833,244.465 36.983,244.333 37.167 C 244.201 37.350,243.994 37.500,243.872 37.500 C 243.611 37.500,242.833 38.242,242.833 38.492 C 242.833 38.588,242.702 38.669,242.542 38.672 C 242.381 38.674,242.063 38.905,241.833 39.183 C 241.604 39.462,241.173 39.945,240.875 40.256 C 240.577 40.567,240.333 40.921,240.333 41.041 C 240.333 41.161,240.183 41.368,240.000 41.500 C 239.817 41.632,239.667 41.874,239.667 42.037 C 239.667 42.200,239.592 42.333,239.500 42.333 C 239.408 42.333,239.333 42.483,239.333 42.667 C 239.333 42.850,239.258 43.000,239.167 43.000 C 239.075 43.000,239.000 43.150,239.000 43.333 C 239.000 43.517,238.925 43.667,238.833 43.667 C 238.742 43.667,238.667 43.929,238.667 44.250 C 238.667 44.571,238.592 44.833,238.500 44.833 C 238.408 44.833,238.333 45.058,238.333 45.333 C 238.333 45.608,238.258 45.833,238.167 45.833 C 238.075 45.833,238.000 46.058,238.000 46.333 C 238.000 46.608,237.925 46.833,237.833 46.833 C 237.742 46.833,237.667 47.208,237.667 47.667 C 237.667 48.481,237.678 48.500,238.167 48.500 C 238.442 48.500,238.667 48.575,238.667 48.667 C 238.667 48.762,239.163 48.833,239.823 48.833 C 240.460 48.833,241.027 48.908,241.083 49.000 C 241.140 49.092,241.782 49.167,242.510 49.167 C 243.281 49.167,243.833 49.236,243.833 49.333 C 243.833 49.426,244.278 49.500,244.833 49.500 L 245.833 49.500 245.833 49.000 C 245.833 48.725,245.908 48.500,246.000 48.500 C 246.092 48.500,246.167 48.275,246.167 48.000 C 246.167 47.725,246.242 47.500,246.333 47.500 C 246.425 47.500,246.500 47.350,246.500 47.167 C 246.500 46.983,246.575 46.833,246.667 46.833 C 246.758 46.833,246.833 46.683,246.833 46.500 C 246.833 46.317,246.895 46.167,246.970 46.167 C 247.046 46.167,247.278 45.826,247.486 45.409 C 247.917 44.546,250.019 42.333,250.409 42.333 C 250.551 42.333,250.667 42.258,250.667 42.167 C 250.667 42.075,250.892 42.000,251.167 42.000 C 251.442 42.000,251.667 41.925,251.667 41.833 C 251.667 41.742,251.892 41.667,252.167 41.667 C 252.442 41.667,252.667 41.592,252.667 41.500 C 252.667 41.406,253.139 41.333,253.750 41.333 C 254.361 41.333,254.833 41.261,254.833 41.167 C 254.833 41.063,255.750 41.000,257.250 41.000 C 258.750 41.000,259.667 41.063,259.667 41.167 C 259.667 41.258,260.042 41.333,260.500 41.333 C 260.958 41.333,261.333 41.408,261.333 41.500 C 261.333 41.592,261.633 41.667,262.000 41.667 C 262.367 41.667,262.667 41.742,262.667 41.833 C 262.667 41.925,262.812 42.000,262.990 42.000 C 263.168 42.000,263.360 42.075,263.417 42.167 C 263.473 42.258,263.665 42.333,263.843 42.333 C 264.021 42.333,264.167 42.408,264.167 42.500 C 264.167 42.592,264.300 42.667,264.463 42.667 C 264.626 42.667,264.868 42.817,265.000 43.000 C 265.132 43.183,265.340 43.333,265.461 43.333 C 265.720 43.333,266.500 44.075,266.500 44.321 C 266.500 44.414,266.650 44.757,266.833 45.083 C 267.017 45.410,267.167 45.787,267.167 45.922 C 267.167 46.056,267.242 46.167,267.333 46.167 C 267.425 46.167,267.500 46.467,267.500 46.833 C 267.500 47.200,267.575 47.500,267.667 47.500 C 267.769 47.500,267.833 48.306,267.833 49.583 C 267.833 51.556,267.816 51.667,267.500 51.667 C 267.317 51.667,267.167 51.742,267.167 51.833 C 267.167 51.925,266.867 52.000,266.500 52.000 C 266.133 52.000,265.833 52.075,265.833 52.167 C 265.833 52.258,265.533 52.333,265.167 52.333 C 264.800 52.333,264.500 52.408,264.500 52.500 C 264.500 52.592,264.162 52.667,263.750 52.667 C 263.337 52.667,263.000 52.742,263.000 52.833 C 263.000 52.925,262.625 53.000,262.167 53.000 C 261.708 53.000,261.333 53.075,261.333 53.167 C 261.333 53.259,260.889 53.333,260.333 53.333 C 259.778 53.333,259.333 53.407,259.333 53.500 C 259.333 53.596,258.806 53.667,258.083 53.667 C 257.361 53.667,256.833 53.737,256.833 53.833 C 256.833 53.931,256.278 54.000,255.500 54.000 C 254.722 54.000,254.167 54.069,254.167 54.167 C 254.167 54.263,253.639 54.333,252.917 54.333 C 252.194 54.333,251.667 54.404,251.667 54.500 C 251.667 54.595,251.167 54.667,250.500 54.667 C 249.833 54.667,249.333 54.738,249.333 54.833 C 249.333 54.925,249.033 55.000,248.667 55.000 C 248.300 55.000,248.000 55.075,248.000 55.167 C 248.000 55.258,247.704 55.333,247.343 55.333 C 246.982 55.333,246.640 55.408,246.583 55.500 C 246.527 55.592,246.346 55.667,246.182 55.667 C 245.791 55.667,244.833 56.148,244.833 56.346 C 244.833 56.430,244.683 56.500,244.500 56.500 C 244.317 56.500,244.167 56.575,244.167 56.667 C 244.167 56.758,244.017 56.833,243.833 56.833 C 243.650 56.833,243.500 56.908,243.500 57.000 C 243.500 57.092,243.350 57.167,243.167 57.167 C 242.983 57.167,242.833 57.242,242.833 57.333 C 242.833 57.425,242.700 57.500,242.537 57.500 C 242.374 57.500,242.132 57.650,242.000 57.833 C 241.868 58.017,241.634 58.167,241.480 58.167 C 241.170 58.167,238.667 60.536,238.667 60.829 C 238.667 60.931,238.517 61.175,238.333 61.372 C 238.150 61.569,238.000 61.865,238.000 62.031 C 238.000 62.197,237.925 62.333,237.833 62.333 C 237.742 62.333,237.667 62.483,237.667 62.667 C 237.667 62.850,237.592 63.000,237.500 63.000 C 237.408 63.000,237.333 63.225,237.333 63.500 C 237.333 63.775,237.258 64.000,237.167 64.000 C 237.075 64.000,237.000 64.225,237.000 64.500 C 237.000 64.775,236.925 65.000,236.833 65.000 C 236.742 65.000,236.667 65.300,236.667 65.667 C 236.667 66.033,236.592 66.333,236.500 66.333 C 236.397 66.333,236.333 67.194,236.333 68.583 C 236.333 69.972,236.397 70.833,236.500 70.833 C 236.592 70.833,236.667 71.208,236.667 71.667 C 236.667 72.125,236.742 72.500,236.833 72.500 C 236.925 72.500,237.000 72.725,237.000 73.000 C 237.000 73.275,237.075 73.500,237.167 73.500 C 237.258 73.500,237.333 73.721,237.333 73.990 C 237.333 74.260,237.408 74.527,237.500 74.583 C 237.592 74.640,237.667 74.815,237.667 74.973 C 237.667 75.131,237.817 75.368,238.000 75.500 C 238.183 75.632,238.333 75.844,238.333 75.970 C 238.333 76.096,238.558 76.410,238.833 76.667 C 239.108 76.924,239.333 77.220,239.333 77.324 C 239.333 77.572,240.095 78.333,240.342 78.333 C 240.447 78.333,240.743 78.558,241.000 78.833 C 241.257 79.108,241.597 79.333,241.756 79.333 C 241.914 79.333,242.182 79.493,242.351 79.687 C 242.715 80.107,244.095 80.833,244.528 80.833 C 244.696 80.833,244.833 80.908,244.833 81.000 C 244.833 81.092,245.054 81.167,245.323 81.167 C 245.593 81.167,245.860 81.242,245.917 81.333 C 245.973 81.425,246.390 81.500,246.843 81.500 C 247.296 81.500,247.667 81.575,247.667 81.667 C 247.667 81.767,248.333 81.833,249.333 81.833 C 250.333 81.833,251.000 81.900,251.000 82.000 C 251.000 82.219,253.281 82.219,253.417 82.000 C 253.474 81.907,254.252 81.833,255.177 81.833 C 256.170 81.833,256.833 81.767,256.833 81.667 C 256.833 81.575,257.133 81.500,257.500 81.500 C 257.867 81.500,258.167 81.425,258.167 81.333 C 258.167 81.242,258.504 81.167,258.917 81.167 C 259.329 81.167,259.667 81.092,259.667 81.000 C 259.667 80.908,259.839 80.833,260.050 80.833 C 260.261 80.833,260.505 80.771,260.592 80.696 C 260.679 80.620,261.077 80.455,261.476 80.330 C 261.875 80.204,262.240 80.004,262.286 79.884 C 262.331 79.765,262.511 79.667,262.684 79.667 C 262.858 79.667,263.000 79.592,263.000 79.500 C 263.000 79.408,263.150 79.333,263.333 79.333 C 263.517 79.333,263.667 79.258,263.667 79.167 C 263.667 79.075,263.779 79.000,263.917 79.000 C 264.054 79.000,264.167 78.925,264.167 78.833 C 264.167 78.742,264.317 78.667,264.500 78.667 C 264.683 78.667,264.833 78.592,264.833 78.500 C 264.833 78.408,264.967 78.333,265.130 78.333 C 265.293 78.333,265.535 78.183,265.667 78.000 C 265.799 77.817,266.010 77.667,266.137 77.667 C 266.263 77.667,266.576 77.442,266.833 77.167 C 267.090 76.892,267.404 76.667,267.530 76.667 C 267.656 76.667,267.868 76.517,268.000 76.333 C 268.132 76.150,268.299 76.000,268.370 76.000 C 268.442 76.000,268.500 76.150,268.500 76.333 C 268.500 76.517,268.575 76.667,268.667 76.667 C 268.758 76.667,268.833 77.042,268.833 77.500 C 268.833 77.958,268.908 78.333,269.000 78.333 C 269.092 78.333,269.167 78.558,269.167 78.833 C 269.167 79.167,269.250 79.333,269.417 79.333 C 269.591 79.333,269.667 79.509,269.667 79.917 C 269.667 80.237,269.742 80.500,269.833 80.500 C 269.925 80.500,270.000 80.650,270.000 80.833 C 270.000 81.158,270.111 81.167,274.250 81.167 L 278.500 81.167 278.500 80.510 C 278.500 80.149,278.425 79.807,278.333 79.750 C 278.242 79.693,278.167 79.501,278.167 79.323 C 278.167 79.146,278.092 79.000,278.000 79.000 C 277.908 79.000,277.833 78.775,277.833 78.500 C 277.833 78.225,277.758 78.000,277.667 78.000 C 277.575 78.000,277.500 77.775,277.500 77.500 C 277.500 77.225,277.425 77.000,277.333 77.000 C 277.242 77.000,277.167 76.700,277.167 76.333 C 277.167 75.967,277.092 75.667,277.000 75.667 C 276.905 75.667,276.833 75.170,276.833 74.510 C 276.833 73.874,276.758 73.307,276.667 73.250 C 276.558 73.183,276.500 68.693,276.500 60.323 C 276.500 51.886,276.443 47.500,276.333 47.500 C 276.232 47.500,276.167 46.781,276.167 45.677 C 276.167 44.641,276.095 43.809,276.000 43.750 C 275.908 43.693,275.833 43.426,275.833 43.157 C 275.833 42.887,275.758 42.667,275.667 42.667 C 275.575 42.667,275.500 42.484,275.500 42.260 C 275.500 42.036,275.425 41.807,275.333 41.750 C 275.242 41.693,275.167 41.501,275.167 41.323 C 275.167 41.146,275.054 41.000,274.917 41.000 C 274.778 41.000,274.667 40.852,274.667 40.667 C 274.667 40.483,274.592 40.333,274.500 40.333 C 274.408 40.333,274.333 40.200,274.333 40.037 C 274.333 39.874,274.183 39.632,274.000 39.500 C 273.817 39.368,273.667 39.166,273.667 39.052 C 273.667 38.790,272.491 37.500,272.252 37.500 C 272.154 37.500,271.965 37.350,271.833 37.167 C 271.701 36.983,271.460 36.833,271.297 36.833 C 271.133 36.833,271.000 36.772,271.000 36.698 C 271.000 36.527,269.716 35.833,269.401 35.833 C 269.272 35.833,269.167 35.758,269.167 35.667 C 269.167 35.575,268.942 35.500,268.667 35.500 C 268.392 35.500,268.167 35.425,268.167 35.333 C 268.167 35.242,267.942 35.167,267.667 35.167 C 267.392 35.167,267.167 35.092,267.167 35.000 C 267.167 34.908,266.867 34.833,266.500 34.833 C 266.133 34.833,265.833 34.758,265.833 34.667 C 265.833 34.575,265.421 34.500,264.917 34.500 C 264.412 34.500,264.000 34.425,264.000 34.333 C 264.000 34.226,262.083 34.167,258.583 34.167 C 255.083 34.167,253.167 34.226,253.167 34.333 M98.167 58.167 L 98.167 81.167 102.417 81.167 L 106.667 81.167 106.667 58.167 L 106.667 35.167 102.417 35.167 L 98.167 35.167 98.167 58.167 M287.167 50.250 C 287.167 60.194,287.223 65.333,287.333 65.333 C 287.437 65.333,287.500 66.250,287.500 67.750 C 287.500 69.250,287.563 70.167,287.667 70.167 C 287.758 70.167,287.833 70.542,287.833 71.000 C 287.833 71.458,287.908 71.833,288.000 71.833 C 288.092 71.833,288.167 72.133,288.167 72.500 C 288.167 72.867,288.242 73.167,288.333 73.167 C 288.425 73.167,288.500 73.317,288.500 73.500 C 288.500 73.683,288.575 73.833,288.667 73.833 C 288.758 73.833,288.833 74.021,288.833 74.250 C 288.833 74.479,288.908 74.667,289.000 74.667 C 289.092 74.667,289.167 74.817,289.167 75.000 C 289.167 75.183,289.242 75.333,289.333 75.333 C 289.425 75.333,289.500 75.483,289.500 75.667 C 289.500 75.850,289.575 76.000,289.667 76.000 C 289.758 76.000,289.833 76.114,289.833 76.254 C 289.833 76.515,291.216 78.000,291.459 78.000 C 291.533 78.000,291.701 78.150,291.833 78.333 C 291.965 78.517,292.190 78.667,292.333 78.667 C 292.476 78.667,292.701 78.817,292.833 79.000 C 292.965 79.183,293.179 79.333,293.309 79.333 C 293.438 79.333,293.666 79.472,293.814 79.642 C 294.135 80.010,295.046 80.500,295.408 80.500 C 295.550 80.500,295.667 80.575,295.667 80.667 C 295.667 80.758,295.812 80.833,295.990 80.833 C 296.168 80.833,296.360 80.908,296.417 81.000 C 296.473 81.092,296.740 81.167,297.010 81.167 C 297.279 81.167,297.500 81.242,297.500 81.333 C 297.500 81.425,297.875 81.500,298.333 81.500 C 298.792 81.500,299.167 81.575,299.167 81.667 C 299.167 81.764,299.719 81.833,300.490 81.833 C 301.218 81.833,301.860 81.908,301.917 82.000 C 302.051 82.217,304.116 82.217,304.250 82.000 C 304.307 81.908,304.949 81.833,305.677 81.833 C 306.448 81.833,307.000 81.764,307.000 81.667 C 307.000 81.575,307.296 81.500,307.657 81.500 C 308.018 81.500,308.360 81.425,308.417 81.333 C 308.473 81.242,308.740 81.167,309.010 81.167 C 309.279 81.167,309.500 81.092,309.500 81.000 C 309.500 80.908,309.683 80.833,309.907 80.833 C 310.131 80.833,310.360 80.758,310.417 80.667 C 310.473 80.575,310.665 80.500,310.843 80.500 C 311.021 80.500,311.167 80.425,311.167 80.333 C 311.167 80.242,311.282 80.167,311.422 80.167 C 311.562 80.167,311.720 80.054,311.773 79.917 C 311.826 79.779,311.994 79.667,312.148 79.667 C 312.301 79.667,312.535 79.517,312.667 79.333 C 312.799 79.150,313.040 79.000,313.203 79.000 C 313.367 79.000,313.500 78.925,313.500 78.833 C 313.500 78.742,313.578 78.667,313.673 78.667 C 313.768 78.667,314.515 77.992,315.333 77.167 C 316.151 76.342,316.861 75.667,316.910 75.667 C 316.960 75.667,317.000 76.904,317.000 78.417 L 317.000 81.167 320.750 81.167 L 324.500 81.167 324.500 58.167 L 324.500 35.167 320.417 35.167 L 316.333 35.167 316.333 49.083 C 316.333 58.250,316.276 63.000,316.167 63.000 C 316.071 63.000,316.000 63.500,316.000 64.167 C 316.000 64.833,315.929 65.333,315.833 65.333 C 315.742 65.333,315.667 65.708,315.667 66.167 C 315.667 66.625,315.592 67.000,315.500 67.000 C 315.408 67.000,315.333 67.221,315.333 67.490 C 315.333 67.760,315.258 68.027,315.167 68.083 C 315.075 68.140,315.000 68.332,315.000 68.510 C 315.000 68.688,314.925 68.833,314.833 68.833 C 314.742 68.833,314.667 68.967,314.667 69.130 C 314.667 69.293,314.517 69.535,314.333 69.667 C 314.150 69.799,314.000 70.040,314.000 70.203 C 314.000 70.367,313.920 70.500,313.823 70.500 C 313.725 70.500,313.280 70.875,312.833 71.333 C 312.387 71.792,311.921 72.167,311.798 72.167 C 311.674 72.167,311.465 72.317,311.333 72.500 C 311.201 72.683,310.960 72.833,310.797 72.833 C 310.633 72.833,310.499 72.890,310.499 72.958 C 310.497 73.108,309.690 73.500,309.383 73.500 C 309.264 73.500,309.167 73.575,309.167 73.667 C 309.167 73.758,309.022 73.833,308.845 73.833 C 308.668 73.833,308.411 73.946,308.274 74.083 C 308.136 74.221,307.793 74.333,307.512 74.333 C 307.230 74.333,307.000 74.408,307.000 74.500 C 307.000 74.603,306.083 74.667,304.583 74.667 C 303.083 74.667,302.167 74.603,302.167 74.500 C 302.167 74.408,301.942 74.333,301.667 74.333 C 301.392 74.333,301.167 74.258,301.167 74.166 C 301.167 74.074,300.867 73.869,300.500 73.710 C 300.133 73.551,299.833 73.364,299.833 73.294 C 299.833 73.224,299.717 73.167,299.574 73.167 C 299.432 73.167,298.869 72.698,298.324 72.125 C 296.785 70.508,296.667 70.363,296.667 70.089 C 296.667 69.949,296.592 69.833,296.500 69.833 C 296.408 69.833,296.333 69.608,296.333 69.333 C 296.333 69.058,296.258 68.833,296.167 68.833 C 296.075 68.833,296.000 68.421,296.000 67.917 C 296.000 67.412,295.925 67.000,295.833 67.000 C 295.723 67.000,295.667 61.583,295.667 51.083 L 295.667 35.167 291.417 35.167 L 287.167 35.167 287.167 50.250 M71.000 41.167 C 71.000 41.258,71.300 41.333,71.667 41.333 C 72.033 41.333,72.333 41.408,72.333 41.500 C 72.333 41.592,72.558 41.667,72.833 41.667 C 73.108 41.667,73.333 41.742,73.333 41.833 C 73.333 41.925,73.483 42.000,73.667 42.000 C 73.850 42.000,74.000 42.075,74.000 42.167 C 74.000 42.258,74.150 42.333,74.333 42.333 C 74.517 42.333,74.667 42.408,74.667 42.500 C 74.667 42.592,74.763 42.667,74.880 42.667 C 74.997 42.667,75.201 42.817,75.333 43.000 C 75.465 43.183,75.672 43.333,75.792 43.333 C 76.010 43.333,77.167 44.394,77.167 44.594 C 77.167 44.652,77.373 44.898,77.625 45.141 C 77.877 45.384,78.190 45.790,78.320 46.042 C 78.450 46.294,78.619 46.500,78.695 46.500 C 78.771 46.500,78.833 46.650,78.833 46.833 C 78.833 47.017,78.908 47.167,79.000 47.167 C 79.092 47.167,79.167 47.317,79.167 47.500 C 79.167 47.683,79.242 47.833,79.333 47.833 C 79.425 47.833,79.500 48.058,79.500 48.333 C 79.500 48.608,79.575 48.833,79.667 48.833 C 79.758 48.833,79.833 49.058,79.833 49.333 C 79.833 49.608,79.908 49.833,80.000 49.833 C 80.092 49.833,80.167 50.165,80.167 50.571 C 80.167 51.005,80.270 51.413,80.417 51.560 C 80.566 51.709,80.667 52.116,80.667 52.571 L 80.667 53.333 68.417 53.333 L 56.167 53.333 56.167 52.500 C 56.167 52.042,56.242 51.667,56.333 51.667 C 56.425 51.667,56.500 51.329,56.500 50.917 C 56.500 50.504,56.575 50.167,56.667 50.167 C 56.758 50.167,56.833 49.942,56.833 49.667 C 56.833 49.392,56.908 49.167,57.000 49.167 C 57.092 49.167,57.167 48.942,57.167 48.667 C 57.167 48.392,57.242 48.167,57.333 48.167 C 57.425 48.167,57.500 48.033,57.500 47.870 C 57.500 47.707,57.650 47.465,57.833 47.333 C 58.017 47.201,58.167 46.989,58.167 46.862 C 58.167 46.735,58.354 46.484,58.583 46.304 C 58.813 46.123,59.000 45.908,59.000 45.824 C 59.000 45.519,61.076 43.333,61.367 43.333 C 61.491 43.333,61.701 43.183,61.833 43.000 C 61.965 42.817,62.207 42.667,62.370 42.667 C 62.533 42.667,62.667 42.592,62.667 42.500 C 62.667 42.408,62.817 42.333,63.000 42.333 C 63.183 42.333,63.333 42.258,63.333 42.167 C 63.333 42.075,63.479 42.000,63.657 42.000 C 63.835 42.000,64.027 41.925,64.083 41.833 C 64.140 41.742,64.365 41.667,64.583 41.667 C 64.802 41.667,65.027 41.592,65.083 41.500 C 65.140 41.408,65.482 41.333,65.843 41.333 C 66.204 41.333,66.500 41.258,66.500 41.167 C 66.500 41.064,67.361 41.000,68.750 41.000 C 70.139 41.000,71.000 41.064,71.000 41.167 M211.833 41.167 C 211.833 41.258,212.133 41.333,212.500 41.333 C 212.867 41.333,213.167 41.408,213.167 41.500 C 213.167 41.592,213.354 41.667,213.583 41.667 C 213.813 41.667,214.000 41.742,214.000 41.833 C 214.000 41.925,214.150 42.000,214.333 42.000 C 214.517 42.000,214.667 42.075,214.667 42.167 C 214.667 42.258,214.800 42.333,214.963 42.333 C 215.126 42.333,215.368 42.483,215.500 42.667 C 215.632 42.850,215.838 43.000,215.958 43.000 C 216.214 43.000,217.667 44.413,217.667 44.662 C 217.667 44.756,217.742 44.833,217.833 44.833 C 217.925 44.833,218.000 44.935,218.000 45.059 C 218.000 45.183,218.206 45.507,218.458 45.780 C 219.004 46.371,219.308 46.812,219.441 47.208 C 219.495 47.369,219.605 47.500,219.686 47.500 C 219.767 47.500,219.833 47.650,219.833 47.833 C 219.833 48.017,219.908 48.167,220.000 48.167 C 220.092 48.167,220.167 48.392,220.167 48.667 C 220.167 48.942,220.242 49.167,220.333 49.167 C 220.425 49.167,220.500 49.392,220.500 49.667 C 220.500 49.942,220.575 50.167,220.667 50.167 C 220.758 50.167,220.833 50.504,220.833 50.917 C 220.833 51.329,220.908 51.667,221.000 51.667 C 221.092 51.667,221.167 52.042,221.167 52.500 C 221.167 52.958,221.242 53.333,221.333 53.333 C 221.440 53.333,221.500 54.944,221.500 57.833 C 221.500 60.722,221.440 62.333,221.333 62.333 C 221.242 62.333,221.167 62.708,221.167 63.167 C 221.167 63.625,221.092 64.000,221.000 64.000 C 220.908 64.000,220.833 64.300,220.833 64.667 C 220.833 65.033,220.758 65.333,220.667 65.333 C 220.575 65.333,220.500 65.558,220.500 65.833 C 220.500 66.108,220.425 66.333,220.333 66.333 C 220.242 66.333,220.167 66.558,220.167 66.833 C 220.167 67.108,220.092 67.333,220.000 67.333 C 219.908 67.333,219.833 67.448,219.833 67.589 C 219.833 67.867,219.426 68.559,218.960 69.073 C 218.799 69.251,218.667 69.478,218.667 69.578 C 218.667 69.678,218.517 69.868,218.333 70.000 C 218.150 70.132,218.000 70.338,218.000 70.457 C 218.000 70.739,216.239 72.500,215.957 72.500 C 215.838 72.500,215.632 72.650,215.500 72.833 C 215.368 73.017,215.143 73.167,215.000 73.167 C 214.857 73.167,214.632 73.317,214.500 73.500 C 214.368 73.683,214.124 73.833,213.958 73.833 C 213.792 73.833,213.613 73.946,213.560 74.083 C 213.506 74.226,213.257 74.333,212.982 74.333 C 212.717 74.333,212.500 74.408,212.500 74.500 C 212.500 74.592,212.200 74.667,211.833 74.667 C 211.467 74.667,211.167 74.742,211.167 74.833 C 211.167 74.934,210.472 75.000,209.417 75.000 C 208.361 75.000,207.667 74.934,207.667 74.833 C 207.667 74.742,207.367 74.667,207.000 74.667 C 206.633 74.667,206.333 74.592,206.333 74.500 C 206.333 74.408,206.183 74.333,206.000 74.333 C 205.817 74.333,205.667 74.275,205.667 74.205 C 205.667 74.134,205.385 73.927,205.042 73.746 C 204.698 73.565,204.271 73.285,204.094 73.125 C 203.916 72.965,203.710 72.833,203.637 72.833 C 203.315 72.833,201.167 70.773,201.167 70.464 C 201.167 70.341,201.017 70.132,200.833 70.000 C 200.650 69.868,200.500 69.643,200.500 69.500 C 200.500 69.357,200.350 69.132,200.167 69.000 C 199.983 68.868,199.833 68.626,199.833 68.463 C 199.833 68.300,199.758 68.167,199.667 68.167 C 199.575 68.167,199.500 67.946,199.500 67.677 C 199.500 67.407,199.425 67.140,199.333 67.083 C 199.242 67.027,199.167 66.760,199.167 66.490 C 199.167 66.221,199.092 66.000,199.000 66.000 C 198.908 66.000,198.833 65.700,198.833 65.333 C 198.833 64.967,198.758 64.667,198.667 64.667 C 198.574 64.667,198.500 64.222,198.500 63.667 C 198.500 63.111,198.426 62.667,198.333 62.667 C 198.226 62.667,198.167 61.000,198.167 58.000 C 198.167 55.000,198.226 53.333,198.333 53.333 C 198.425 53.333,198.500 52.958,198.500 52.500 C 198.500 52.042,198.575 51.667,198.667 51.667 C 198.758 51.667,198.833 51.329,198.833 50.917 C 198.833 50.504,198.908 50.167,199.000 50.167 C 199.092 50.167,199.167 49.942,199.167 49.667 C 199.167 49.392,199.242 49.167,199.333 49.167 C 199.425 49.167,199.500 49.017,199.500 48.833 C 199.500 48.650,199.575 48.500,199.667 48.500 C 199.758 48.500,199.833 48.350,199.833 48.167 C 199.833 47.983,199.908 47.833,200.000 47.833 C 200.092 47.833,200.167 47.683,200.167 47.500 C 200.167 47.317,200.242 47.167,200.333 47.167 C 200.425 47.167,200.500 47.033,200.500 46.870 C 200.500 46.707,200.650 46.465,200.833 46.333 C 201.017 46.201,201.167 45.990,201.167 45.863 C 201.167 45.737,201.392 45.424,201.667 45.167 C 201.942 44.910,202.167 44.649,202.167 44.588 C 202.167 44.443,202.610 44.000,202.755 44.000 C 202.816 44.000,203.076 43.775,203.333 43.500 C 203.590 43.225,203.904 43.000,204.030 43.000 C 204.156 43.000,204.368 42.850,204.500 42.667 C 204.632 42.483,204.874 42.333,205.037 42.333 C 205.200 42.333,205.333 42.258,205.333 42.167 C 205.333 42.075,205.483 42.000,205.667 42.000 C 205.850 42.000,206.000 41.925,206.000 41.833 C 206.000 41.742,206.150 41.667,206.333 41.667 C 206.517 41.667,206.667 41.592,206.667 41.500 C 206.667 41.408,206.967 41.333,207.333 41.333 C 207.700 41.333,208.000 41.258,208.000 41.167 C 208.000 41.065,208.750 41.000,209.917 41.000 C 211.083 41.000,211.833 41.065,211.833 41.167 M267.833 61.250 C 267.833 62.972,267.771 64.000,267.667 64.000 C 267.574 64.000,267.500 64.444,267.500 65.000 C 267.500 65.556,267.426 66.000,267.333 66.000 C 267.242 66.000,267.167 66.225,267.167 66.500 C 267.167 66.775,267.092 67.000,267.000 67.000 C 266.908 67.000,266.833 67.221,266.833 67.490 C 266.833 67.760,266.758 68.027,266.667 68.083 C 266.575 68.140,266.500 68.315,266.500 68.473 C 266.500 68.631,266.350 68.868,266.167 69.000 C 265.983 69.132,265.833 69.344,265.833 69.470 C 265.833 69.596,265.608 69.910,265.333 70.167 C 265.058 70.424,264.833 70.722,264.833 70.829 C 264.833 71.094,264.409 71.500,264.132 71.500 C 264.008 71.500,263.799 71.650,263.667 71.833 C 263.535 72.017,263.347 72.167,263.250 72.167 C 263.153 72.167,262.965 72.317,262.833 72.500 C 262.701 72.683,262.466 72.833,262.310 72.833 C 262.155 72.833,262.003 72.890,261.972 72.958 C 261.942 73.027,261.485 73.305,260.958 73.577 C 260.431 73.848,260.000 74.130,260.000 74.202 C 260.000 74.274,259.850 74.333,259.667 74.333 C 259.483 74.333,259.333 74.408,259.333 74.500 C 259.333 74.592,259.038 74.667,258.677 74.667 C 258.315 74.667,257.973 74.742,257.917 74.833 C 257.860 74.925,257.443 75.000,256.990 75.000 C 256.537 75.000,256.167 75.075,256.167 75.167 C 256.167 75.270,255.306 75.333,253.917 75.333 C 252.528 75.333,251.667 75.270,251.667 75.167 C 251.667 75.075,251.367 75.000,251.000 75.000 C 250.633 75.000,250.333 74.925,250.333 74.833 C 250.333 74.742,250.108 74.667,249.833 74.667 C 249.558 74.667,249.333 74.592,249.333 74.500 C 249.333 74.408,249.183 74.333,249.000 74.333 C 248.817 74.333,248.667 74.259,248.667 74.169 C 248.667 74.078,248.385 73.824,248.042 73.603 C 247.123 73.013,246.167 72.078,246.167 71.769 C 246.167 71.621,246.092 71.500,246.000 71.500 C 245.908 71.500,245.833 71.350,245.833 71.167 C 245.833 70.983,245.758 70.833,245.667 70.833 C 245.575 70.833,245.500 70.608,245.500 70.333 C 245.500 70.058,245.425 69.833,245.333 69.833 C 245.235 69.833,245.167 69.250,245.167 68.417 C 245.167 67.583,245.235 67.000,245.333 67.000 C 245.425 67.000,245.500 66.775,245.500 66.500 C 245.500 66.225,245.575 66.000,245.667 66.000 C 245.758 66.000,245.833 65.880,245.833 65.734 C 245.833 65.587,246.058 65.257,246.333 65.000 C 246.608 64.743,246.833 64.413,246.833 64.266 C 246.833 64.120,246.951 64.000,247.095 64.000 C 247.239 64.000,247.456 63.906,247.577 63.792 C 248.134 63.262,248.524 63.000,248.752 63.000 C 248.888 63.000,249.000 62.925,249.000 62.833 C 249.000 62.742,249.190 62.667,249.422 62.667 C 249.654 62.667,249.887 62.554,249.940 62.417 C 249.994 62.274,250.243 62.167,250.518 62.167 C 250.783 62.167,251.000 62.092,251.000 62.000 C 251.000 61.908,251.300 61.833,251.667 61.833 C 252.033 61.833,252.333 61.758,252.333 61.667 C 252.333 61.573,252.806 61.500,253.417 61.500 C 254.028 61.500,254.500 61.427,254.500 61.333 C 254.500 61.241,254.944 61.167,255.500 61.167 C 256.056 61.167,256.500 61.093,256.500 61.000 C 256.500 60.905,256.997 60.833,257.657 60.833 C 258.293 60.833,258.860 60.758,258.917 60.667 C 258.973 60.575,259.390 60.500,259.843 60.500 C 260.296 60.500,260.667 60.425,260.667 60.333 C 260.667 60.242,261.042 60.167,261.500 60.167 C 261.958 60.167,262.333 60.092,262.333 60.000 C 262.333 59.908,262.708 59.833,263.167 59.833 C 263.625 59.833,264.000 59.758,264.000 59.667 C 264.000 59.575,264.262 59.500,264.583 59.500 C 264.904 59.500,265.167 59.425,265.167 59.333 C 265.167 59.242,265.467 59.167,265.833 59.167 C 266.200 59.167,266.500 59.092,266.500 59.000 C 266.500 58.908,266.725 58.833,267.000 58.833 C 267.275 58.833,267.500 58.758,267.500 58.667 C 267.500 58.575,267.575 58.500,267.667 58.500 C 267.771 58.500,267.833 59.528,267.833 61.250 " stroke="none" fill="#040404" fill-rule="evenodd"></path><path id="path2" d="M365.875 2.615 C 366.035 2.657,366.298 2.657,366.458 2.615 C 366.619 2.573,366.488 2.539,366.167 2.539 C 365.846 2.539,365.715 2.573,365.875 2.615 M367.127 2.618 C 367.334 2.658,367.634 2.656,367.794 2.615 C 367.953 2.573,367.783 2.540,367.417 2.542 C 367.050 2.544,366.920 2.578,367.127 2.618 M368.293 2.611 C 368.408 2.657,368.470 2.746,368.432 2.809 C 368.393 2.872,368.656 2.895,369.015 2.860 C 370.009 2.766,369.973 2.498,368.968 2.513 C 368.482 2.520,368.178 2.564,368.293 2.611 M353.500 5.907 C 353.500 6.039,353.575 6.193,353.667 6.250 C 353.758 6.307,353.833 6.199,353.833 6.010 C 353.833 5.821,353.758 5.667,353.667 5.667 C 353.575 5.667,353.500 5.775,353.500 5.907 M378.773 11.449 C 378.586 11.637,378.659 11.833,378.917 11.833 C 379.054 11.833,379.167 11.763,379.167 11.677 C 379.167 11.466,378.906 11.316,378.773 11.449 M389.563 13.667 C 389.563 14.721,389.590 15.152,389.623 14.625 C 389.656 14.098,389.656 13.235,389.623 12.708 C 389.590 12.181,389.563 12.612,389.563 13.667 M376.050 13.000 C 376.050 13.504,376.081 13.710,376.119 13.458 C 376.158 13.206,376.158 12.794,376.119 12.542 C 376.081 12.290,376.050 12.496,376.050 13.000 M364.383 12.458 C 365.190 12.488,366.465 12.488,367.217 12.457 C 367.968 12.426,367.308 12.401,365.750 12.402 C 364.192 12.402,363.577 12.427,364.383 12.458 M398.372 17.333 C 398.372 17.654,398.406 17.785,398.448 17.625 C 398.490 17.465,398.490 17.202,398.448 17.042 C 398.406 16.881,398.372 17.012,398.372 17.333 M352.333 20.657 C 352.333 21.121,352.408 21.500,352.500 21.500 C 352.592 21.500,352.667 21.167,352.667 20.760 C 352.667 20.353,352.592 19.973,352.500 19.917 C 352.397 19.853,352.333 20.137,352.333 20.657 M352.383 22.500 C 352.383 23.004,352.415 23.210,352.453 22.958 C 352.491 22.706,352.491 22.294,352.453 22.042 C 352.415 21.790,352.383 21.996,352.383 22.500 M352.385 24.417 C 352.386 24.967,352.417 25.172,352.454 24.872 C 352.491 24.572,352.490 24.122,352.452 23.872 C 352.414 23.622,352.384 23.867,352.385 24.417 M352.385 26.417 C 352.386 26.967,352.417 27.172,352.454 26.872 C 352.491 26.572,352.490 26.122,352.452 25.872 C 352.414 25.622,352.384 25.867,352.385 26.417 M352.000 39.740 C 352.000 43.691,352.059 45.833,352.167 45.833 C 352.275 45.833,352.333 43.726,352.333 39.843 C 352.333 36.030,352.273 33.816,352.167 33.750 C 352.057 33.682,352.000 35.720,352.000 39.740 M395.879 39.667 C 395.879 40.079,395.911 40.248,395.951 40.042 C 395.991 39.835,395.991 39.498,395.951 39.292 C 395.911 39.085,395.879 39.254,395.879 39.667 M395.872 46.333 C 395.872 46.654,395.906 46.785,395.948 46.625 C 395.990 46.465,395.990 46.202,395.948 46.042 C 395.906 45.881,395.872 46.012,395.872 46.333 " stroke="none" fill="#04e47c" fill-rule="evenodd"></path><path id="path3" d="" stroke="none" fill="#043c44" fill-rule="evenodd"></path><path id="path4" d="" stroke="none" fill="#044004" fill-rule="evenodd"></path></g></svg>
