<?xml version="1.0" encoding="UTF-8"?>
<svg id="a" xmlns="http://www.w3.org/2000/svg" width="128" height="39" viewBox="0 0 128 39">
  <path
    d="M121.31,25.94c-3.55,0-6.44,2.89-6.44,6.44s2.89,6.49,6.44,6.49,6.49-2.89,6.49-6.49-2.89-6.44-6.49-6.44"
    fill="#d49eb8" />
  <path
    d="M116.38,32.38c0-2.75,2.19-4.93,4.93-4.93s4.98,2.19,4.98,4.93-2.24,4.98-4.98,4.98-4.93-2.24-4.93-4.98"
    fill="#960051" />
  <path
    d="M78.36,25.94c-3.56,0-6.46,2.89-6.46,6.44s2.9,6.49,6.46,6.49,6.47-2.89,6.47-6.49-2.9-6.44-6.47-6.44"
    fill="#eaedb1" />
  <path
    d="M73.41,32.38c0-2.75,2.23-4.93,4.96-4.93s4.96,2.19,4.96,4.93-2.22,4.98-4.96,4.98-4.96-2.24-4.96-4.98"
    fill="#c7d300" />
  <path
    d="M92.69,25.94c-3.57,0-6.47,2.89-6.47,6.44s2.9,6.49,6.47,6.49,6.47-2.89,6.47-6.49-2.91-6.44-6.47-6.44"
    fill="#c6dfaf" />
  <path
    d="M87.73,32.38c0-2.7,2.22-4.93,4.96-4.93s4.96,2.23,4.96,4.93-2.23,4.98-4.96,4.98-4.96-2.23-4.96-4.98"
    fill="#51ae30" />
  <path
    d="M107.04,25.94c-3.6,0-6.49,2.89-6.49,6.44s2.89,6.49,6.49,6.49,6.44-2.89,6.44-6.49-2.89-6.44-6.44-6.44"
    fill="#b2d1ef" />
  <path
    d="M102.06,32.38c0-2.75,2.24-4.93,4.98-4.93s4.93,2.19,4.93,4.93-2.19,4.98-4.93,4.98-4.98-2.24-4.98-4.98"
    fill="#0091d3" />
  <path
    d="M64.04,25.94c-3.56,0-6.47,2.89-6.47,6.44s2.9,6.49,6.47,6.49,6.46-2.89,6.46-6.49-2.9-6.44-6.46-6.44"
    fill="#ffeeaf" />
  <path
    d="M59.08,32.38c0,2.74,2.22,4.98,4.96,4.98s4.96-2.24,4.96-4.98-2.23-4.93-4.96-4.93-4.96,2.19-4.96,4.93"
    fill="#fcd700" />
  <path
    d="M9.89,17c-.68-.16-1.14-.44-2.22-1.57-1.26-1.31-2.34-2.73-3.41-4.18,3.48-3.9,4.51-4.72,5.68-5.66v-.12h-1.47c-.82,0-1.4.23-1.64.47-1.21,1.15-3.08,3.11-4.58,5V2.54c0-.93-.49-1.4-1.4-1.4H.19v15.14c0,1.15.44,1.68,1.38,1.68h.68v-6.1c1.45,1.82,2.94,3.81,4.58,5.47.44.47.93.7,1.64.7,1.12,0,1.26-.4,1.43-1.03M17.46,16.79v-.7h-1.38c-1.17,0-1.96-.44-1.96-2.01V2.77c0-1.1-.63-1.64-1.5-1.64h-.65v13.21c0,2.52,1.33,3.71,3.79,3.71,1.14,0,1.71-.4,1.71-1.26M22.09,2.28c0-.79-.63-1.47-1.43-1.47s-1.45.68-1.45,1.47.65,1.45,1.45,1.45,1.43-.65,1.43-1.45M24.52,16.82v-.7h-.91c-1.17,0-1.94-.49-1.94-2.06v-6.94c0-1.1-.75-1.66-1.47-1.66h-.65v8.9c0,2.5,1.29,3.72,3.74,3.72.75,0,1.24-.47,1.24-1.26M44.04,17.96v-7.15c0-3.72-1.66-5.59-4.77-5.59-1.64,0-3.11.91-3.93,2.27-.77-1.45-2.03-2.27-3.88-2.27-3.27,0-5.09,2.5-5.09,5.38v5.8c0,1.05.58,1.57,1.47,1.57h.68v-7.08c0-2.55.96-3.65,2.8-3.65s2.8,1.38,2.8,3.65v5.52c0,1.01.4,1.57,1.43,1.57h.73v-7.15c0-2.52.86-3.58,2.92-3.58,1.71,0,2.69,1.03,2.69,3.65v5.52c0,1.01.58,1.57,1.4,1.57M56.47,13.85v-3.93c0-3.04-1.68-4.7-4.86-4.7-2.8,0-4.3,1.5-4.3,2.64v1.03h.12c.72-1.01,2.1-1.71,3.97-1.71,2.03,0,2.94.75,2.94,2.57v.58h-1.68c-3.74,0-5.82,1.47-5.82,4.16,0,2.22,2.22,3.69,4.77,3.69,3.51,0,4.86-1.82,4.86-4.35M54.37,13.69c0,1.8-.77,2.55-2.66,2.55-1.61,0-2.69-.86-2.69-1.96,0-1.38,1.14-2.15,3.65-2.15h1.71"
    fill="#1D1D1B" />
  <path
    d="M73.82.8h-1.69v14.56c0,1.53,1.04,2.59,2.67,2.59h1.74v-6.07c1.2,1.83,2.32,3.64,3.76,5.31.53.63,1.62.88,2.27.88,1.58,0,2.53-.79,2.69-2.21-.97-.23-1.34-.35-2.3-1.43-.88-1.02-1.65-2.25-2.39-3.36,1.16-1.67,3.97-4.94,4.76-5.75v-.12h-3.08c-1.35,0-1.78.26-2.34.86-1.25,1.35-2.32,3.01-3.36,4.57V3.38c0-1.28-.72-2.58-2.71-2.58M90.35,2.1h-.46c-.93,0-1.72.42-2.3.86-.86.65-1.53,1.58-1.53,2.74v7.9c0,3.5,2.34,4.54,4.52,4.54,2.29,0,3.27-.97,3.27-2.04v-1.71h-.12c-.46.19-.95.28-1.99.28-.86,0-1.39-.51-1.39-1.37v-4.61h4.89v5.28c0,3.01,1.83,4.18,4.17,4.18,1.37,0,2.53-.51,2.53-2.04v-1.3h-.53c-1.23,0-1.76-.35-1.76-1.48v-5.07c0-2.32-.81-3.04-3.31-3.04h-5.98M65.01,4.84c-3.64,0-5.29,1.58-5.29,3.16v1.55h.12c.9-.83,1.78-1.39,4.17-1.39,1.74,0,2.55.26,2.55,1.3v.53h-.62c-4.64,0-6.68,1.44-6.68,4.27s2.99,4.05,5.45,4.05c4.64,0,6.12-1.32,6.12-5.96v-1.97c0-3.75-2.3-5.54-5.82-5.54M111.66,5.6h-2.04c-.45,2.76-1.55,6.26-2.33,7.72-.56-1.05-1.66-3.97-2.04-5.95-.16-.79-1.03-1.77-2.42-1.77h-2.22c.54,3.61,2.27,8.14,3.92,10.72.72,1.12,1.39,1.79,2.8,1.79h1.14c1.48-1.64,3.52-5.83,4.33-8.19.29-.85.58-1.75.58-2.65,0-1.03-.65-1.68-1.73-1.68M65.17,15.23c-1.23,0-1.74-.42-1.74-1.23,0-.86.67-1.28,2.34-1.28h.88v.95c0,1.16-.69,1.55-1.48,1.55M97.33.13c-1.28,0-2.32.97-2.32,2.18s1.04,2.18,2.32,2.18,2.29-.98,2.29-2.18-1.02-2.18-2.29-2.18"
    fill="#1D1D1B" />
</svg>
