<?xml version="1.0" encoding="UTF-8"?>
<svg xmlns="http://www.w3.org/2000/svg" width="96" height="24" viewBox="0 0 96 24" fill="none">
  <g clip-path="url(#clip0_7578_37982)">
    <path fill-rule="evenodd" clip-rule="evenodd" d="M93.4109 18.5781V5.51953C93.4109 4.62526 93.1408 3.93086 92.5996 3.43711C92.0585 2.94257 91.2819 2.6961 90.2699 2.6961H87.0586V21.4016H90.2699C92.3642 21.4016 93.4109 20.4607 93.4109 18.5781ZM90.2699 23.5195H84.5875V0.578124H90.2699C92.1051 0.578124 93.4994 1.01341 94.4522 1.88398C95.4057 2.75456 95.882 3.96641 95.882 5.51953V18.5781C95.882 20.155 95.4112 21.3723 94.4703 22.2311C93.5287 23.0898 92.1288 23.5195 90.2699 23.5195ZM75.4109 12.7543H71.3172C70.3289 12.7543 69.6464 13.0016 69.2703 13.4961C68.8935 13.9898 68.7055 14.6842 68.7055 15.5785V19.1074C68.7055 20.0017 68.8935 20.6961 69.2703 21.1898C69.6464 21.6844 70.3289 21.9309 71.3172 21.9309C72.3055 21.9309 73.2227 21.5485 74.0703 20.7838C74.9172 20.0191 75.3643 19.2607 75.4109 18.5078V12.7543ZM77.882 23.5195H76.8227L75.9055 21.2602C75.4109 22.1078 74.7639 22.7841 73.9645 23.2896C73.1642 23.796 72.2818 24.0488 71.3172 24.0488C67.9289 24.0488 66.2344 22.4017 66.2344 19.1074V15.5785C66.2344 12.2842 67.9289 10.6371 71.3172 10.6371H75.4109V4.84883C75.4109 4.00196 75.1408 3.3431 74.5996 2.87226C74.0585 2.40143 73.2582 2.16601 72.1996 2.16601C70.1053 2.16601 69.0586 3.06028 69.0586 4.84883V6.93125H66.5875V4.99024C66.5875 3.41341 67.052 2.19603 67.9818 1.33731C68.9109 0.477795 70.3171 0.0488281 72.1996 0.0488281C74.0814 0.0488281 75.4994 0.477795 76.4522 1.33731C77.4049 2.19603 77.882 3.41341 77.882 4.99024V23.5195ZM51.2348 4.99024V10.6371H57.9402V4.99024C57.9402 3.10768 56.8224 2.16601 54.5875 2.16601C52.3518 2.16601 51.2348 3.10768 51.2348 4.99024ZM57.9402 19.1074V17.1664H60.4113V19.1074C60.4113 20.6842 59.9286 21.9016 58.9641 22.7604C57.9995 23.6191 56.5522 24.0488 54.6231 24.0488C52.6931 24.0488 51.2348 23.6191 50.2465 22.7604C49.2582 21.9016 48.7637 20.6842 48.7637 19.1074V4.99024C48.7637 3.41341 49.2464 2.19603 50.2109 1.33731C51.1755 0.477795 52.6228 0.0488281 54.552 0.0488281C56.4819 0.0488281 57.9402 0.477795 58.9285 1.33731C59.9168 2.19603 60.4113 3.41341 60.4113 4.99024V12.7543H51.2348V19.1074C51.2348 20.99 52.3518 21.9309 54.5875 21.9309C56.8224 21.9309 57.9402 20.99 57.9402 19.1074ZM40.2934 19.1074V4.99024C40.2934 3.10768 39.1171 2.16601 36.7637 2.16601C34.4111 2.16601 33.2348 3.10768 33.2348 4.99024V19.1074C33.2348 20.99 34.4111 21.9309 36.7637 21.9309C39.1171 21.9309 40.2934 20.99 40.2934 19.1074ZM42.7637 4.99024V19.1074C42.7637 20.6842 42.2636 21.9016 41.2635 22.7604C40.2641 23.6191 38.7695 24.0488 36.7818 24.0488C34.7934 24.0488 33.2932 23.6191 32.2812 22.7604C31.2701 21.9016 30.7637 20.6842 30.7637 19.1074V4.99024C30.7637 3.41341 31.2637 2.19603 32.2639 1.33731C33.264 0.477795 34.7579 0.0488281 36.7463 0.0488281C38.7347 0.0488281 40.2341 0.477795 41.2461 1.33731C42.2581 2.19603 42.7637 3.41341 42.7637 4.99024Z" fill="black"></path>
    <path fill-rule="evenodd" clip-rule="evenodd" d="M23.9708 18.9809H14.3392L13.6914 17.2492H0V12.6633H12.8018L13.4496 14.395H23.9708V18.9809ZM23.9708 10.509H11.1689L10.5211 8.77732H0V4.19141H9.6316L10.2794 5.92307H23.9708V10.509Z" fill="#E41517"></path>
  </g>
  <defs>
    <clipPath id="clip0_7578_37982">
      <rect width="96" height="24" fill="white"></rect>
    </clipPath>
  </defs>
</svg>
