<svg width="424" height="446" viewBox="0 0 424 446" fill="none" xmlns="http://www.w3.org/2000/svg">
<g clip-path="url(#clip0_1668_5138)">
<path d="M142.95 173.6C142.95 178.06 139.2 181.68 134.56 181.68C129.92 181.68 126.17 178.06 126.17 173.6C126.17 169.14 129.92 165.52 134.56 165.52C139.2 165.52 142.95 169.14 142.95 173.6Z" fill="#1A1A1A"/>
<path d="M115.95 173.6C115.95 178.06 112.2 181.68 107.56 181.68C102.92 181.68 99.1699 178.06 99.1699 173.6C99.1699 169.14 102.92 165.52 107.56 165.52C112.2 165.52 115.95 169.14 115.95 173.6Z" fill="#1A1A1A"/>
<path fill-rule="evenodd" clip-rule="evenodd" d="M276.83 85.9503L276.98 86.0403L278.99 87.3503L349.21 54.7003C266.12 -23.5497 131.86 -17.0797 49.3501 69.1603C47.1101 71.5003 44.9401 73.8703 42.8301 76.2703C97.1001 34.3803 192.96 36.8003 276.84 85.9503H276.83Z" fill="#02456C"/>
<path fill-rule="evenodd" clip-rule="evenodd" d="M284.53 398.85C241.17 398.85 193.18 385.99 148.63 359.89L148.49 359.8L142.18 355.67L69.71 386.5C150 467.41 284.41 465.31 369.93 381.81C373.49 378.33 376.91 374.76 380.19 371.11C354.99 389.52 321.45 398.85 284.53 398.85Z" fill="#02456C"/>
<path d="M105.88 56.9299C73.0102 62.9799 45.2402 78.0399 27.4902 101.93C18.4902 114.59 11.8602 127.42 6.98015 139.61C-2.58985 170.95 -2.00985 203.56 6.81015 235.21C9.15015 184.03 30.6402 131.61 70.9402 89.4799C83.0902 76.7899 94.6802 65.9599 105.88 56.9199V56.9299Z" fill="#00C853"/>
<path d="M6.82048 235.22C4.49048 286.13 21.0905 335.8 56.9505 372.86L78.5905 348.7C43.6105 315.76 18.2805 276.3 6.82048 235.22Z" fill="#02456C"/>
<path d="M417.65 219.07C422.38 165.17 405.99 111.93 368.1 72.7695L342.17 98.9995C379.26 133.92 406.35 175.77 417.65 219.07Z" fill="#02456C"/>
<path d="M319.12 388.749C352.12 382.709 380.07 367.639 397.98 343.709C405.66 332.909 411.38 322.219 415.63 311.939C425.74 281.569 425.72 249.959 417.66 219.079C413.42 267.479 392.15 316.399 354.12 356.149C341.95 368.869 330.34 379.719 319.12 388.759V388.749Z" fill="#00C853"/>
<path d="M146.8 198.54C153.87 205.3 157.36 213.6 157.36 223.54C157.36 233.48 153.88 241.78 146.8 248.54C139.73 255.3 131.22 258.69 121.28 258.69C111.34 258.69 102.83 255.31 95.8699 248.54C88.8999 241.78 85.4199 233.48 85.4199 223.54C85.4199 213.6 88.8999 205.3 95.8699 198.54C102.84 191.78 111.34 188.4 121.28 188.4C131.22 188.4 139.73 191.78 146.8 198.54ZM105.61 207.56C101.51 211.76 99.4599 217.09 99.4599 223.55C99.4599 230.01 101.51 235.44 105.61 239.54C109.71 243.64 114.94 245.69 121.29 245.69C127.64 245.69 132.77 243.64 136.87 239.44C140.97 235.24 143.02 229.91 143.02 223.45C143.02 216.99 140.97 211.66 136.87 207.46C132.77 203.26 127.4 201.21 121.4 201.21C115.4 201.21 109.72 203.36 105.62 207.56H105.61Z" fill="#1A1A1A"/>
<path d="M229.5 202.95L219.66 211.05C214.84 204.39 208.59 201.11 200.8 201.11C194.34 201.11 189.12 203.16 185.12 207.36C181.12 211.56 179.18 216.89 179.18 223.35C179.18 229.81 181.23 235.44 185.33 239.64C189.43 243.84 194.86 245.99 201.62 245.99C209.51 245.99 215.45 243.22 219.45 237.59V232.06H200.8V220.07H233.29V240.05C230.22 245.48 225.81 249.89 220.07 253.27C214.33 256.65 207.98 258.29 200.91 258.29C190.77 258.29 182.16 254.91 175.19 248.14C168.22 241.38 164.74 233.08 164.74 223.14C164.74 213.2 168.22 204.9 175.19 198.14C182.16 191.38 190.73 187.99 200.91 187.99C211.09 187.99 221.93 192.02 229.5 202.95Z" fill="#1A1A1A"/>
<path d="M302.779 189.22V258.09H298.169L259.019 216.28V256.86H245.189V187.99H249.699L288.949 229.49V189.22H302.779Z" fill="#1A1A1A"/>
<path d="M332.08 256.85H318.25V189.21H332.08V256.85Z" fill="#1A1A1A"/>
</g>
<defs>
<clipPath id="clip0_1668_5138">
<rect width="423.47" height="445.84" fill="white"/>
</clipPath>
</defs>
</svg>
