<svg xmlns="http://www.w3.org/2000/svg" width="113" height="72" fill="none" viewBox="0 0 113 72"><path fill="#143E6F" d="M45.325 21.266c-.904 0-1.648.729-1.648 1.643v26.195c0 .901.731 1.643 1.648 1.643.917 0 1.648-.729 1.648-1.643V22.91c0-.9-.745-1.643-1.648-1.643Zm-22.35 0h-1.648v29.468h1.648c.903 0 1.647-.729 1.647-1.643V22.896c0-.901-.73-1.643-1.647-1.643v.013Zm44.7 0h-1.634v13.422h1.634c.904 0 1.648-.729 1.648-1.643v-10.15c0-.9-.744-1.642-1.648-1.642v.013Z"/><path fill="#143E6F" d="M103.978 0H0v63.003C0 67.96 4.053 72 9.022 72H113V8.997C113 4.04 108.947 0 103.978 0Zm-72.46 52.708a4.921 4.921 0 0 1-4.929 4.916h-5.262v4.266h-6.896V14.376h12.171c2.724 0 4.93 2.2 4.93 4.916v33.403l-.013.013Zm22.351 0a4.921 4.921 0 0 1-4.93 4.916h-7.228c-2.724 0-4.93-2.2-4.93-4.916V19.292a4.921 4.921 0 0 1 4.93-4.916h7.242c2.723 0 4.93 2.2 4.93 4.916v33.403l-.014.013Zm22.35-17.04a2.95 2.95 0 0 1-2.963 2.942 2.962 2.962 0 0 1 2.963 2.955v16.046h-6.91V44.188c0-.9-.73-1.643-1.647-1.643h-1.635v15.066h-6.91V14.376H71.29c2.724 0 4.93 2.2 4.93 4.916v16.377Zm22.364 0c0 1.63-1.33 2.942-2.963 2.942a2.962 2.962 0 0 1 2.963 2.955v16.046h-6.91V44.188c0-.9-.73-1.643-1.648-1.643h-1.647v15.066H81.48V14.376h12.16c2.724 0 4.93 2.2 4.93 4.916v16.377h.013Z"/><path fill="#FFED00" d="M24.622 49.09c0 .902-.73 1.644-1.647 1.644h-1.648V21.266h1.648c.903 0 1.634.729 1.634 1.643v26.195l.013-.013Zm6.897 3.618V19.292a4.92 4.92 0 0 0-4.93-4.916H14.417v47.501h6.897v-4.266h5.262c2.724 0 4.93-2.2 4.93-4.916m15.467-3.604c0 .9-.731 1.643-1.648 1.643a1.637 1.637 0 0 1-1.648-1.643V22.896c0-.901.731-1.643 1.648-1.643.917 0 1.648.729 1.648 1.643V49.09Zm6.896 3.617V19.292a4.921 4.921 0 0 0-4.93-4.916h-7.242c-2.724 0-4.93 2.2-4.93 4.916v33.403a4.921 4.921 0 0 0 4.93 4.916h7.229c2.724 0 4.93-2.2 4.93-4.916m15.467-19.65c0 .901-.744 1.643-1.648 1.643h-1.634V21.266h1.634c.904 0 1.648.729 1.648 1.643v10.15-.014Zm0 24.579h6.91V41.578a2.962 2.962 0 0 0-2.964-2.955c1.635 0 2.963-1.325 2.963-2.941V19.305a4.921 4.921 0 0 0-4.93-4.916h-12.17v43.235h6.91V42.559h1.634c.904 0 1.648.729 1.648 1.643v13.422Zm22.35-24.579c0 .901-.744 1.643-1.648 1.643h-1.647V21.266h1.647c.904 0 1.648.729 1.648 1.643v10.15-.014Zm3.947 5.578c1.634 0 2.963-1.325 2.963-2.941V19.305a4.921 4.921 0 0 0-4.93-4.916H81.494v43.235h6.897V42.559h1.648c.903 0 1.647.729 1.647 1.643v13.422h6.91V41.578a2.962 2.962 0 0 0-2.963-2.955"/><path fill="#143E6F" d="M90.025 21.266h-1.647v13.422h1.647c.904 0 1.648-.729 1.648-1.643v-10.15c0-.9-.744-1.642-1.648-1.642v.013Z"/></svg>