<svg width="165" height="102" viewBox="0 0 165 102" fill="none" xmlns="http://www.w3.org/2000/svg">
<rect width="165" height="102" fill="white"/>
<path d="M154.659 14.0088H10.6284V21.6956H154.659V14.0088Z" fill="black"/>
<path d="M154.659 56.731H10.6284V64.4177H154.659V56.731Z" fill="black"/>
<path fill-rule="evenodd" clip-rule="evenodd" d="M26.2676 29.1171C24.1567 27.9753 21.2227 27.2584 18.8197 27.2584C14.0537 27.2584 10.6152 30.2588 10.6152 34.8656C10.6152 39.2466 13.1642 40.2158 17.054 41.2646C18.3816 41.623 20.8111 42.1939 20.8111 43.8534C20.8111 45.4465 19.2711 46.1368 17.8108 46.1368C15.6999 46.1368 13.8678 45.088 12.3278 43.8003L9.67261 48.5531C12.1021 50.1727 15.0361 51.1419 18.0365 51.1419C20.4394 51.1419 22.922 50.5046 24.7939 49.0045C26.6924 47.4777 27.25 45.1544 27.25 42.8975C27.25 39.2333 24.6877 37.6402 21.382 36.7109L19.8022 36.2595C18.7268 35.9276 17.054 35.4231 17.054 34.0956C17.054 32.8343 18.5675 32.1971 19.7092 32.1971C21.2227 32.1971 22.6698 32.7945 23.8115 33.6973L26.2676 29.1171Z" fill="#E3000F"/>
<path fill-rule="evenodd" clip-rule="evenodd" d="M38.269 32.8476H43.3803V27.8559H26.9712V32.8476H32.0824V50.5179H38.269V32.8476Z" fill="#E3000F"/>
<path fill-rule="evenodd" clip-rule="evenodd" d="M56.55 41.238C59.9221 40.6672 61.7542 37.9589 61.7542 34.839C61.7542 30.0066 58.1962 27.8691 53.4833 27.8691H44.2432V50.5312H50.4298V41.8222H50.4962L56.3376 50.5312H64.0377L56.55 41.238ZM50.4298 32.3697H51.0272C53.0452 32.3697 55.3154 32.7281 55.3154 35.1975C55.3154 37.6668 53.0452 38.0252 51.0272 38.0252H50.4298V32.3697Z" fill="#E3000F"/>
<path fill-rule="evenodd" clip-rule="evenodd" d="M78.8935 46.575L80.4335 50.5179H87.0316L78.0703 27.8559H71.3129L62.179 50.5179H68.7374L70.3703 46.575H78.8935ZM77.2207 42.0744H72.0829L74.6319 34.8656H74.6983L77.2207 42.0744Z" fill="#E3000F"/>
<path fill-rule="evenodd" clip-rule="evenodd" d="M93.7625 41.1451H94.3865C96.4044 41.1451 99.4712 40.8796 99.4712 43.6144C99.4712 46.1103 96.3779 46.0174 94.5458 46.0174H93.7625V41.1451ZM97.0948 50.5179C101.449 50.5179 105.711 48.9514 105.711 44.2118C105.711 41.0522 104.264 38.8616 100.852 38.4368V38.3704C102.777 37.4411 103.467 35.7816 103.467 33.7504C103.467 29.4224 100.626 27.8559 96.4044 27.8559H87.5759V50.5179H97.0948ZM93.7625 32.3697H94.2006C95.8734 32.3697 97.7984 32.4892 97.7984 34.5602C97.7984 36.4852 96.0991 36.7507 94.4529 36.7507H93.7625V32.3697Z" fill="#E3000F"/>
<path fill-rule="evenodd" clip-rule="evenodd" d="M122.12 46.575L123.66 50.5179H130.258L121.297 27.8559H114.539L105.392 50.5179H111.964L113.61 46.575H122.12ZM120.447 42.0744H115.309L117.858 34.8656H117.925L120.447 42.0744Z" fill="#E3000F"/>
<path fill-rule="evenodd" clip-rule="evenodd" d="M142.26 42.4992H147.304C147.052 45.1146 145.008 46.4289 142.326 46.4289C138.25 46.4289 136.046 42.8577 136.046 39.3396C136.046 35.8878 138.157 32.1838 142.233 32.1838C144.729 32.1838 146.521 33.6309 147.371 35.7949L153.239 33.445C151.194 29.21 147.397 27.0991 142.512 27.0991C134.852 27.0991 129.608 31.9316 129.608 39.2997C129.608 46.4156 134.812 51.2614 142.286 51.2614C146.256 51.2614 149.761 49.9072 152.097 46.8139C154.208 43.9861 154.46 41.1716 154.527 37.8526H142.26V42.4992Z" fill="#E3000F"/>
<path d="M33.0514 88.9385H28.9624L25.8559 84.0795H25.8293V88.9385H22.5369V76.2998H27.449C29.9449 76.2998 31.8433 77.4946 31.8433 80.1897C31.8433 81.9288 30.8742 83.4423 29.0819 83.7609L33.0514 88.9385ZM25.8293 81.9554H26.1479C27.2233 81.9554 28.4314 81.7562 28.4314 80.3755C28.4314 78.9948 27.2233 78.7957 26.1479 78.7957H25.8293V81.9554V81.9554Z" fill="black"/>
<path d="M38.8797 79.0745V81.1854H42.5837V83.9733H38.8797V86.1506H42.7962V88.9385H35.6006V76.2998H42.7962V79.0745H38.8797Z" fill="black"/>
<path d="M49.713 86.7343L48.8368 88.9248H45.3452L50.2042 76.2861H53.7887L58.5548 88.9248H55.0499L54.2268 86.7343H49.713ZM52.0097 80.2025H51.9699L50.6158 84.2252H53.3506L52.0097 80.2025Z" fill="black"/>
<path d="M64.5554 86.1502H68.4851V88.9381H61.2629V76.2861H64.5554V86.1502Z" fill="black"/>
<path d="M81.9736 79.0745V81.1854H85.6776V83.9733H81.9736V86.1506H85.8767V88.9385H78.6812V76.2998H85.8767V79.0745H81.9736Z" fill="black"/>
<path d="M96.5239 79.5524C95.9265 79.0479 95.1432 78.716 94.3466 78.716C93.7492 78.716 92.9394 79.0744 92.9394 79.7781C92.9394 80.5082 93.8289 80.8003 94.3997 80.9862L95.2361 81.2384C97.0018 81.7562 98.356 82.6457 98.356 84.6902C98.356 85.9514 98.0506 87.2392 97.0549 88.0888C96.0725 88.9252 94.7449 89.2837 93.4704 89.2837C91.8773 89.2837 90.3107 88.7526 89.0229 87.8366L90.4302 85.1947C91.2533 85.9116 92.2225 86.4957 93.3509 86.4957C94.1209 86.4957 94.944 86.1107 94.944 85.2212C94.944 84.2919 93.6563 83.9865 92.9526 83.7741C90.8949 83.19 89.5274 82.6457 89.5274 80.2029C89.5274 77.6406 91.3595 75.9546 93.882 75.9546C95.1564 75.9546 96.7097 76.3529 97.8382 76.9901L96.5239 79.5524Z" fill="black"/>
<path d="M106.614 88.9381H103.321V79.0741H100.613V76.2861H109.322V79.0741H106.614V88.9381Z" fill="black"/>
<path d="M114.407 86.7343L113.53 88.9248H110.039L114.898 76.2861H118.482L123.248 88.9248H119.744L118.92 86.7343H114.407ZM116.703 80.2025H116.677L115.323 84.2252H118.058L116.703 80.2025Z" fill="black"/>
<path d="M129.979 88.9381H126.7V79.0741H123.979V76.2861H132.701V79.0741H129.979V88.9381Z" fill="black"/>
<path d="M138.848 79.0745V81.1854H142.552V83.9733H138.848V86.1506H142.751V88.9385H135.569V76.2998H142.751V79.0745H138.848Z" fill="black"/>
</svg>
