<svg xmlns="http://www.w3.org/2000/svg" width="216" height="65"><g fill="none" fill-rule="evenodd"><path fill="#000" d="M126.378 52.335c2.287 0 4.055 1.03 5.013 3.11l-2.741 1.148c-.4-1.063-1.24-1.767-2.404-1.767-1.901 0-2.889 1.811-2.889 3.505 0 1.722 1.031 3.476 2.933 3.476 1.252 0 2.212-.647 2.33-1.93h-2.36V57.61h5.735c-.029 1.621-.146 3.005-1.135 4.39-1.091 1.517-2.727 2.18-4.584 2.18-3.495 0-5.928-2.372-5.928-5.864 0-3.607 2.449-5.98 6.03-5.98zm29.842 3.668c.856 0 1.71.131 2.493.487l-.9 1.708a3.352 3.352 0 00-1.444-.37c-.31 0-.84.133-.84.518 0 .516.84.589 1.209.662 1.252.25 2.196.839 2.196 2.24 0 1.987-1.814 2.813-3.568 2.813a5.885 5.885 0 01-3.052-.868l.973-1.873c.546.385 1.46.766 2.123.766.337 0 .84-.16.84-.573 0-.589-.84-.62-1.68-.842-.841-.219-1.681-.631-1.681-1.988 0-1.854 1.68-2.68 3.331-2.68zm-103.094 0c.855 0 1.71.131 2.493.487l-.901 1.708a3.331 3.331 0 00-1.442-.37c-.312 0-.842.133-.842.518 0 .516.842.589 1.207.662 1.254.25 2.197.839 2.197 2.24 0 1.987-1.812 2.813-3.566 2.813a5.87 5.87 0 01-3.05-.868l.97-1.873c.545.385 1.461.766 2.124.766.338 0 .84-.16.84-.573 0-.589-.84-.62-1.681-.842-.842-.219-1.68-.631-1.68-1.988 0-1.854 1.68-2.68 3.331-2.68zm149.201.001c2.621 0 4.141 1.62 4.141 4.198v.28h-5.648c0 1.09.576 1.679 1.68 1.679.577 0 .991-.193 1.285-.693h2.578c-.426 1.782-2.121 2.593-3.846 2.593-2.507 0-4.378-1.415-4.378-4.021 0-2.52 1.723-4.036 4.188-4.036zm-16.87 0c.62 0 1.238.146 1.77.442v2.268c-.4-.295-.871-.532-1.386-.532a1.817 1.817 0 00-1.843 1.842c0 1.09.781 1.858 1.885 1.858.473 0 .99-.193 1.344-.518v2.27a4.214 4.214 0 01-1.888.427c-2.24 0-4.112-1.665-4.112-3.946 0-2.431 1.857-4.11 4.23-4.11zm-124.516 0c2.623 0 4.142 1.62 4.142 4.198v.28h-5.646c0 1.09.574 1.679 1.68 1.679.576 0 .989-.193 1.283-.693h2.58c-.427 1.782-2.124 2.593-3.847 2.593-2.504 0-4.38-1.415-4.38-4.021 0-2.52 1.725-4.036 4.188-4.036zm-21.096 0c2.62 0 4.141 1.62 4.141 4.198v.28h-5.647c0 1.09.573 1.679 1.681 1.679.577 0 .988-.193 1.283-.693h2.58c-.43 1.782-2.125 2.593-3.85 2.593-2.504 0-4.377-1.415-4.377-4.021 0-2.52 1.725-4.036 4.189-4.036zm49.595-.001c.87 0 1.785.326 2.345.988v-.737h2.683v7.557h-2.683v-.842h-.029c-.472.751-1.401 1.09-2.285 1.09-2.241 0-3.82-1.869-3.82-4.034 0-2.164 1.55-4.022 3.79-4.022zm46.494.251v4.038c0 .955.235 1.634 1.343 1.634 1.104 0 1.34-.679 1.34-1.634v-4.038h2.683v4.55c0 2.493-1.754 3.255-4.023 3.255-2.272 0-4.026-.762-4.026-3.255v-4.55h2.683zM13.23 56.003c.87 0 1.784.326 2.345.988v-.737h2.683v7.557h-2.683v-.842h-.03c-.472.751-1.401 1.09-2.285 1.09-2.24 0-3.818-1.869-3.818-4.034 0-2.164 1.548-4.022 3.788-4.022zm65.477-4.419v5.407c.576-.662 1.474-.988 2.345-.988 2.241 0 3.787 1.858 3.787 4.022 0 2.18-1.562 4.034-3.818 4.034-.883 0-1.798-.339-2.285-1.09h-.03v.842h-2.68V51.584h2.68zm22.706 4.42c2.035 0 2.845 1.28 2.845 3.137v4.67h-2.683l.003-4.107c-.006-.706-.12-1.566-1.213-1.566-1.091 0-1.4.812-1.4 1.754v3.92h-2.683v-7.56h2.683v.974h.03c.618-.913 1.37-1.222 2.418-1.222zm111.441 0c2.034 0 2.844 1.28 2.844 3.137v4.67h-2.685l.003-4.107c-.006-.706-.118-1.566-1.21-1.566s-1.4.812-1.4 1.754v3.92h-2.684v-7.56h2.685v.974h.027c.62-.913 1.371-1.222 2.42-1.222zm-190.1.252v7.555h-2.682v-7.555h2.683zm150.512 0v7.555h-2.683v-7.555h2.683zm-25.095-.252c2.035 0 2.845 1.28 2.845 3.137v4.67h-2.682l.002-4.107c-.006-.706-.12-1.566-1.21-1.566-1.092 0-1.402.812-1.402 1.754v3.92h-2.683v-7.56h2.683v.974h.029c.62-.913 1.372-1.222 2.418-1.222zm43.434-4.42v5.628h.032c.62-.826 1.371-1.208 2.415-1.208 1.918 0 2.847 1.266 2.847 3.182v4.625h-2.683v-3.873c0-.885-.133-1.8-1.208-1.8-1.064 0-1.403.915-1.403 1.8v3.873h-2.681V51.584h2.681zm-143.8 4.672v7.555H45.12v-7.555h2.683zm-19.58-4.82c.412 0 .78.075 1.15.265v2.314c-.31-.132-.589-.248-.944-.248-.692 0-.928.409-.928 1.265v1.224h1.871v2.207h-1.87v5.347h-2.685v-5.347h-.944v-2.207h.944v-.958c0-1.048.03-1.814.766-2.654a3.45 3.45 0 012.64-1.208zm43.243 4.568c2.035 0 2.846 1.28 2.846 3.137v4.67H71.63l.002-4.107c-.006-.706-.12-1.566-1.212-1.566-1.091 0-1.4.812-1.4 1.754v3.92h-2.683v-7.56h2.683v.974h.03c.618-.913 1.37-1.222 2.417-1.222zm-37.493-4.568c.413 0 .782.075 1.15.265v2.314c-.31-.132-.59-.248-.943-.248-.694 0-.93.409-.93 1.265v1.224h1.873v2.207h-1.872v5.347H30.57v-5.347h-.944v-2.207h.944v-.958c0-1.048.029-1.814.766-2.654a3.447 3.447 0 012.64-1.208zm146.763 4.714v2.577c-.367-.204-.72-.25-1.132-.25-1.49 0-1.86.989-1.86 2.283v3.05h-2.68v-7.556h2.68v1.237h.032c.515-.928 1.398-1.34 2.447-1.34h.513zM4.442 52.704c2.197 0 3.863 1.048 3.863 3.419 0 1.53-.855 2.856-2.432 3.135l3.493 4.552H5.769l-2.727-4.271h-.03v4.27H.124V52.705h4.319zm104.299-1.12v7.395l2.786-2.726h3.672l-3.788 3.492 4.02 4.065h-3.756l-2.934-3.077v3.077h-2.683V51.584h2.683zm54.35 0v7.395l2.787-2.726h3.669l-3.789 3.492 4.026 4.065h-3.758l-2.935-3.077v3.077h-2.683V51.584h2.683zM13.938 58.331c-1.09 0-1.725.78-1.725 1.709 0 .957.635 1.694 1.725 1.694 1.091 0 1.726-.737 1.726-1.694 0-.93-.635-1.709-1.726-1.709zm66.406 0c-1.091 0-1.725.78-1.725 1.709 0 .957.634 1.694 1.725 1.694 1.09 0 1.725-.737 1.725-1.694 0-.93-.635-1.709-1.725-1.709zm9.804 0c-1.09 0-1.724.78-1.724 1.709 0 .957.635 1.694 1.724 1.694 1.092 0 1.727-.737 1.727-1.694 0-.93-.635-1.709-1.727-1.709zm-50.172-.59c-.78 0-1.432.415-1.593 1.194h3.112c-.133-.722-.796-1.194-1.519-1.194zm162.483 0c-.783 0-1.433.415-1.594 1.194h3.112c-.133-.722-.797-1.194-1.518-1.194zm-141.386 0c-.781 0-1.43.415-1.592 1.194h3.112c-.133-.722-.798-1.194-1.52-1.194zM3.47 54.918l-.457-.003v2.769h.279c.944 0 2.006-.179 2.006-1.388 0-1.13-.934-1.355-1.828-1.378zm168.453-3.068a1.51 1.51 0 011.506 1.501 1.51 1.51 0 01-1.506 1.503 1.508 1.508 0 01-1.502-1.503c0-.824.677-1.5 1.502-1.5zm-125.46 0a1.51 1.51 0 011.505 1.501 1.51 1.51 0 01-1.505 1.503 1.508 1.508 0 01-1.503-1.503c0-.824.678-1.5 1.503-1.5zm-25.05 0c.827 0 1.504.677 1.504 1.501 0 .826-.677 1.503-1.504 1.503a1.507 1.507 0 01-1.502-1.503c0-.824.676-1.5 1.502-1.5z"/><path fill="#478639" d="M2.438 25.971c1.84 0 3.284 1.14 3.284 4.148v8.36c0 3.706 1.235 4.91 3.917 4.91 2.259 0 3.373-1.49 3.373-4.753V25.971h2.44c2.138 0 3.283 1.14 3.283 4.021v8.487c0 5.51-3.224 9.85-9.639 9.85C3.763 48.329 0 44.56 0 38.67v-12.7h2.438zm83.296 3.896c4.338 0 7.711 2.564 7.711 6.997 0 3.483-2.5 4.403-8.102 4.403h-2.47c.33 1.743 1.685 2.564 4.066 2.564 2.65 0 4.307-.443 5.241-1.107h.21v1.392c0 2.217-1.717 4.211-6.445 4.211-5.723 0-8.736-4.053-8.736-8.866 0-5.289 3.404-9.594 8.525-9.594zm58.346 0c4.338 0 7.711 2.564 7.711 6.997 0 3.483-2.5 4.403-8.102 4.403h-2.47c.33 1.743 1.685 2.564 4.066 2.564 2.65 0 4.306-.443 5.241-1.107h.21v1.392c0 2.217-1.715 4.211-6.445 4.211-5.725 0-8.734-4.053-8.734-8.866 0-5.289 3.4-9.594 8.523-9.594zm51.048 0c4.337 0 7.71 2.564 7.71 6.997 0 3.483-2.499 4.403-8.102 4.403h-2.468c.33 1.743 1.685 2.564 4.066 2.564 2.65 0 4.306-.443 5.24-1.107h.21v1.392c0 2.217-1.716 4.211-6.445 4.211-5.723 0-8.734-4.053-8.734-8.866 0-5.289 3.402-9.594 8.523-9.594zm-66.467.062c2.622 0 4.79 1.804 4.79 4.055v2.121h-.15c-.513-.571-2.079-1.204-3.675-1.204-2.802 0-4.367 1.49-4.367 3.925 0 2.978 1.565 4.374 4.096 4.374 1.778 0 3.012-.383 4.006-.984h.06v1.808c0 2.309-2.259 4.178-5.271 4.178-5.03 0-8.614-3.58-8.614-9.027 0-4.972 3.282-9.246 9.125-9.246zm-10.91-27.068c6.655-2.358 14.777-1.52 14.777-1.52l-.251.683c-.984 2.564-4.865 11.634-11.7 15.19-5.376 2.799-9.584 2.154-12.223.572-4.812 5.214-6.032 11.03-6.305 16.497l-.024.545v6.343c0 1.467.727 1.97 2.154 2.022l.26.005h1.265v2.09c0 2.124-1.93 2.79-3.736 2.79-2.945 0-5.495-1.782-5.656-5.628l-.008-.391v-7.906c-.32-5.334-1.435-8.561-4.142-13.277-2.148 1.332-5.71 1.88-10.165-.756-6.21-3.68-8.854-13.22-8.854-13.22l.264-.05.142-.026.783-.034c2.137-.064 7.466-.007 11.696 1.801 2.279.975 4.13 2.49 5.637 4.2 2.173 2.465 2.678 5.148 2.698 5.269a2.813 2.813 0 01-.341 1.023l-.04.059a16.002 16.002 0 00-6.109-3.663c2.251 1.338 4.002 2.905 5.37 4.564l-.004.003c3.03 3.287 4.689 7.372 5.588 10.934.112-.372.244-.745.372-1.118-.393-1.22-.701-2.915-.698-4.888.006-3.747 1.786-5.748 1.786-5.748l.116.23c.274.576.966 2.222 1.292 4.747 1.498-2.653 3.43-5.077 5.962-6.877l-.018-.011c1.48-1.321 3.236-2.603 5.32-3.783a23.444 23.444 0 00-6.128 3.096 6.9 6.9 0 01-.721-.822l-.049-.265c-.113-.724-.282-2.823 1.237-5.107 1.707-2.559 3.958-5.273 10.453-7.574zm62.429 23.3v4.243h4.85v2.123c0 1.488-1.508 2.627-2.802 2.627h-2.048v6.303c0 1.17.692 1.867 1.806 1.867 1.359 0 1.988-.126 2.59-.378h.153v2.344c0 1.455-1.267 2.786-4.247 2.786-2.833 0-5.876-1.425-5.876-6.209V31.07c0-1.584.874-2.85 1.99-3.739.753-.6 1.776-1.17 2.981-1.17h.603zM52.715 30.404c1.793 0 2.806 1.215 3.066 2.283l.038.187a38.845 38.845 0 002.077 7.411c1.205-2.947 2.108-6.05 2.77-9.152h2.23c1.446 0 2.862 1.235 3.164 2.596.33 1.615 1.295 4.53 2.167 6.556.904-2.184 1.93-6.017 2.472-9.88h2.68c1.778 0 2.5 1.171 2.5 2.185 0 .643-.388 2.17-.727 3.354l-.177.604c-.994 3.388-3.102 8.899-4.97 11.528H68.41c-1.415 0-2.14-.508-2.56-1.204-1.025-1.647-2.259-4.909-2.952-7.158-.663 2.564-2.29 6.49-3.705 8.362h-1.416c-1.325 0-2.048-.223-2.65-1.204-2.289-3.705-4.668-10.483-5.452-16.468h3.041zm60.484-4.243v4.243h4.85v2.123c0 1.488-1.505 2.627-2.802 2.627h-2.048v6.303c0 1.17.691 1.867 1.807 1.867 1.355 0 1.986-.126 2.589-.378h.151v2.344c0 1.455-1.264 2.786-4.244 2.786-2.832 0-5.876-1.425-5.876-6.209V31.07c0-1.584.874-2.85 1.988-3.739.756-.6 1.779-1.17 2.982-1.17h.603zm98.523 3.672c2.862 0 4.187 1.235 4.187 2.851v2.219h-.18c-.723-.288-1.264-.35-2.017-.35-1.387 0-2.472.728-2.472 2.852V47.82h-1.566c-2.47 0-3.977-1.202-3.977-4.117v-7.568c0-3.515 2.26-6.303 6.025-6.303zm-48.832.065c5.874 0 8.253 3.26 8.253 8.422v9.501h-2.41c-2.53 0-3.314-.886-3.314-3.547v-6.111c0-2.345-.75-3.39-2.678-3.39-1.659 0-2.562 1.173-2.562 3.296v9.752h-1.929c-2.438 0-3.795-1.013-3.795-3.547v-6.111c0-5.005 3.165-8.265 8.435-8.265zm-122.516 0c4.819 0 7.68 3.009 7.68 8.455v9.468h-1.988c-3.041 0-3.733-1.36-3.733-3.515V37.88c0-2.248-.725-3.074-2.381-3.074-1.597 0-2.139 1.237-2.139 2.978V47.82h-1.988c-2.319 0-3.553-.792-3.553-3.515V37.72c0-2.06-.754-2.915-2.26-2.915-1.596 0-2.23.855-2.23 3.009V47.82h-1.987c-2.56 0-3.735-1.297-3.735-3.515v-6.11c0-5.069 2.772-8.298 8.042-8.298 2.592 0 4.549 1.678 5.091 3.104.783-1.332 2.8-3.104 5.181-3.104zm45.36 4.466c-2.019 0-2.861 1.36-3.012 3.04h2.23c2.71 0 3.192-.445 3.192-1.205 0-.887-.753-1.835-2.41-1.835zm58.346 0c-2.017 0-2.861 1.36-3.014 3.04h2.23c2.71 0 3.193-.445 3.193-1.205 0-.887-.754-1.835-2.409-1.835zm51.048 0c-2.018 0-2.86 1.36-3.013 3.04h2.23c2.71 0 3.193-.445 3.193-1.205 0-.887-.754-1.835-2.41-1.835z"/><path fill="#79BB43" d="M78.642 6.413c13.502 0 16.12 8.715 15.737 11.58-.002.004-.002.01-.002.012-.003.02-.01.036-.013.056-.02-.12-.524-2.806-2.697-5.27-1.51-1.71-3.36-3.225-5.64-4.199-4.934-2.11-11.364-1.834-12.48-1.767.314-.057 3.367-.377 4.3-.402.1-.002.63-.01.795-.01zM118.389.855c7.427-1.441 14.14.485 14.14.485s-8.121-.835-14.778 1.52c-6.496 2.302-8.747 5.018-10.451 7.575-1.851 2.782-1.199 5.287-1.189 5.372-.15-.198-.258-.33-.377-.585-.526-1.447-.5-3.43.452-5.439 1.68-3.539 5.023-6.413 8.435-7.854A23.82 23.82 0 01118.39.855z"/></g></svg>