<?xml version="1.0" encoding="utf-8"?>
<!-- Generator: Adobe Illustrator 27.9.0, SVG Export Plug-In . SVG Version: 6.00 Build 0)  -->
<svg version="1.1" xmlns="http://www.w3.org/2000/svg" xmlns:xlink="http://www.w3.org/1999/xlink" x="0px" y="0px"
	 viewBox="0 0 1233 473.5" style="enable-background:new 0 0 1233 473.5;" xml:space="preserve">
<style type="text/css">
	.st0{fill:#D61036;}
	.st1{fill:#6F6F6F;}
	.st2{fill:#FFFFFF;}
	.st3{display:none;}
	.st4{display:inline;fill:none;stroke:#FFFFFF;stroke-width:12;stroke-miterlimit:10;}
	.st5{display:inline;fill:none;stroke:#FFFFFF;stroke-width:100;stroke-miterlimit:10;}
</style>
<g id="Ebene_1">
	<g>
		<g>
			<path class="st0" d="M853.2,100.1h-39.7v11.6c-13.8-9.1-30.4-14.4-48.2-14.4c-0.1,0-0.1,0-0.2,0c-48.5,0.1-87.8,39.6-87.7,88
				c0,23.5,9.2,45.5,25.9,62.1c16.6,16.5,38.6,25.6,62,25.6c0.1,0,0.1,0,0.2,0c17.7,0,34.2-5.3,48-14.4v11.6h39.7v-85.2c0,0,0,0,0,0
				c0,0,0,0,0,0V100.1z M765.3,233.3c-26.6,0-48.2-21.6-48.2-48.2c0-26.6,21.6-48.2,48.2-48.2s48.2,21.6,48.2,48.2
				C813.5,211.7,791.9,233.3,765.3,233.3z"/>
			<rect x="870.2" y="287.1" class="st0" width="39.7" height="85"/>
			<path class="st0" d="M1193.3,100.1v11.6c-13.8-9.1-30.4-14.4-48.2-14.4c-0.1,0-0.1,0-0.2,0c-48.5,0.1-87.8,39.6-87.7,88
				c0,23.5,9.2,45.5,25.9,62.1c16.6,16.5,38.6,25.6,62,25.6c0.1,0,0.1,0,0.2,0c17.7,0,34.2-5.3,48-14.4v11.6h39.7V100.1H1193.3z
				 M1145.1,233.3c-26.6,0-48.2-21.6-48.2-48.2c0-26.6,21.6-48.2,48.2-48.2c26.6,0,48.2,21.6,48.2,48.2
				C1193.3,211.7,1171.8,233.3,1145.1,233.3z"/>
			<path class="st0" d="M765.3,335.3c-26.6,0-48.2-21.6-48.2-48.2l-39.7,0.2c0,23.5,9.2,45.5,25.9,62.1c16.6,16.5,38.6,25.6,62,25.6
				c0.1,0,0.1,0,0.2,0c48.5-0.1,87.8-39.6,87.7-88l-39.7,0.2C813.5,313.8,791.9,335.3,765.3,335.3z"/>
			<path class="st0" d="M958.1,97.2c-0.1,0-0.1,0-0.2,0c-17.7,0-34.2,5.3-48,14.4v-11.6h-39.7v85.2c0,0,0,0,0,0c0,0,0,0,0,0v84.9
				h39.7v-11.5c14.2,9.3,30.8,14.4,48.2,14.4c0.1,0,0.1,0,0.2,0c48.5-0.1,87.8-39.6,87.7-88C1045.8,136.5,1006.4,97.2,958.1,97.2z
				 M958.1,233.3c-26.6,0-48.2-21.6-48.2-48.2c0-26.6,21.6-48.2,48.2-48.2s48.2,21.6,48.2,48.2
				C1006.2,211.7,984.7,233.3,958.1,233.3z"/>
		</g>
		<g>
			<polygon class="st1" points="202.8,99.9 169,211 140.7,127.1 102.6,127.1 75.1,210.9 41.3,99.9 0,99.9 56.4,270.2 91.2,270.1 
				120.9,177.2 152.7,270.1 187.6,270.2 244.3,99.9 			"/>
			<g>
				<rect x="256.2" class="st1" width="39.7" height="84"/>
				<path class="st1" d="M344,99.2c-0.1,0-0.1,0-0.2,0c-17.7,0-34.2,5.3-48,14.4V100h-39.7v87.2c0,0,0,0,0,0c0,0,0,0,0,0v84.9h39.7
					v-11.5C310,269.9,326.6,275,344,275c0.1,0,0.1,0,0.2,0c48.5-0.1,87.8-39.6,87.7-88C431.8,138.5,392.4,99.2,344,99.2z M344,235.3
					c-26.6,0-48.2-21.6-48.2-48.2s21.6-48.2,48.2-48.2c26.6,0,48.2,21.6,48.2,48.2S370.6,235.3,344,235.3z"/>
			</g>
			<polygon class="st1" points="539.4,100.1 501.2,210.3 463.1,100.1 420.9,100.1 485.9,270.2 517.3,270.2 581.4,100.1 			"/>
		</g>
		<rect x="575.4" y="166.4" class="st1" width="85" height="37.4"/>
	</g>
	<g>
		<path class="st1" d="M111.3,346.3c0,3.9-0.6,7.4-1.7,10.7c-1.2,3.2-2.9,6.1-5.2,8.4c-2.3,2.4-5.2,4.3-8.6,5.6
			c-3.4,1.3-7.4,2-11.8,2c-4.5,0-8.5-0.7-11.9-2c-3.4-1.3-6.3-3.2-8.6-5.6c-2.3-2.4-4-5.2-5.2-8.4c-1.2-3.2-1.7-6.8-1.7-10.7v-40
			h14.3v39.4c0,2,0.3,3.9,1,5.6c0.6,1.7,1.5,3.2,2.7,4.5c1.2,1.3,2.6,2.2,4.2,2.9c1.6,0.7,3.4,1.1,5.3,1.1c1.9,0,3.6-0.4,5.2-1.1
			c1.6-0.7,3-1.7,4.1-2.9c1.2-1.3,2.1-2.7,2.7-4.5c0.6-1.7,1-3.6,1-5.6v-39.4h14.3V346.3z"/>
		<path class="st1" d="M126.4,306.3h19.5l27.6,45.2h0.2v-45.2H188v65h-18.7l-28.4-46.3h-0.2v46.3h-14.3V306.3z"/>
		<path class="st1" d="M234.8,322.2c-1.2-1.5-2.7-2.6-4.7-3.3c-2-0.7-3.9-1.1-5.6-1.1c-1,0-2.1,0.1-3.2,0.4
			c-1.1,0.2-2.1,0.6-3.1,1.1c-1,0.5-1.8,1.2-2.4,2.1c-0.6,0.9-0.9,1.9-0.9,3.1c0,2,0.7,3.5,2.2,4.5c1.5,1,3.3,1.9,5.6,2.7
			c2.2,0.7,4.6,1.5,7.2,2.2c2.6,0.7,5,1.8,7.2,3.1c2.2,1.3,4.1,3.2,5.6,5.4c1.5,2.3,2.2,5.3,2.2,9.1c0,3.6-0.7,6.8-2,9.5
			c-1.3,2.7-3.2,4.9-5.5,6.7c-2.3,1.8-5,3.1-8,3.9c-3,0.9-6.2,1.3-9.6,1.3c-4.2,0-8.1-0.6-11.8-1.9c-3.6-1.3-7-3.4-10.1-6.2
			l10.2-11.2c1.5,2,3.3,3.5,5.6,4.5c2.2,1.1,4.5,1.6,6.9,1.6c1.2,0,2.3-0.1,3.5-0.4c1.2-0.3,2.3-0.7,3.2-1.2
			c0.9-0.6,1.7-1.3,2.3-2.1c0.6-0.9,0.9-1.9,0.9-3c0-2-0.8-3.5-2.3-4.6c-1.5-1.1-3.4-2.1-5.6-2.9c-2.3-0.8-4.7-1.6-7.3-2.4
			c-2.6-0.8-5.1-1.9-7.3-3.2c-2.3-1.3-4.1-3.1-5.6-5.3c-1.5-2.2-2.3-5.1-2.3-8.7c0-3.5,0.7-6.6,2.1-9.2c1.4-2.6,3.2-4.8,5.5-6.6
			c2.3-1.8,4.9-3.1,7.9-4c3-0.9,6.1-1.3,9.3-1.3c3.7,0,7.2,0.5,10.7,1.6c3.4,1,6.5,2.8,9.3,5.2L234.8,322.2z"/>
		<path class="st1" d="M257.8,306.3H302v13.2h-29.8v12.1h28.2v13.2h-28.2v13.2h31.5v13.2h-45.8V306.3z"/>
		<path class="st1" d="M317.9,306.3h25.2c3.3,0,6.4,0.3,9.4,1c3,0.6,5.6,1.7,7.8,3.2c2.2,1.5,4,3.5,5.3,6.1c1.3,2.5,2,5.7,2,9.5
			c0,4.6-1.2,8.5-3.6,11.7c-2.4,3.2-5.9,5.2-10.5,6.1l16.5,27.5h-17.2l-13.6-26h-7.1v26h-14.3V306.3z M332.2,333.2h8.4
			c1.3,0,2.6,0,4.1-0.1c1.4-0.1,2.7-0.4,3.9-0.8c1.2-0.5,2.1-1.2,2.9-2.2c0.8-1,1.1-2.4,1.1-4.1c0-1.7-0.3-3-1-3.9
			c-0.7-1-1.5-1.7-2.6-2.2c-1-0.5-2.2-0.9-3.6-1.1c-1.3-0.2-2.7-0.3-3.9-0.3h-9.4V333.2z"/>
		<path class="st1" d="M379.8,306.3H424v13.2h-29.8v12.1h28.2v13.2h-28.2v13.2h31.5v13.2h-45.8V306.3z"/>
		<path class="st1" d="M49.6,406.9h15.6l10.4,41.7h0.2l13.6-41.7h13.3l13.5,42.8h0.2l10.9-42.8h14.5l-19,65h-12.8l-14.3-45h-0.2
			l-14.3,45H68.9L49.6,406.9z"/>
		<path class="st1" d="M144.3,439.4c0-5.2,0.9-9.9,2.6-14.1c1.7-4.2,4.2-7.8,7.3-10.8s6.8-5.2,11.1-6.8c4.3-1.6,9-2.4,14.1-2.4
			c5.1,0,9.8,0.8,14.1,2.4c4.3,1.6,8,3.9,11.1,6.8c3.1,3,5.6,6.6,7.3,10.8c1.7,4.2,2.6,8.9,2.6,14.1c0,5.2-0.9,9.9-2.6,14.1
			c-1.7,4.2-4.2,7.8-7.3,10.8c-3.1,3-6.8,5.2-11.1,6.8c-4.3,1.6-9,2.4-14.1,2.4c-5.1,0-9.8-0.8-14.1-2.4c-4.3-1.6-8-3.9-11.1-6.8
			c-3.1-3-5.6-6.6-7.3-10.8C145.2,449.3,144.3,444.6,144.3,439.4z M159.2,439.4c0,3.1,0.5,5.9,1.4,8.4c0.9,2.5,2.3,4.7,4.1,6.6
			c1.8,1.9,3.9,3.3,6.4,4.4c2.5,1,5.2,1.6,8.3,1.6c3.1,0,5.8-0.5,8.3-1.6c2.5-1,4.6-2.5,6.4-4.4c1.8-1.9,3.1-4.1,4.1-6.6
			c0.9-2.5,1.4-5.3,1.4-8.4c0-3-0.5-5.8-1.4-8.4c-1-2.6-2.3-4.8-4.1-6.7c-1.8-1.9-3.9-3.3-6.4-4.4c-2.5-1-5.3-1.6-8.3-1.6
			c-3.1,0-5.8,0.5-8.3,1.6c-2.5,1-4.6,2.5-6.4,4.4c-1.8,1.9-3.1,4.1-4.1,6.7C159.7,433.6,159.2,436.4,159.2,439.4z"/>
		<path class="st1" d="M224.2,406.9h14.3v24.2h27.8v-24.2h14.3v65h-14.3v-28.1h-27.8v28.1h-14.3V406.9z"/>
		<path class="st1" d="M296.7,406.9h19.5l27.6,45.2h0.2v-45.2h14.3v65h-18.7l-28.4-46.3H311v46.3h-14.3V406.9z"/>
		<path class="st1" d="M374.3,406.9h24.2c2.8,0,5.6,0.2,8.5,0.6c2.8,0.4,5.4,1.2,7.7,2.4c2.3,1.2,4.1,2.9,5.5,5
			c1.4,2.1,2.1,5,2.1,8.5c0,3.7-1,6.7-3.1,9.1c-2.1,2.4-4.8,4.1-8.1,5.2v0.2c2.1,0.3,4.1,0.9,5.8,1.8c1.7,0.9,3.2,2,4.5,3.4
			c1.3,1.4,2.2,3,2.9,4.8c0.7,1.8,1,3.8,1,5.9c0,3.4-0.7,6.3-2.2,8.6c-1.5,2.3-3.4,4.1-5.7,5.6c-2.3,1.4-4.9,2.4-7.9,3
			c-2.9,0.6-5.8,0.9-8.7,0.9h-26.6V406.9z M388.6,432.8H399c1.1,0,2.2-0.1,3.3-0.4c1.1-0.2,2-0.6,2.9-1.2c0.9-0.6,1.5-1.3,2.1-2.2
			c0.5-0.9,0.8-2,0.8-3.3c0-1.3-0.3-2.5-0.9-3.4c-0.6-0.9-1.3-1.6-2.3-2.1c-0.9-0.5-2-0.8-3.1-1.1c-1.2-0.2-2.3-0.3-3.4-0.3h-9.7
			V432.8z M388.6,459.8h12.9c1.1,0,2.2-0.1,3.4-0.4c1.1-0.2,2.2-0.7,3.1-1.3c0.9-0.6,1.7-1.4,2.3-2.4c0.6-1,0.9-2.2,0.9-3.6
			c0-1.5-0.4-2.8-1.1-3.7c-0.8-0.9-1.7-1.7-2.9-2.2c-1.2-0.5-2.4-0.8-3.8-1c-1.3-0.2-2.6-0.3-3.8-0.3h-10.8V459.8z"/>
		<path class="st1" d="M456.9,406.9h11.8l28.3,65h-16.2l-5.6-13.8H450l-5.4,13.8h-15.8L456.9,406.9z M462.4,425.8l-7.9,20.2h15.9
			L462.4,425.8z"/>
		<path class="st1" d="M558.8,446.8c0,3.9-0.6,7.4-1.7,10.7c-1.2,3.2-2.9,6.1-5.2,8.4c-2.3,2.4-5.2,4.3-8.6,5.6
			c-3.4,1.3-7.4,2-11.8,2c-4.5,0-8.5-0.7-11.9-2s-6.3-3.2-8.6-5.6c-2.3-2.4-4-5.2-5.2-8.4c-1.2-3.2-1.7-6.8-1.7-10.7v-40h14.3v39.4
			c0,2,0.3,3.9,1,5.6c0.6,1.7,1.5,3.2,2.7,4.5c1.2,1.3,2.6,2.2,4.2,2.9c1.6,0.7,3.4,1.1,5.3,1.1c1.9,0,3.6-0.4,5.2-1.1
			c1.6-0.7,3-1.7,4.1-2.9c1.2-1.3,2.1-2.7,2.7-4.5c0.6-1.7,1-3.6,1-5.6v-39.4h14.3V446.8z"/>
		<path class="st1" d="M565.6,406.9H582l16.1,42.6h0.2l16.3-42.6h15.3l-26.8,65h-11.5L565.6,406.9z"/>
		<path class="st1" d="M637.7,406.9h44.2v13.2H652v12.1h28.2v13.2H652v13.2h31.5v13.2h-45.8V406.9z"/>
		<path class="st1" d="M697.8,406.9h25.2c3.3,0,6.4,0.3,9.4,1c3,0.6,5.6,1.7,7.8,3.2c2.2,1.5,4,3.5,5.3,6.1c1.3,2.5,2,5.7,2,9.5
			c0,4.6-1.2,8.5-3.6,11.7c-2.4,3.2-5.9,5.2-10.5,6.1l16.5,27.5h-17.2l-13.6-26h-7.1v26h-14.3V406.9z M712.1,433.8h8.4
			c1.3,0,2.6,0,4.1-0.1c1.4-0.1,2.7-0.4,3.9-0.8c1.2-0.5,2.1-1.2,2.9-2.2c0.8-1,1.1-2.4,1.1-4.1c0-1.7-0.3-3-1-3.9
			c-0.7-1-1.5-1.7-2.6-2.2c-1-0.5-2.2-0.9-3.6-1.1c-1.3-0.2-2.7-0.3-3.9-0.3h-9.4V433.8z"/>
		<path class="st1" d="M759.7,406.9h44.2v13.2H774v12.1h28.2v13.2H774v13.2h31.5v13.2h-45.8V406.9z"/>
		<path class="st1" d="M818.7,406.9H833v65h-14.3V406.9z"/>
		<path class="st1" d="M848.4,406.9h19.5l27.6,45.2h0.2v-45.2H910v65h-18.7l-28.4-46.3h-0.2v46.3h-14.3V406.9z"/>
		<path class="st1" d="M925.3,406.9h14.3v65h-14.3V406.9z"/>
		<path class="st1" d="M1013,467.3c-4.2,2.2-8.6,3.8-13.2,4.8c-4.6,1-9.3,1.5-14.1,1.5c-5.1,0-9.8-0.8-14.1-2.4
			c-4.3-1.6-8-3.9-11.1-6.8c-3.1-3-5.6-6.6-7.3-10.8c-1.7-4.2-2.6-8.9-2.6-14.1c0-5.2,0.9-9.9,2.6-14.1c1.7-4.2,4.2-7.8,7.3-10.8
			c3.1-3,6.8-5.2,11.1-6.8c4.3-1.6,9-2.4,14.1-2.4c5.2,0,10,0.6,14.4,1.9c4.4,1.3,8.2,3.4,11.5,6.5l-10.1,11c-2-2-4.2-3.6-6.6-4.6
			c-2.4-1-5.5-1.6-9.2-1.6c-3.1,0-5.8,0.5-8.3,1.6c-2.5,1-4.6,2.5-6.4,4.4c-1.8,1.9-3.1,4.1-4.1,6.7c-1,2.6-1.4,5.4-1.4,8.4
			c0,3.1,0.5,5.9,1.4,8.4c0.9,2.5,2.3,4.7,4.1,6.6c1.8,1.9,3.9,3.3,6.4,4.4c2.5,1,5.2,1.6,8.3,1.6c3.1,0,5.8-0.4,8.1-1.1
			c2.3-0.7,4.1-1.4,5.4-2.2v-10.6h-11.7v-13.2h25.4V467.3z"/>
		<path class="st1" d="M1082.2,446.8c0,3.9-0.6,7.4-1.7,10.7c-1.2,3.2-2.9,6.1-5.2,8.4c-2.3,2.4-5.2,4.3-8.6,5.6
			c-3.4,1.3-7.4,2-11.8,2c-4.5,0-8.5-0.7-11.9-2c-3.4-1.3-6.3-3.2-8.6-5.6c-2.3-2.4-4-5.2-5.2-8.4c-1.2-3.2-1.7-6.8-1.7-10.7v-40
			h14.3v39.4c0,2,0.3,3.9,1,5.6c0.6,1.7,1.5,3.2,2.7,4.5c1.2,1.3,2.6,2.2,4.2,2.9c1.6,0.7,3.4,1.1,5.3,1.1c1.9,0,3.6-0.4,5.2-1.1
			c1.6-0.7,3-1.7,4.1-2.9c1.2-1.3,2.1-2.7,2.7-4.5c0.6-1.7,1-3.6,1-5.6v-39.4h14.3V446.8z"/>
		<path class="st1" d="M1097.4,406.9h19.5l27.6,45.2h0.2v-45.2h14.3v65h-18.7l-28.4-46.3h-0.2v46.3h-14.3V406.9z"/>
		<path class="st1" d="M1233,467.3c-4.2,2.2-8.6,3.8-13.2,4.8c-4.6,1-9.3,1.5-14.1,1.5c-5.1,0-9.8-0.8-14.1-2.4
			c-4.3-1.6-8-3.9-11.1-6.8c-3.1-3-5.6-6.6-7.3-10.8c-1.7-4.2-2.6-8.9-2.6-14.1c0-5.2,0.9-9.9,2.6-14.1c1.7-4.2,4.2-7.8,7.3-10.8
			c3.1-3,6.8-5.2,11.1-6.8c4.3-1.6,9-2.4,14.1-2.4c5.2,0,10,0.6,14.4,1.9c4.4,1.3,8.2,3.4,11.5,6.5l-10.1,11c-2-2-4.2-3.6-6.6-4.6
			c-2.4-1-5.5-1.6-9.2-1.6c-3.1,0-5.8,0.5-8.3,1.6c-2.5,1-4.6,2.5-6.4,4.4c-1.8,1.9-3.1,4.1-4.1,6.7c-1,2.6-1.4,5.4-1.4,8.4
			c0,3.1,0.5,5.9,1.4,8.4c0.9,2.5,2.3,4.7,4.1,6.6c1.8,1.9,3.9,3.3,6.4,4.4c2.5,1,5.2,1.6,8.3,1.6c3.1,0,5.8-0.4,8.1-1.1
			c2.3-0.7,4.1-1.4,5.4-2.2v-10.6h-11.7v-13.2h25.4V467.3z"/>
	</g>
</g>
<g id="Ebene_2" class="st3">
	<path class="st4" d="M-6345-5416.3c319.3,752.5,434.2,1590.5,329.2,2401.1c-226.5-971.8-390.7-1958.2-491.4-2951
		c469.5,905.3,581.6,1990,307.1,2972.2c25.1-831.2,82.5-1661.5,172.2-2488.3c83.5,722.2,154.8,1505.2-219.9,2128.3
		c-50.3-897.6-8.9-1800.2,123.2-2689.4c290.4,716,436.6,1490,427.5,2262.6c-84.8-986.5-121.7-1977.2-110.5-2967.3
		c102.5-39.4,193.9,76.3,240.8,175.6c413.4,876.8,572.6,1871.8,453.3,2833.8c-335.4-1152.3-489.7-2357-455.5-3556.6
		c70.6-20.3,141.1-40.6,211.7-60.9c682.5,1013.3,845.3,2357.9,424.4,3504.8c-174.9-142.2-234.8-379.2-281.9-599.6
		c-205.7-964.3-358.8-1939.8-458.7-2920.8c436.5,167.1,681.9,625.6,848.4,1062.4c323.9,849.8,493.9,1758.1,499.3,2667.5
		c2.6,439.7-66.1,941.4-428.2,1191c-41.7-1174.5,5.4-2352.1,141-3519.4c28.5-245.4,77.2-518.8,278.2-662.4
		c491.8,829.1,696.6,1825,571.8,2780.9c-56.4,432-208.3,896.5-583,1118.7c-283.5-1421.5-407.3-2874.9-368-4323.9
		c333.7,143.9,554.7,465,720.3,788.5c516.6,1009,663.8,2202.1,407.8,3306.4c-84.1,362.7-256.5,762.7-613,870
		c-239.7-384.2-235.6-865.8-238.1-1318.6c-5.7-1034.9-85.3-2069.4-237.8-3093c-66.6-446.8-142.8-925.1,51.7-1332.8
		c792.5,659.1,1108.8,1729.3,1243.5,2751.2c95.3,723.4,104.8,1514.5-307.4,2116.5c-94.8-22-189.6-44-284.4-66
		c-443.5-1760.5-728.7-3560.8-851.3-5372.1c437.4,120.9,726.9,531.2,933.7,935.1c517.3,1010.3,749.4,2164.6,663,3296.3
		c-24.9,326.7-141.6,724.4-463.8,783.7c-521.5-1822.8-1043-3645.7-1564.5-5468.5c800.1,1249.3,1351.1,2657.4,1611.6,4117.9
		c167.7,940.5,193.2,1987.2-360.8,2765.6c-442.6-134.6-601.3-667.4-692-1121.1c-373.2-1867.6-746.3-3735.1-1119.5-5602.7
		c1272.5,1969.1,1621.8,4508.5,928.4,6748.1c-200.9,648.8-594.7,1360-1268.1,1448.1C-6569.1-2674-6785.6-4881.2-6801-7089.8
		c1212.7,1613.5,1872.7,3634.6,1845.9,5652.9c-7.1,534.5-74,1102.5-408.2,1519.7c-377.3-263.1-478.9-768-550.3-1222.4
		c-255.3-1625.1-510.6-3250.3-765.9-4875.4c-38.7-246.3-74.6-511.8,38.9-733.8c740,1165.8,1290.8,2451.5,1624.1,3791.5
		c169.5,681.4,280.4,1413.8,43.5,2074.8c-273.7-355.4-326.7-827.1-387.8-1271.6C-5593.2-3846.2-6084-5502.5-6811-7048
		c145.2-9.4,273.5,87.9,384.2,182.4C-4988.4-5637.4-3931-3969-3434.5-2143.8c194.3,714.1,298.4,1501.8-10.8,2174.1
		c-166.5,4.4-333,8.8-499.4,13.1c-992-1944.7-1385.8-4189.6-1114.8-6355.8c655,99.6,1160.1,619.3,1561.4,1146.4
		c818.5,1075.4,1431.3,2322.1,1673.8,3651.5c68.2,374,91.1,806.4-166.8,1085.7C-2601-2678.9-3138-4948.9-3600.9-7233.9
		c881.6,410.2,1478.4,1246.5,1997.9,2068.5C-1011.2-4229-445.3-3120-763.5-2059c-489.2,95.2-933.7-286.4-1263.7-659.8
		c-704-796.6-1293.8-1693.8-1746-2655.9c-262.3-558-458.5-1276.9-55.9-1743.9c585-207.5,1231.6-47.4,1821.5,145.5
		c1000.9,327.3,1986.7,755.6,2795.1,1430.3S2216-3920.3,2324.8-2872.9c66.2,637.6-86,1338.5-568.5,1760.5
		C1181.8-609.8,318-634.2-425.5-807.3c-974.8-226.9-1900.8-661.4-2698.3-1266.3c-646.3-490.2-1229.9-1131-1409.4-1922
		c-77.6-341.8-76.2-696.6-51.9-1046.2c72.1-1038.9,369.7-2108.6,1091.5-2859.3c733.7-763.1,1840.8-1104.5,2897.1-1034.1
		c1841.5,122.7,3477.8,1435.7,4279.2,3098.2c315.2,653.8,519.8,1375.8,476.9,2100.3s-355.1,1450.9-926,1899.1
		c-362,284.2-817.5,447.3-1277.6,457.5C988.7-1358.6,96.4-2014.5-380.5-2856.5s-597.6-1840.8-586.9-2808.5
		c6.5-590.8,59.9-1188.8,258.8-1745.2S-153.2-8482,354.5-8784.1c781.3-464.9,1767.1-359.4,2656.8-172.6
		c129.7,27.2,260.3,56.2,380.5,112c119,55.2,224.6,135.1,329.1,214.4c311.1,236,622.1,471.9,933.2,707.9
		c122.8,93.2,246.6,187.2,347.7,303.6c102.2,117.6,178.6,254.9,254.2,391.1c221,398,442,796,663,1194
		c68.6,123.6,137.7,248.1,181.5,382.5c59.6,182.7,70.7,377.2,81.3,569.1c19,345,38.1,690.1,57.1,1035.1
		c6.7,122.2,13.4,245.7-8.5,366c-26.8,147.5-95.2,283.8-164.8,416.6C5530.1-2241,4818.9-1226.9,3755.2-777
		c-476.9,201.7-1006.4,277.4-1520.7,217.3c-277-32.3-553.4-105.1-791.1-250.9c-335.9-206-571.6-542.5-751.7-893
		C118.4-2818.8,30-4151.4,338.1-5366.9s993.8-2316.4,1865.4-3217.9c365.4-378,775.1-730.5,1265.2-920.6
		c472.5-183.3,1006.6-203.7,1491.7-56.9c993.1,300.5,1688.4,1285.7,1816.4,2315.3c128,1029.7-244.6,2076-845.9,2921.6
		c-160.1,225.2-336.4,439-526.9,639.2c-190,199.6-394.1,385.5-605.1,562.9c-89.5,75.2-181,149.4-283.8,205.2
		c-125.4,68-264.2,106.7-402,143.3c-437.1,116.3-900.7,217.4-1337,98c-814.6-223.1-1238-1112.8-1455-1929.2
		c-385-1448.2-448.6-2981-185-4456.1"/>
	<path class="st5" d="M2097.6-2381.7c52.2-2208.5-569.7-4428.4-1761.8-6288.3c-277.8-433.4-587.4-851-792-1323.4
		c953.7,1312.3,1680.5,2772.6,2402.7,4225.2c100.2,201.6,200.6,403.6,280.5,614.1c92.3,243.5,156.5,496.6,220.4,749.1
		c172.7,682,345.4,1364,518.1,2046c28,110.5,56.1,222,61.6,335.9c5.7,118.2-13.1,236-31.8,352.8
		c-105.7,659-213.1,1324.4-462.7,1943.4c-140.6,348.7-374.8,716.6-745.8,777.9c-353.6-529.5-534.5-1152.4-710.4-1764.2
		c-312.8-1088-625.6-2176.1-938.3-3264.1C34.5-4337.7-41.7-4794,250.5-5028.9c612.8,364.6,859.5,1128.7,931.3,1838.1
		c149.4,1475.9-249,2970.9-930.9,4288.3C126.7,717.3,207,304.8,274.5-89.5c474.4-2771.7,248.2-5660.5-652-8324.6
		C135.3-6976.4,601.3-5507.5,754.4-3988.8S729.7-885,13.8,463.1c-210.3,396-479.3,781.8-870.8,1000.6
		c-92.1-435.2,70.4-878.9,221.1-1297.5C-28-1522.1,430.7-3279.3,516.2-5071.7c44.1-923.5-11.2-1848.9-88.3-2770.3
		c-17.4-207.4-35.6-418.5,9.8-621.6s165.7-400.6,355.8-485.3c946.8,638.6,1490.3,1727.7,1829.8,2818.2
		c417.9,1342.4,586,2795.2,237.3,4157.2c-220.9,862.8-647.5,1672.1-1234.4,2342c-338.2,386-738,731.7-1214.1,923.1
		c-242.8-35.8-460.3-210.2-548.1-439.4c-30.2-78.9-45.8-162.7-53.9-246.8c-21.4-224.4,10.2-450.1,42.1-673.3
		C236.3-2754,664.9-5507.2,87.4-8158.6"/>
</g>
</svg>
