<?xml version="1.0" encoding="UTF-8"?><svg id="uuid-69b72107-732b-417e-8064-6a73d3c8bc6b" xmlns="http://www.w3.org/2000/svg" viewBox="0 0 266.59 77.73"><g id="uuid-8e1161c2-0d14-4452-b00d-4458c8d8b2a5"><path d="M266.59,0v19.48h-56.97v9.61h56.97v19.43h-56.96v9.62h56.95v19.58c-.48,0-47.68-.02-70.86-.04-3.38,0-5.32-1.95-5.32-5.36,0-22.3,0-44.61,0-66.91,0-3.46,1.95-5.41,5.42-5.41,23.18,0,70.76,0,70.76,0Z" fill="#5b8504" stroke-width="0"/><path d="M95.28,64.78h63.42v-19.49c-3.83,0-39.18,0-58.05,0-3.46,0-5.45-1.94-5.45-5.4-.02-11.53-.02-23.06,0-34.59,0-3.32,1.98-5.29,5.32-5.29h70.88v12.87h-63.46v19.59h1.42c18.94,0,37.88,0,56.83,0,3.22,0,5.26,1.98,5.26,5.19.01,11.61.01,23.22,0,34.83,0,3.23-2.03,5.2-5.25,5.2-23.14,0-70.92.04-70.92.04v-12.94Z" fill="#69a002" stroke-width="0"/><path d="M69.88,71.13V.07h6.38c0,.5,0,.93,0,1.36,0,23.54-.03,47.09.04,70.63,0,3.01-1.89,5.69-5.7,5.67-21.82-.1-43.64-.05-65.46-.05C2.11,77.68.01,75.72.01,72.73,0,48.67,0,24.61,0,.55c0-.12.03-.24.06-.45h6.27v71.01h28.67V.07h6.35v71.07h28.54Z" fill="#78ad04" stroke-width="0"/></g></svg>